<svg width="385" height="358" viewBox="0 0 385 358" fill="none" xmlns="http://www.w3.org/2000/svg">
<g clip-path="url(#clip0_216_3202)">
<path d="M31.0528 102.634C35.4034 92.2084 48.402 95.5396 56.4674 98.525C64.0295 101.331 71.5321 104.861 79.6438 105.686C86.7027 106.411 93.106 104.356 99.5093 101.57C106.985 98.3521 114.693 94.3627 123.05 96.1513C123.672 96.2842 123.944 95.3268 123.315 95.1938C115.925 93.6114 109.038 96.3241 102.35 99.2497C98.1386 101.091 93.9205 103.053 89.4242 104.103C84.3518 105.195 79.0928 105.049 74.0881 103.678C62.6191 100.826 37.3965 84.8945 30.1059 102.348C29.8543 102.94 30.821 103.199 31.0594 102.614L31.0528 102.634Z" fill="#C8CCD1"/>
<path d="M88.9211 290.588C102.747 273.135 129.87 275.336 149.398 278.102C170.767 281.127 192.01 285.196 212.829 277.151C223.477 273.035 233.211 266.931 242.839 260.861C243.375 260.522 242.879 259.657 242.336 259.996C233.111 265.814 223.795 271.685 213.65 275.761C202.87 280.09 191.612 281.579 180.044 280.967C158.517 279.817 137.161 272.842 115.494 276.153C105.343 277.703 94.7946 281.586 88.2192 289.884C87.8218 290.382 88.5171 291.094 88.9211 290.588Z" fill="#C8CCD1"/>
<path d="M224.41 285.575C233.157 279.212 243.348 274.83 254.255 274.445C264.85 274.079 275.087 277.231 284.934 280.781C294.529 284.245 304.011 288.235 314.023 290.356C323.75 292.46 333.824 292.326 343.492 289.965C353.159 287.603 362.169 283.074 369.845 276.719C370.342 276.313 369.633 275.608 369.143 276.014C352.688 289.518 331.022 293.807 310.494 288.501C291.642 283.614 273.69 272.543 253.679 273.467C242.806 273.973 232.621 278.354 223.88 284.711C223.37 285.083 223.88 285.948 224.384 285.575H224.41Z" fill="#C8CCD1"/>
<path d="M230.065 237.237C242.058 232.582 254.851 235.242 266.936 238.088C279.021 240.934 291.178 244.072 303.581 245.488C324.195 247.895 346.749 245.036 362.429 230.195C362.893 229.75 362.191 229.045 361.727 229.484C344.577 245.741 319.612 247.184 297.495 243.666C285.497 241.758 273.803 238.507 261.943 235.947C251.348 233.653 240.203 232.263 229.82 236.299C229.231 236.525 229.489 237.489 230.085 237.257L230.065 237.237Z" fill="#C8CCD1"/>
<path d="M151.802 140.414C169.774 130.161 191.036 133.599 210.326 137.295C229.615 140.992 248.653 143.845 267.697 137.342C277.064 134.112 285.747 129.15 293.297 122.714C293.787 122.302 293.085 121.597 292.595 122.009C283.033 130.142 271.66 135.844 259.44 138.632C246.262 141.597 233.019 140.414 219.881 138.06C197.406 134.071 172.541 127.422 151.305 139.529C151.191 139.596 151.108 139.705 151.074 139.832C151.039 139.96 151.057 140.096 151.123 140.211C151.189 140.326 151.298 140.409 151.425 140.444C151.552 140.478 151.688 140.46 151.802 140.394V140.414Z" fill="#C8CCD1"/>
<path d="M205.267 110.759C210.995 114.25 217.742 113.193 223.954 111.73C231.635 109.922 239.065 107.209 246.468 104.416C261.327 98.8044 276.392 92.7339 292.543 93.1129C292.674 93.1129 292.801 93.0603 292.894 92.9668C292.987 92.8733 293.039 92.7464 293.039 92.6142C293.039 92.4819 292.987 92.3551 292.894 92.2616C292.801 92.168 292.674 92.1155 292.543 92.1155C277.855 91.7432 263.989 96.6834 250.434 101.816C243.574 104.416 236.72 107.069 229.675 109.13C222.219 111.324 212.975 114.217 205.797 109.842C205.247 109.509 204.75 110.374 205.293 110.706L205.267 110.759Z" fill="#C8CCD1"/>
<path d="M137.062 27.3272C161.98 33.7502 184.328 17.6662 206.829 9.88687C232.542 0.997145 258.976 7.16078 283.643 16.4494C284.245 16.6755 284.503 15.7114 283.907 15.4853C260.804 6.78843 235.475 0.36549 211.067 7.50653C186.917 14.5478 163.715 33.1916 137.32 26.3831C137.257 26.3656 137.191 26.3608 137.126 26.3689C137.061 26.377 136.999 26.3978 136.942 26.4302C136.827 26.4957 136.743 26.6043 136.707 26.7321C136.672 26.86 136.689 26.9966 136.754 27.1119C136.82 27.2273 136.928 27.3119 137.055 27.3472L137.062 27.3272Z" fill="#C8CCD1"/>
<path d="M104.111 75.9984C104.375 75.9984 104.627 75.8933 104.813 75.7063C105 75.5192 105.104 75.2655 105.104 75.001C105.104 74.7365 105 74.4828 104.813 74.2958C104.627 74.1087 104.375 74.0037 104.111 74.0037C103.848 74.0037 103.595 74.1087 103.409 74.2958C103.223 74.4828 103.118 74.7365 103.118 75.001C103.118 75.2655 103.223 75.5192 103.409 75.7063C103.595 75.8933 103.848 75.9984 104.111 75.9984Z" fill="#FF6800"/>
<path d="M276.18 209.384C276.809 207.795 278.06 207.25 279.921 207.742C280.325 208.061 280.735 208.36 281.153 208.659C281.624 208.972 282.177 209.138 282.742 209.138C284.026 209.052 284.404 208.014 285.324 207.343C287.708 205.594 287.973 207.828 289.96 208.274C291.284 208.579 294.595 205.514 295.317 207.123C295.582 207.702 296.436 207.196 296.171 206.618C295.509 205.162 294.019 205.355 292.767 205.993C291.516 206.631 290.82 207.502 289.251 206.658C288.807 206.412 288.549 205.787 288.079 205.541C287.835 205.381 287.561 205.274 287.274 205.226C286.987 205.177 286.693 205.19 286.41 205.262C285.45 205.488 285.126 206.399 284.424 206.911C282.027 208.579 281.689 207.216 279.742 206.492C277.669 205.72 276.372 207.27 275.339 208.899C274.994 209.444 275.855 209.942 276.199 209.404L276.18 209.384Z" fill="#FF6800"/>
<path d="M286.821 213.766C288.682 209.876 291.357 213.859 293.854 212.961C294.364 212.781 294.516 212.336 294.887 212.123C296.555 211.206 297.906 212.17 299.277 212.934C300.886 213.832 303.164 214.77 303.846 212.223C303.869 212.1 303.845 211.973 303.779 211.867C303.714 211.761 303.611 211.684 303.491 211.651C303.371 211.617 303.243 211.63 303.132 211.687C303.021 211.744 302.936 211.84 302.892 211.957C302.171 214.617 298.257 210.428 296.933 210.215C295.33 209.956 294.734 211.099 293.297 211.372C291.708 211.678 290.649 210.514 288.94 210.827C288.28 210.947 287.662 211.234 287.142 211.659C286.622 212.085 286.218 212.636 285.967 213.26C285.689 213.832 286.543 214.344 286.821 213.766Z" fill="#FF6800"/>
<path d="M22.9812 121.318C23.5374 117.056 27.6165 121.398 29.2653 120.786C31.2055 120.074 30.5897 116.963 33.49 118.578C34.3641 119.064 34.8144 120.021 35.9732 119.622C36.3043 119.509 36.5096 119.124 36.7811 118.957C36.9206 118.713 37.0444 118.46 37.1519 118.199C39.059 116.757 40.39 116.963 41.125 118.798C41.4826 119.33 42.3434 118.798 41.9859 118.299C40.6085 116.271 39.2908 115.241 37.0062 116.344C36.7083 116.491 36.6884 117.089 36.45 117.229L34.1787 117.894C33.8798 117.574 33.5542 117.28 33.2053 117.016C32.5431 116.816 32.3974 116.431 31.6227 116.597C30.7089 116.79 30.6029 117.521 30.0798 118.106C30.04 118.41 29.8849 118.687 29.6468 118.879C29.4087 119.071 29.106 119.164 28.8018 119.137C28.144 119.735 27.5745 119.695 27.0934 119.017C26.4709 118.785 26.2325 118.352 25.5637 118.279C23.5772 117.987 22.2197 119.549 21.9879 121.331C21.9085 121.963 22.9017 121.963 22.9812 121.331V121.318Z" fill="#FF6800"/>
<path d="M33.0394 125.786C33.8605 123.226 36.7807 126.677 38.1051 126.451C39.4294 126.225 39.3897 124.928 40.2969 124.37C42.7933 122.834 43.2701 125.813 45.2964 126.132C46.7002 126.351 48.0312 125.354 49.0708 124.583C49.5807 124.204 49.0708 123.339 48.5676 123.718C47.8573 124.112 47.0704 124.347 46.2612 124.407C45.4519 124.467 44.6393 124.35 43.8793 124.064C43.5151 123.858 43.29 123.246 42.939 122.987C42.6306 122.678 42.2295 122.479 41.7975 122.421C41.3656 122.364 40.9267 122.45 40.5485 122.668C39.3434 123.273 39.8466 123.798 38.072 124.097C35.9861 124.456 33.1917 122.016 32.1123 125.494C31.9203 126.105 32.8738 126.371 33.0725 125.76L33.0394 125.786Z" fill="#FF6800"/>
<path d="M112.117 347.045C114.574 344.206 118.163 349.771 121.103 349.153C122.09 348.947 122.268 348.488 122.983 347.923C124.877 346.38 125.904 346.666 127.97 347.79C129.294 348.508 130.665 349.233 132.128 348.455C132.618 348.202 132.943 347.497 133.393 347.285C134.631 346.686 135.313 347.398 136.307 347.743C137.108 348.016 137.306 348.269 138.207 348.103C138.869 347.983 138.571 347.019 137.942 347.138C136.571 347.398 135.691 345.563 134.313 345.676C133.4 345.749 133.386 346.208 132.691 346.58C131.314 347.311 130.652 347.91 129.102 347.245C128.44 346.979 127.844 346.487 127.202 346.174C126.472 345.739 125.64 345.509 124.791 345.509C124.111 345.572 123.474 345.87 122.99 346.354C121.513 347.63 122.328 348.9 118.653 347.544C117.954 347.158 117.29 346.713 116.666 346.214C114.945 345.184 112.879 344.638 111.428 346.307C111.011 346.793 111.706 347.504 112.13 347.012L112.117 347.045Z" fill="#FF6800"/>
<path d="M128.096 353.268C130.539 350.263 131.95 354.113 134.003 354.272C135.433 354.385 136.585 352.756 138.022 352.843C140.247 352.976 141.75 355.217 143.982 353.76C144.511 353.415 144.015 352.55 143.478 352.903C141.624 354.113 139.505 351.859 137.638 351.779C136.247 351.719 135.565 352.69 134.208 352.683C131.778 352.683 129.573 349.877 127.394 352.564C126.997 353.062 127.692 353.767 128.096 353.268Z" fill="#FF6800"/>
<path d="M23.6495 87.1021C27.4676 87.1021 30.5627 83.9943 30.5627 80.1606C30.5627 76.3268 27.4676 73.219 23.6495 73.219C19.8315 73.219 16.7363 76.3268 16.7363 80.1606C16.7363 83.9943 19.8315 87.1021 23.6495 87.1021Z" stroke="#FF6800" stroke-width="0.662069" stroke-miterlimit="10"/>
<path d="M195.936 257.19C197.399 257.19 198.585 256 198.585 254.531C198.585 253.062 197.399 251.871 195.936 251.871C194.473 251.871 193.287 253.062 193.287 254.531C193.287 256 194.473 257.19 195.936 257.19Z" stroke="#FF6800" stroke-width="0.331035" stroke-miterlimit="10"/>
<path d="M46.0048 312.557C48.4587 312.557 50.448 310.559 50.448 308.095C50.448 305.631 48.4587 303.634 46.0048 303.634C43.5508 303.634 41.5615 305.631 41.5615 308.095C41.5615 310.559 43.5508 312.557 46.0048 312.557Z" stroke="#FF6800" stroke-width="0.662069" stroke-miterlimit="10"/>
<path d="M350.231 6.58259C351.95 6.58259 353.344 5.18346 353.344 3.45755C353.344 1.73164 351.95 0.33252 350.231 0.33252C348.513 0.33252 347.119 1.73164 347.119 3.45755C347.119 5.18346 348.513 6.58259 350.231 6.58259Z" stroke="#FF6800" stroke-width="0.662069" stroke-miterlimit="10"/>
<path d="M382.499 81.6634C383.421 81.6634 384.168 80.9132 384.168 79.9878C384.168 79.0624 383.421 78.3123 382.499 78.3123C381.578 78.3123 380.831 79.0624 380.831 79.9878C380.831 80.9132 381.578 81.6634 382.499 81.6634Z" stroke="#FF6800" stroke-width="0.662069" stroke-miterlimit="10"/>
<path d="M106.614 80.5792C108.966 80.5792 110.872 78.6651 110.872 76.3039C110.872 73.9427 108.966 72.0286 106.614 72.0286C104.263 72.0286 102.356 73.9427 102.356 76.3039C102.356 78.6651 104.263 80.5792 106.614 80.5792Z" fill="#FF9348" fill-opacity="0.81"/>
<path d="M105.542 22.8793C107.301 22.8793 108.727 21.4474 108.727 19.6811C108.727 17.9148 107.301 16.4829 105.542 16.4829C103.782 16.4829 102.356 17.9148 102.356 19.6811C102.356 21.4474 103.782 22.8793 105.542 22.8793Z" fill="#FF9348" fill-opacity="0.81"/>
<path d="M280.497 319.93C283.752 319.93 286.39 317.281 286.39 314.013C286.39 310.745 283.752 308.095 280.497 308.095C277.242 308.095 274.604 310.745 274.604 314.013C274.604 317.281 277.242 319.93 280.497 319.93Z" fill="#FF9348" fill-opacity="0.81"/>
<path d="M232.727 221.558C234.274 221.558 235.528 220.299 235.528 218.746C235.528 217.193 234.274 215.933 232.727 215.933C231.18 215.933 229.926 217.193 229.926 218.746C229.926 220.299 231.18 221.558 232.727 221.558Z" fill="#FF9348" fill-opacity="0.81"/>
<path d="M76.1013 334.332C78.8076 334.332 81.0015 332.129 81.0015 329.412C81.0015 326.695 78.8076 324.492 76.1013 324.492C73.395 324.492 71.2012 326.695 71.2012 329.412C71.2012 332.129 73.395 334.332 76.1013 334.332Z" stroke="#FF9348" stroke-opacity="0.81" stroke-width="0.662069" stroke-miterlimit="10"/>
<path d="M164.642 301.985C164.905 301.985 165.158 301.88 165.344 301.693C165.53 301.506 165.635 301.252 165.635 300.987C165.635 300.723 165.53 300.469 165.344 300.282C165.158 300.095 164.905 299.99 164.642 299.99C164.378 299.99 164.126 300.095 163.939 300.282C163.753 300.469 163.648 300.723 163.648 300.987C163.648 301.252 163.753 301.506 163.939 301.693C164.126 301.88 164.378 301.985 164.642 301.985Z" fill="#FF9348" fill-opacity="0.81"/>
<path d="M309.5 263.886C309.236 262.736 314.182 264.099 314.904 263.886C316.083 263.534 316.592 262.609 317.917 262.29C319.797 261.845 321.738 262.523 323.519 263.035C324.728 263.484 326.043 263.556 327.293 263.241C329.28 262.869 330.432 262.669 332.359 263.241C333.224 263.552 334.144 263.679 335.061 263.613C335.723 263.567 335.723 262.569 335.061 262.616C332.518 262.802 330.617 261.073 328.061 261.605C326.485 261.938 325.413 262.39 323.784 262.057C323.122 261.924 322.459 261.652 321.797 261.499C320.594 261.186 319.343 261.1 318.109 261.246C316.407 261.519 315.46 262.649 313.732 262.49C312.652 262.397 311.533 261.758 310.421 261.825C309.05 261.918 308.209 262.822 308.507 264.119C308.646 264.744 309.606 264.478 309.467 263.853L309.5 263.886Z" fill="#FF9348" fill-opacity="0.81"/>
<path d="M325.605 268.328C328.155 267.29 330.101 268.66 332.048 270.043C332.161 270.101 332.291 270.115 332.414 270.082C332.536 270.049 332.642 269.971 332.71 269.863C334.134 267.995 335.962 267.716 338.008 268.387C338.504 268.554 338.922 268.879 339.425 269.052C340.59 269.381 341.823 269.381 342.987 269.052C343.61 268.913 343.352 267.949 342.723 268.088C339.028 268.919 336.809 264.764 333.551 267.463C331.631 269.046 332.075 268.367 329.644 267.41C328.975 267.09 328.243 266.919 327.501 266.91C326.76 266.901 326.024 267.053 325.347 267.357C324.764 267.596 325.022 268.56 325.612 268.314L325.605 268.328Z" fill="#FF9348" fill-opacity="0.81"/>
<path d="M36.9002 46.0577C36.5706 48.8798 36.493 51.7258 36.6684 54.5618C36.9399 59.0765 37.3703 66.0579 41.9129 72.4077C43.061 74.0202 44.3946 75.4909 45.886 76.7894C49.2857 77.7974 52.8104 78.3167 56.3551 78.332C64.2417 78.332 70.0822 75.7921 75.5584 73.332C80.9331 70.907 85.9778 67.8035 90.5701 64.0965C90.425 62.3218 90.1214 60.5639 89.6629 58.8438C86.3984 46.5165 76.0948 39.5616 71.4264 36.7957C69.4831 39.2193 67.2145 41.3607 64.6854 43.1588C62.136 44.9739 56.8783 48.7107 49.3559 48.9633C45.0249 49.0798 40.7365 48.0794 36.9002 46.0577Z" fill="white"/>
<path d="M143.121 37.3543C145.022 38.9646 146.773 40.745 148.352 42.6735C151.137 45.8311 153.287 49.5001 154.683 53.4781C156.108 57.8968 156.449 62.5958 155.676 67.1751C162.847 68.1213 169.698 70.7422 175.678 74.8275C181.657 78.9129 186.6 84.3489 190.11 90.6993C191.642 87.8853 192.993 84.976 194.156 81.9891C200.049 66.8294 199.883 52.6071 198.691 42.873C193.059 38.635 186.655 35.547 179.839 33.7838C162.569 29.3755 148.16 35.0803 143.121 37.3543Z" fill="white"/>
<path d="M177.051 316.32C177.714 317.949 178.747 320.19 180.078 322.797C181.938 326.447 184.792 332.032 188.944 337.125C196.414 346.268 205.413 350.523 209.18 352.272C214.077 354.525 219.25 356.117 224.563 357.006C228.453 354.599 232.112 351.837 235.496 348.754C242.38 342.46 248.051 334.945 252.222 326.586C249.379 326.453 246.579 325.839 243.938 324.771C238.045 322.371 234.708 318.342 232.304 315.376C225.51 306.985 223.1 297.65 222.146 292.105C213.248 292.247 204.513 294.521 196.667 298.738C188.821 302.955 182.091 308.992 177.038 316.347L177.051 316.32Z" fill="white"/>
<path opacity="0.14" d="M219.318 292.011C214.15 294.51 209.905 298.591 207.193 303.667C204.088 309.578 203.095 316.892 204.935 322.623C208.604 334.013 224.47 342.198 242.984 338.754C238.694 346.466 232.31 352.795 224.576 357.005C220.445 356.28 216.396 355.142 212.491 353.608C204.725 350.584 197.655 346.003 191.712 340.143C185.013 333.266 180.149 324.805 177.567 315.542C183.123 307.88 190.459 301.697 198.936 297.53C205.331 294.44 212.242 292.569 219.318 292.011Z" fill="#474C54"/>
<path opacity="0.14" d="M71.2082 37.647C68.8546 40.8384 67.0197 44.3842 65.7717 48.1524C61.5735 60.9251 65.5863 72.3149 67.2417 76.3442C60.3668 78.8028 52.8836 78.9591 45.9128 76.7897C42.0605 72.7011 39.3022 67.6994 37.8953 62.2511C36.4885 56.8028 36.4788 51.0855 37.8673 45.6324C40.5461 47.5425 43.6281 48.8054 46.873 49.3226C60.3881 51.3639 70.5328 38.5246 71.2082 37.647Z" fill="#474C54"/>
<path opacity="0.14" d="M144.055 38.1789C147.599 41.0371 150.51 44.606 152.603 48.6578C154.261 51.914 155.38 55.4196 155.914 59.0369C156.433 62.1942 156.546 65.4052 156.252 68.5915C159.849 69.2736 163.39 70.2226 166.847 71.4306C172.946 73.565 178.25 75.4201 183.051 80.0744C186.133 83.0868 188.54 86.725 190.11 90.746C189.272 84.2196 187.717 77.8064 185.474 71.6235C180.158 57.2825 171.402 44.4796 159.98 34.3491L144.055 38.1789Z" fill="#474C54"/>
<path d="M36.4035 46.0579C35.111 57.0551 37.9439 68.1414 44.3497 77.1553C44.7206 77.6739 45.5814 77.1553 45.2106 76.6566C38.9091 67.7922 36.1297 56.8852 37.4167 46.0712C37.4895 45.4063 36.4962 45.4063 36.4234 46.0712L36.4035 46.0579Z" fill="#18191C"/>
<path d="M37.5153 45.9981C42.091 50.0872 48.832 49.7348 54.4539 48.3917C61.0752 46.7662 67.0433 43.147 71.5581 38.0193C71.9819 37.5406 71.28 36.8358 70.8562 37.3145C66.9299 41.7716 61.8683 45.0701 56.2153 46.8558C50.5603 48.6112 42.9717 49.5154 38.2106 45.28C37.7338 44.8545 37.0319 45.5526 37.5087 45.9848L37.5153 45.9981Z" fill="#18191C"/>
<path d="M45.7802 77.248C60.1496 82.5672 77.7835 74.3624 89.3187 65.9447C89.8352 65.5724 89.3187 64.7013 88.8221 65.0803C77.4723 73.3783 60.1893 81.5034 46.0451 76.3039C45.4425 76.0845 45.1842 77.0486 45.7802 77.268V77.248Z" fill="#18191C"/>
<path d="M71.1813 37.2281C76.3604 39.7052 80.8185 43.4773 84.1279 48.1823C87.4373 52.8874 89.4869 58.3674 90.08 64.0967C90.1396 64.7616 91.1329 64.7616 91.0733 64.0967C90.4775 58.1946 88.3815 52.5452 84.9865 47.6901C81.5914 42.8351 77.011 38.9372 71.6846 36.3704C71.1085 36.0911 70.6052 36.9488 71.1813 37.2281Z" fill="#18191C"/>
<path d="M178.607 315.549C181.845 308.095 190.606 302.736 197.406 298.927C205.008 294.645 213.392 292.051 222.159 292.603C222.821 292.643 222.821 291.646 222.159 291.606C213.233 291.041 204.644 293.707 196.91 298.069C190.003 301.958 181.017 307.504 177.753 315.07C177.495 315.655 178.355 316.161 178.607 315.576V315.549Z" fill="#18191C"/>
<path d="M222.344 292.962C224.47 308.035 235.197 326.666 252.235 327.058C252.367 327.058 252.493 327.006 252.586 326.912C252.68 326.819 252.732 326.692 252.732 326.559C252.732 326.427 252.68 326.3 252.586 326.207C252.493 326.113 252.367 326.061 252.235 326.061C235.667 325.675 225.364 307.304 223.305 292.676C223.212 292.044 222.258 292.31 222.344 292.942V292.962Z" fill="#18191C"/>
<path d="M177.76 317.829C184.209 338.634 202.923 354.293 224.45 356.965C225.079 357.045 225.073 356.048 224.45 355.968C203.373 353.348 185.024 337.889 178.72 317.563C178.528 316.952 177.568 317.211 177.76 317.829Z" fill="#18191C"/>
<path d="M224.834 357.438C236.104 350.419 245.298 340.499 251.461 328.707C251.759 328.135 250.904 327.63 250.606 328.202C244.527 339.844 235.454 349.64 224.331 356.573C223.795 356.912 224.291 357.777 224.834 357.438Z" fill="#18191C"/>
<path d="M144.538 39.9473C148.585 43.0843 151.713 47.2615 153.589 52.037C155.466 56.8124 156.022 62.0084 155.199 67.0752C155.093 67.7003 156.053 67.9729 156.152 67.3412C157.024 62.0631 156.45 56.6465 154.493 51.6704C152.536 46.6943 149.269 42.3457 145.041 39.0896C144.531 38.6973 144.035 39.5616 144.538 39.9473Z" fill="#18191C"/>
<path d="M148.326 36.9156C165.543 33.0525 185.554 32.1283 199.122 45.4995C199.579 45.9516 200.281 45.2468 199.824 44.7947C186.004 31.1709 165.649 32.0352 148.061 35.9515C147.439 36.0911 147.703 37.0552 148.326 36.9156Z" fill="#18191C"/>
<path d="M158.404 69.7681C170.919 72.6006 185.057 77.481 189.612 90.8654C189.641 90.9579 189.695 91.0402 189.769 91.1026C189.842 91.165 189.932 91.2049 190.028 91.2175C190.123 91.2301 190.22 91.2149 190.308 91.1737C190.395 91.1325 190.468 91.0671 190.52 90.9851C198.605 76.9756 198.969 60.506 199.082 44.7545C199.082 44.6223 199.029 44.4954 198.936 44.4019C198.843 44.3084 198.717 44.2559 198.585 44.2559C198.453 44.2559 198.327 44.3084 198.234 44.4019C198.141 44.4954 198.088 44.6223 198.088 44.7545C197.976 60.3332 197.658 76.6299 189.659 90.4798L190.566 90.5995C185.891 76.8493 171.561 71.7229 158.669 68.804C158.046 68.6644 157.781 69.6285 158.404 69.7681Z" fill="#18191C"/>
<path d="M206.71 328.661C209.933 326.706 212.887 324.337 215.497 321.613C215.941 321.148 215.239 320.443 214.795 320.908C212.238 323.574 209.344 325.892 206.187 327.803C205.637 328.136 206.141 329 206.684 328.661H206.71Z" fill="#FF9348" fill-opacity="0.81"/>
<path d="M208.465 321.932C210.071 324.983 212.191 327.732 214.73 330.057C215.2 330.489 215.908 329.784 215.432 329.352C212.956 327.085 210.888 324.406 209.32 321.433C209.022 320.861 208.167 321.367 208.465 321.932Z" fill="#FF9348" fill-opacity="0.81"/>
<path d="M168.304 53.4716C172.75 53.7942 176.889 55.8687 179.819 59.2429C180.243 59.7216 180.945 59.0168 180.521 58.5381C177.402 54.9806 173.012 52.8016 168.304 52.4742C167.641 52.421 167.675 53.4184 168.304 53.4716Z" fill="#FF9348" fill-opacity="0.81"/>
<path d="M174.746 48.2051L173.422 58.3648C173.336 59.0297 174.336 58.9898 174.415 58.3648L175.739 48.2051C175.819 47.5735 174.826 47.5801 174.746 48.2051Z" fill="#FF9348" fill-opacity="0.81"/>
<path d="M57.7724 62.1749C61.2709 60.8162 64.6641 59.1982 67.9237 57.3344C67.9802 57.3012 68.0297 57.2572 68.0693 57.2048C68.1088 57.1525 68.1377 57.0928 68.1543 57.0292C68.171 56.9656 68.1749 56.8993 68.166 56.8342C68.1571 56.7691 68.1355 56.7063 68.1025 56.6496C68.0694 56.5928 68.0256 56.5431 67.9734 56.5034C67.9213 56.4637 67.8618 56.4346 67.7985 56.418C67.7352 56.4013 67.6692 56.3973 67.6043 56.4063C67.5394 56.4152 67.477 56.4369 67.4204 56.47C64.2323 58.2976 60.9121 59.8823 57.4877 61.2108C56.8983 61.4435 57.15 62.4076 57.7459 62.1749H57.7724Z" fill="#FF9348" fill-opacity="0.81"/>
<path d="M60.7121 54.0833L67.2345 63.7044C67.5921 64.2297 68.453 63.7044 68.0954 63.1991L61.5663 53.5779C61.2087 53.0527 60.3479 53.5779 60.7121 54.0833Z" fill="#FF9348" fill-opacity="0.81"/>
<path d="M92.7882 184.364C86.4116 193.392 81.0151 203.079 76.6906 213.26C67.8246 234.367 63.603 257.147 64.3144 280.043C69.1835 286.234 75.5732 291.046 82.8555 294.006C102.721 301.911 121.116 291.938 123.911 290.362C124.594 283.468 125.649 276.616 127.069 269.837C132.466 243.779 139.883 235.222 140.459 218.234C140.697 211.106 139.797 200.634 133.943 187.648L92.7882 184.364Z" fill="#FF6800"/>
<path d="M93.6434 144.21C92.9931 142.134 92.6976 139.962 92.7693 137.787C92.9102 134.496 93.849 131.29 95.5041 128.445C100.08 120.699 108.662 118.991 109.827 118.778C115.566 117.818 121.451 119.139 126.236 122.461C129.044 120.839 132.115 119.727 135.308 119.177C138.652 118.612 141.619 118.113 143.4 119.842C145.426 121.836 144.724 125.493 144.486 126.657C144.022 129.011 142.784 131.896 137.314 136.91C132.679 141.185 128.355 145.121 121.117 147.601C118.21 148.599 114.297 148.931 106.476 149.676C103.477 149.948 101.093 150.075 98.5303 148.825C96.4973 147.785 94.802 146.184 93.6434 144.21Z" fill="#FF9348" fill-opacity="0.81"/>
<path d="M113.396 147.953C114.682 149.353 115.748 150.943 116.554 152.668C117.958 155.713 117.806 157.821 118.296 161.477C118.886 166.455 120.053 171.346 121.772 176.052C123.189 179.722 123.931 181.591 125.745 183.273C129.447 186.657 134.281 186.704 135.83 186.724C137.996 186.724 140.869 186.77 143.452 184.855C145.842 183.073 146.63 180.62 147.591 177.628C148.551 174.636 149.504 171.644 148.405 167.934C147.554 165.241 145.881 162.885 143.624 161.198C141.419 159.494 138.779 158.45 136.009 158.186C132.835 156.218 129.608 154.124 126.328 151.903C124.341 150.573 122.406 149.228 120.521 147.867L113.396 147.953Z" fill="#18191C"/>
<path d="M94.9807 146.796C95.1198 147.847 95.3184 149.396 95.5104 151.265C96.0799 156.737 96.9606 165.154 96.2653 174.716C95.7261 181.92 94.3755 189.04 92.2393 195.939C97.6248 198.715 103.77 199.637 109.728 198.563C115.686 197.489 121.128 194.478 125.216 189.995L124.421 181.272C123.384 179.615 122.497 177.868 121.773 176.052C119.323 169.775 120.051 165.859 118.68 159.556C117.877 155.916 116.597 152.399 114.873 149.097C108.157 150.451 101.188 149.646 94.9542 146.796H94.9807Z" fill="white"/>
<path d="M121.27 147.375C121.709 149.117 122.312 150.814 123.071 152.441C124.494 155.507 125.435 157.528 127.481 158.711C130.514 160.473 134.103 159.303 135.215 158.891H137.712C137.27 157.118 136.751 155.307 136.155 153.459C134.914 149.491 133.448 145.597 131.765 141.796L121.27 147.375Z" fill="white"/>
<path opacity="0.17" d="M112.144 150.932C110.519 153.897 109.189 157.015 108.171 160.241C105.993 167.222 106.264 171.684 105.589 175.653C104.741 180.64 101.94 187.621 92.8418 195.414C94.0487 190.784 94.9643 186.083 95.5832 181.338C96.1386 177.042 96.4525 172.717 96.5235 168.386C96.5958 164.016 96.4234 159.645 96.007 155.294L112.144 150.932Z" fill="#474C54"/>
<path d="M94.9541 147.621C95.1594 148.951 95.4507 150.846 95.7553 153.16C97.6095 167.375 96.7751 172.442 98.3379 173C99.9006 173.559 103.821 169.463 113.926 149.277C107.559 150.174 101.072 149.608 94.9541 147.621Z" fill="#18191C"/>
<path d="M132.063 144.549C134.244 149.199 135.975 154.049 137.235 159.031L137.844 158.412C136.791 158.225 135.722 158.14 134.652 158.16C134.52 158.16 134.394 158.212 134.301 158.306C134.208 158.399 134.156 158.526 134.156 158.658C134.156 158.791 134.208 158.918 134.301 159.011C134.394 159.105 134.52 159.157 134.652 159.157C135.633 159.09 136.619 159.164 137.579 159.377C137.663 159.397 137.751 159.396 137.835 159.373C137.918 159.349 137.994 159.305 138.056 159.243C138.117 159.182 138.161 159.105 138.184 159.022C138.208 158.938 138.209 158.849 138.188 158.765C136.906 153.705 135.143 148.78 132.924 144.057C132.652 143.472 131.792 143.977 132.063 144.556V144.549Z" fill="#18191C"/>
<path d="M120.64 147.727C122.077 151.298 123.216 156.151 126.421 158.592C127.712 159.546 129.243 160.12 130.841 160.248C132.439 160.376 134.041 160.053 135.467 159.316C136.043 159.037 135.539 158.173 134.97 158.452C133.41 159.253 131.62 159.478 129.912 159.087C128.205 158.697 126.688 157.717 125.627 156.318C123.7 153.784 122.779 150.393 121.6 147.461C121.362 146.876 120.402 147.129 120.64 147.727Z" fill="#18191C"/>
<path d="M138.394 159.27C149.803 162.156 151.3 175.939 144.042 183.811C143.605 184.277 144.307 184.988 144.744 184.516C152.505 176.099 150.79 161.378 138.659 158.306C138.596 158.288 138.53 158.284 138.465 158.292C138.4 158.3 138.337 158.321 138.281 158.353C138.224 158.385 138.174 158.429 138.133 158.481C138.093 158.532 138.064 158.592 138.046 158.655C138.029 158.718 138.024 158.784 138.032 158.85C138.04 158.915 138.061 158.978 138.093 159.035C138.125 159.092 138.169 159.142 138.22 159.182C138.272 159.223 138.331 159.252 138.394 159.27Z" fill="#18191C"/>
<path d="M114.979 150.806C121.25 161.53 116.966 177.043 127.501 185.5C127.991 185.899 128.699 185.201 128.203 184.795C117.853 176.464 122.051 160.925 115.833 150.3C115.763 150.195 115.654 150.121 115.531 150.093C115.408 150.065 115.278 150.085 115.169 150.149C115.06 150.214 114.98 150.318 114.945 150.44C114.909 150.562 114.922 150.692 114.979 150.806Z" fill="#18191C"/>
<path d="M94.4772 147.727C97.0774 163.553 96.3602 179.749 92.3715 195.281C92.3541 195.344 92.3493 195.41 92.3573 195.476C92.3654 195.541 92.3861 195.604 92.4184 195.661C92.4507 195.718 92.4939 195.768 92.5455 195.809C92.597 195.849 92.6561 195.879 92.7191 195.896C92.7821 195.914 92.848 195.918 92.9129 195.91C92.9778 195.902 93.0405 195.881 93.0974 195.849C93.1542 195.817 93.2042 195.773 93.2444 195.721C93.2846 195.67 93.3142 195.61 93.3316 195.547C97.3577 179.842 98.0727 163.466 95.4307 147.468C95.3248 146.836 94.3712 147.102 94.4772 147.727Z" fill="#18191C"/>
<path d="M92.5436 143.984C94.007 147.973 97.9868 149.409 101.88 149.968C107.636 150.736 113.487 150.283 119.057 148.638C129.865 145.411 138.955 138.01 144.333 128.059C144.644 127.501 143.79 126.996 143.479 127.561C140.011 134.076 134.861 139.535 128.57 143.365C122.279 147.195 115.078 149.255 107.721 149.33C102.927 149.383 95.5102 149.117 93.5236 143.738C93.3051 143.146 92.3449 143.399 92.5701 144.004L92.5436 143.984Z" fill="#18191C"/>
<path d="M94.1199 144.076C92.7035 139.205 93.2352 133.971 95.6021 129.488C97.9689 125.004 101.984 121.624 106.794 120.067C116.475 116.829 126.66 121.137 132.421 129.262C132.791 129.781 133.652 129.262 133.281 128.757C127.044 119.967 115.906 115.459 105.576 119.448C100.76 121.26 96.805 124.832 94.5024 129.449C92.1998 134.065 91.7202 139.385 93.1597 144.342C93.3451 144.954 94.3053 144.695 94.1199 144.076Z" fill="#18191C"/>
<path d="M127.898 122.713C130.475 121.145 133.309 120.048 136.268 119.475C138.182 119.116 141.241 118.551 142.89 120.027C145.148 122.022 144.532 125.652 143.313 127.953C143.009 128.518 143.863 129.023 144.168 128.452C145.843 125.307 146.101 119.748 141.956 118.305C137.539 116.769 131.103 119.635 127.388 121.856C127.283 121.927 127.209 122.035 127.181 122.159C127.153 122.283 127.173 122.413 127.238 122.522C127.302 122.632 127.405 122.713 127.527 122.748C127.648 122.784 127.779 122.771 127.891 122.713H127.898Z" fill="#18191C"/>
<path d="M127.732 146.783C128.225 147.563 128.538 148.445 128.646 149.363L129.573 149.11C128.901 148.201 128.458 147.143 128.282 146.025C128.176 145.36 127.222 145.659 127.322 146.284C127.517 147.487 127.994 148.626 128.712 149.609C128.964 149.954 129.705 149.908 129.639 149.356C129.52 148.263 129.163 147.209 128.593 146.271C128.255 145.726 127.395 146.224 127.732 146.776V146.783Z" fill="#18191C"/>
<path d="M115.575 153.957C112.668 153.08 110.463 156.298 110.383 158.911C110.35 159.611 110.468 160.311 110.729 160.962C110.989 161.613 111.386 162.2 111.892 162.683C112.398 163.166 113.002 163.534 113.663 163.762C114.324 163.99 115.025 164.072 115.72 164.004C116.35 163.931 116.383 162.933 115.72 163.007C109.503 163.671 110.86 153.572 115.31 154.915C115.432 154.938 115.559 154.914 115.664 154.848C115.77 154.782 115.847 154.678 115.88 154.558C115.913 154.438 115.9 154.309 115.844 154.198C115.787 154.087 115.691 154.001 115.575 153.957Z" fill="#18191C"/>
<path d="M127.441 185.394C132.162 187.508 141.003 188.758 144.949 184.31C145.373 183.831 144.671 183.126 144.241 183.605C140.625 187.688 132.229 186.451 127.944 184.536C127.368 184.277 126.858 185.134 127.441 185.394Z" fill="#18191C"/>
<path d="M128.209 150.859C128.485 150.5 128.857 150.227 129.281 150.071C129.705 149.915 130.164 149.881 130.606 149.975C131.228 150.108 131.493 149.15 130.871 149.011C130.259 148.87 129.621 148.902 129.027 149.104C128.434 149.306 127.907 149.669 127.507 150.154C127.11 150.646 127.805 151.358 128.209 150.859Z" fill="#18191C"/>
<path d="M123.924 181.139C123.695 182.773 123.631 184.425 123.732 186.072C123.772 186.737 124.765 186.737 124.725 186.072C124.621 184.52 124.672 182.96 124.878 181.418C124.964 180.793 124.01 180.52 123.924 181.152V181.139Z" fill="#18191C"/>
<path d="M122.785 193.665C124.673 191.563 127 189.903 129.599 188.805C133.976 186.983 138.254 187.236 143.154 188.226C152.338 190.088 158.649 193.546 163.609 195.999C171.577 199.958 179.818 203.335 188.268 206.106C193.48 203.353 199.009 200.161 204.73 196.451C209.213 193.546 213.339 190.62 217.146 187.748C217.702 184.534 219.323 181.603 221.746 179.43C224.17 177.258 227.253 175.971 230.496 175.78C236.029 178.733 242.188 180.311 248.454 180.381C247.792 183.858 247.514 186.185 247.911 186.298C248.309 186.411 249.103 185.135 248.845 184.683C248.295 183.705 242.051 185.833 226.046 193.419C219.557 200.434 213.875 206.172 209.491 210.481C201.486 218.327 197.493 222.017 192.275 225.773C189.063 228.094 186.255 229.849 184.262 231.039C182.483 231.285 180.688 231.405 178.892 231.398C173.582 231.329 168.335 230.234 163.437 228.174C157.285 225.793 148.352 223.041 134.671 219.636L122.785 193.665Z" fill="white"/>
<path opacity="0.24" d="M121.772 191.558C123.944 193.373 127.302 196.132 131.487 199.364C154.769 217.356 166.827 226.438 178.502 224.284C181.203 223.785 186.276 219.397 196.414 210.627C215.617 194.004 220.915 186.351 232.88 183.107C237.856 181.793 243.032 181.423 248.143 182.016C249.051 184.131 248.806 185.374 248.461 186.085C246.614 190.075 237.939 187.089 229.357 191.451C227.722 192.276 226.947 192.941 220.954 198.865C209.843 209.789 206.605 213.36 202.87 216.877C197.134 222.266 190.866 227.054 184.163 231.166C179.528 230.906 174.635 230.414 169.476 229.61C157.007 227.657 144.828 224.153 133.222 219.178L121.772 191.558Z" fill="#474C54"/>
<path d="M126.162 191.378C135.466 184.443 146.895 189.636 156.285 193.513L186.897 206.146C187.487 206.385 187.745 205.421 187.162 205.182C175.766 200.474 164.383 195.72 152.96 191.066C144.273 187.522 133.969 184.317 125.659 190.514C125.155 190.893 125.659 191.757 126.162 191.372V191.378Z" fill="#18191C"/>
<path d="M184.68 208.845C193.248 203.659 202.042 198.831 210.604 193.639C213.478 191.897 216.332 189.889 218.272 187.083C219.298 185.607 219.835 183.938 220.61 182.335C221.212 180.985 222.108 179.787 223.23 178.829C224.353 177.871 225.675 177.176 227.099 176.797C227.214 176.752 227.308 176.667 227.363 176.557C227.419 176.447 227.432 176.32 227.399 176.201C227.367 176.082 227.292 175.979 227.189 175.912C227.086 175.846 226.962 175.819 226.841 175.839C225.366 176.221 223.988 176.913 222.798 177.869C221.609 178.825 220.635 180.023 219.941 181.384C218.736 183.738 218.08 185.999 216.279 188C214.716 189.654 212.934 191.084 210.981 192.249C202.234 197.768 193.05 202.628 184.196 207.98C184.082 208.047 183.999 208.157 183.966 208.286C183.932 208.414 183.951 208.551 184.017 208.665C184.084 208.78 184.193 208.863 184.321 208.897C184.449 208.931 184.585 208.912 184.699 208.845H184.68Z" fill="#18191C"/>
<path d="M133.096 219.663C142.509 223.046 152.088 225.942 161.795 228.34C166.444 229.493 171.121 230.521 175.827 231.426C179.257 232.09 182.661 232.636 185.879 230.94C189.428 229.065 192.66 226.193 195.752 223.659C199.414 220.654 202.943 217.489 206.347 214.225C213.22 207.675 219.69 200.714 226.159 193.759C226.59 193.287 225.888 192.582 225.451 193.054C213.611 205.794 201.612 219.072 187.177 228.959C182.588 232.09 178.078 230.914 173.006 229.876C168.516 228.954 164.051 227.926 159.61 226.791C150.73 224.524 141.969 221.811 133.335 218.719C132.732 218.506 132.474 219.464 133.076 219.683L133.096 219.663Z" fill="#18191C"/>
<path d="M233.681 177.475C236.217 178.716 238.911 179.6 241.687 180.101C242.757 180.287 243.835 180.414 244.919 180.48C246.568 180.58 246.793 180.168 247.766 181.863C248.667 183.446 248.528 184.25 248.024 185.952C248.001 186.075 248.025 186.202 248.091 186.308C248.157 186.414 248.26 186.491 248.38 186.525C248.499 186.558 248.627 186.545 248.738 186.489C248.849 186.432 248.934 186.335 248.978 186.218C249.567 184.224 250.302 180.607 247.932 179.569C247.275 179.458 246.607 179.435 245.945 179.503C244.603 179.461 243.265 179.332 241.939 179.117C239.245 178.634 236.63 177.784 234.165 176.591C233.589 176.318 233.086 177.176 233.668 177.448L233.681 177.475Z" fill="#18191C"/>
<path d="M226.47 193.692C229.311 189.703 237.509 192.542 241.615 191.937C245.045 191.432 246.912 189.65 248.342 186.578C248.614 185.999 247.76 185.494 247.488 186.079C244.634 192.17 239.078 190.986 233.43 190.734C230.609 190.62 227.391 190.654 225.616 193.167C225.245 193.692 226.106 194.191 226.47 193.666V193.692Z" fill="#18191C"/>
<path d="M1.10938 128.006C1.51331 129.057 20.5047 266.618 20.5047 266.618L140.314 335.229C137.307 286.94 134.303 238.646 131.301 190.347L1.10938 128.006Z" fill="white" stroke="#18191C" stroke-width="0.662069" stroke-miterlimit="10"/>
<path opacity="0.18" d="M54.8919 153.751C51.9569 163.359 50.2067 173.291 49.6805 183.326C45.5088 264.59 125.024 324.165 140.314 335.229L20.4584 266.612C14.0264 220.414 7.5767 174.213 1.10938 128.006L54.8919 153.751Z" fill="#474C54"/>
<path d="M225.569 16.4897C227.907 24.2159 230.039 32.3543 231.873 40.885C241.554 85.932 239.747 126.757 234.568 159.237L358.761 169.171L362.357 23.6973L225.569 16.4897Z" fill="white" stroke="#18191C" stroke-width="0.662069" stroke-miterlimit="10"/>
<path opacity="0.18" d="M297.648 92.1824C297.132 84.3243 297.523 76.4327 298.813 68.6648C300.959 55.7791 302.184 48.3987 308.375 43.2922C316.01 36.9956 328.903 36.0382 338.081 42.0489C348.676 49.0104 346.086 66.7433 345.51 80.5799C344.623 101.677 346.484 131.465 358.754 169.191L329.035 163.021C328.638 161.638 328.227 160.262 327.797 158.879C320.565 135.468 310.436 113.061 297.648 92.1824Z" fill="#474C54"/>
<path d="M270.803 95.2007C270.234 95.9254 269.426 96.9826 268.525 98.3058C267.863 99.2499 265.042 103.426 263.685 107.096C262.287 110.872 262.413 114.257 262.837 118.785C263.631 127.091 264.959 135.338 266.81 143.472C263.419 146.101 260.168 148.906 257.069 151.877C253.401 155.388 253.017 156.185 249.441 159.41C244.898 163.499 242.634 165.547 239.005 167.422C236.495 168.719 235.158 169.011 232.337 170.873C228.331 173.533 227.357 175.354 226.947 176.345C226.053 178.539 225.973 181.412 226.947 181.884C227.92 182.356 230.145 180.148 231.45 178.799C232.152 178.078 232.798 177.305 233.383 176.485C235.722 178.392 238.616 179.482 241.627 179.59C243.83 179.656 246.015 179.186 247.997 178.22C248.394 176.587 249.023 175.019 249.865 173.566C251.937 169.975 254.619 168.32 259.672 164.922C266.333 160.481 269.651 158.04 270.439 157.462C276.233 153.187 278.107 151.265 279.464 148.552C280.511 146.478 280.848 144.729 281.312 142.309C282.005 138.104 282.154 133.826 281.756 129.583C281.054 122.535 277.63 110.075 270.803 95.2007Z" fill="white"/>
<path d="M231.583 190.368C232.404 189.394 233.131 188.343 233.754 187.23C235.311 184.677 235.35 183.845 236.774 181.99C237.516 181.033 238.482 179.776 239.039 179.996C239.78 180.275 239.396 182.955 239.27 183.779C239.827 181.532 242.111 180.534 243.575 181.193C244.813 181.751 245.561 183.566 244.965 185.342C246.442 184.677 246.919 184.996 247.078 185.135C247.859 185.84 246.773 188.234 246.064 189.417C245.423 190.559 244.53 191.539 243.455 192.283C242.283 193.068 241.144 193.354 234.245 193.427C230.874 193.46 229.609 193.427 229.444 192.875C229.278 192.323 230.218 191.924 231.583 190.368Z" fill="white"/>
<path opacity="0.2" d="M274.253 103.179C274.452 105.939 274.723 110.035 274.975 115.001C275.445 124.23 275.684 128.845 275.458 131.039C275.141 134.17 273.624 145.095 265.751 153.433C261.116 158.346 258.354 158.027 251.103 165.401C248.569 167.957 246.251 170.719 244.17 173.659C242.842 175.54 241.615 177.491 240.495 179.503C241.533 180.219 242.783 180.557 244.038 180.461C244.817 180.38 245.571 180.139 246.254 179.755C246.937 179.371 247.535 178.851 248.011 178.227C248.763 175.673 249.994 173.287 251.64 171.199C253.805 168.466 255.772 167.469 261.347 163.812C266.32 160.54 268.81 158.898 271.121 157.003C275.035 153.772 278.273 151.105 280.22 146.863C282.113 142.721 281.994 138.778 281.59 134.629C280.458 123 277.306 111.823 274.253 103.179Z" fill="#474C54"/>
<path opacity="0.22" d="M232.854 193.407C234.364 193.065 235.789 192.421 237.045 191.512C241.978 187.888 242.27 181.066 243.574 181.179C244.011 181.219 244.534 182.037 244.965 185.328C246.084 184.876 246.786 184.809 247.077 185.122C247.704 185.8 246.439 188.238 243.283 192.436L232.854 193.407Z" fill="#474C54"/>
<path d="M268.175 97.9266C256.408 110.56 265.44 128.791 266.341 143.446C266.38 144.111 267.374 144.111 267.334 143.446C266.453 129.11 257.401 110.979 268.877 98.6313C269.314 98.1659 268.612 97.4545 268.175 97.9266Z" fill="#18191C"/>
<path d="M268.055 143.426C262.248 144.623 257.122 151.072 253.123 155.082C247.739 160.474 242.382 165.222 235.509 168.613C231.046 170.813 225.444 174.291 226.026 180.129C226.689 186.931 232.251 178.633 233.767 176.804C234.178 176.312 233.476 175.607 233.065 176.099C232.171 177.17 228.788 182.702 227.152 180.833C226.006 179.504 227.755 176.066 228.476 174.962C229.393 173.673 230.548 172.573 231.88 171.724C235.966 168.972 240.581 167.389 244.521 164.337C248.276 161.432 251.58 158.007 254.931 154.656C258.506 151.086 263.208 145.427 268.307 144.384C268.936 144.251 268.671 143.293 268.042 143.419L268.055 143.426Z" fill="#18191C"/>
<path d="M280.941 134.104C281.2 139.596 281.273 145.454 277.942 150.128C274.876 154.423 269.996 157.209 265.731 160.161C258.772 164.982 249.839 169.224 247.528 178.114C247.51 178.177 247.506 178.243 247.514 178.308C247.522 178.374 247.542 178.436 247.575 178.494C247.607 178.551 247.65 178.601 247.702 178.641C247.753 178.682 247.812 178.711 247.875 178.729C247.938 178.746 248.004 178.751 248.069 178.743C248.134 178.735 248.197 178.714 248.254 178.682C248.31 178.649 248.36 178.606 248.401 178.554C248.441 178.502 248.47 178.443 248.488 178.38C250.057 172.276 254.573 169.124 259.487 165.747C263.963 162.641 268.559 159.656 272.916 156.378C275.995 154.064 278.875 151.405 280.418 147.808C282.279 143.526 282.147 138.718 281.935 134.157C281.935 133.492 280.908 133.492 280.941 134.157V134.104Z" fill="#18191C"/>
<path d="M229.615 192.669C231.317 191.508 232.737 189.976 233.767 188.187C234.701 186.671 236.952 180.701 238.912 180.588C239.574 180.554 239.574 179.557 238.912 179.59C237.098 179.697 235.8 182.489 235.038 183.846C233.376 186.778 232.025 189.896 229.118 191.824C228.582 192.177 229.079 193.034 229.615 192.682V192.669Z" fill="#18191C"/>
<path d="M238.615 180.235C239.436 181.565 237.767 184.803 237.257 185.933C236.635 187.314 235.914 188.647 235.098 189.922C234.754 190.468 235.615 190.966 235.959 190.428C237.168 188.527 238.174 186.503 238.959 184.39C239.475 182.968 240.369 181.166 239.469 179.736C239.131 179.191 238.27 179.69 238.615 180.235Z" fill="#18191C"/>
<path d="M239.078 184.756C240.479 183.063 242.267 181.735 244.29 180.887L243.628 180.707C245.296 183.613 242.614 187.875 240.933 190.315C240.568 190.84 241.429 191.339 241.793 190.814C243.7 188.054 246.396 183.5 244.488 180.175C244.419 180.069 244.313 179.992 244.191 179.959C244.069 179.926 243.939 179.939 243.826 179.996C241.725 180.88 239.869 182.263 238.416 184.025C238.006 184.51 238.701 185.222 239.118 184.73L239.078 184.756Z" fill="#18191C"/>
<path d="M243.098 181.046C241.88 184.411 240.276 187.622 238.317 190.614C237.959 191.146 238.82 191.651 239.171 191.113C241.184 188.049 242.833 184.76 244.084 181.312C244.303 180.707 243.349 180.448 243.131 181.046H243.098Z" fill="#18191C"/>
<path d="M245.316 185.68C246.641 185.627 247.064 185.401 246.601 185.015C246.521 185.348 246.429 185.68 246.336 185.993C246.1 186.757 245.81 187.504 245.469 188.227C244.835 189.558 244.041 190.807 243.105 191.944C242.701 192.436 243.403 193.141 243.806 192.648C245.409 190.687 247.29 187.894 247.561 185.281C247.76 183.386 245.455 184.297 244.614 185.002C244.118 185.414 244.826 186.119 245.316 185.707V185.68Z" fill="#18191C"/>
<path d="M229.31 193.34C233.509 194.929 238.992 193.52 243.283 192.948C243.905 192.868 243.945 191.864 243.283 191.951C239.084 192.509 233.661 193.945 229.575 192.376C228.973 192.15 228.714 193.114 229.31 193.34Z" fill="#18191C"/>
<path d="M265.618 96.3113C266.592 99.0041 268.101 103.373 269.591 108.871C273.028 121.398 272.187 124.164 275.518 129.41C278.431 133.998 279.491 132.528 287.053 141.019C291.794 146.338 294.337 149.344 296.138 153.652C297.149 156.123 297.844 158.712 298.204 161.359L338.491 165.567C334.262 146.919 327.281 129.011 317.778 112.435C313.177 104.426 307.998 96.7659 302.283 89.516C297.251 88.1396 284.669 85.5266 272.406 91.7767C269.979 93.0247 267.702 94.546 265.618 96.3113Z" fill="#FF9348" fill-opacity="0.81"/>
<path d="M297.945 96.7897C298.748 95.4757 299.719 94.2731 300.833 93.2126C302.422 91.7032 304.64 89.6021 307.938 89.2564C311.772 88.8575 314.699 91.0849 315.725 91.8628C317.824 93.4652 318.877 95.2804 320.215 97.7339C324.85 106.285 326.274 109.908 326.274 109.908C329.207 117.395 330.677 121.145 332.895 128.299C334.822 134.516 337.1 142.615 339.233 152.289C338.684 153.952 337.757 155.464 336.524 156.704C335.023 158.126 333.175 159.126 331.167 159.603C313.818 164.257 291.251 163.652 291.251 163.652C288.801 163.586 285.291 163.473 280.987 163.253C279.626 163.647 278.197 163.747 276.795 163.546C274.411 163.187 273.57 162.103 271.087 161.032C268.741 160.041 266.217 159.543 263.671 159.57C259.737 159.669 256.599 161.278 255.89 160.175C255.738 159.906 255.671 159.598 255.698 159.29C255.762 158.96 255.9 158.649 256.1 158.379C256.301 158.11 256.56 157.89 256.857 157.735C257.065 157.377 257.302 157.036 257.565 156.717C257.869 156.344 258.208 156.001 258.579 155.693C258.666 155.238 258.797 154.793 258.969 154.364C259.31 153.554 259.787 152.809 260.38 152.163C261.658 150.866 263.889 151.012 266.551 151.219C268.595 151.383 270.614 151.778 272.571 152.395C272.683 151.132 272.994 150.401 273.511 150.201C274.672 149.758 276.861 151.974 280.08 156.85C283.789 156.518 287.47 155.913 291.092 155.042C295.144 154.058 299.117 152.771 302.978 151.192C307.309 149.417 308.547 148.472 312.434 147.269C314.862 146.519 317.347 145.968 319.864 145.62C317.824 140.427 316.043 136.099 314.705 132.907C309.083 119.516 304.461 109.902 303.21 107.315C301.071 102.927 299.237 99.2964 297.945 96.7897Z" fill="white"/>
<path opacity="0.21" d="M310.792 89.1167C312.845 91.3836 314.736 93.792 316.454 96.3242C326.181 110.666 327.367 124.795 328.141 135.666C329.002 147.714 327.188 150.354 326.155 151.531C323.837 154.157 321.639 153.792 309.11 155.773C301.416 156.996 287.815 159.423 280.915 159.45C278.673 159.447 276.434 159.318 274.207 159.064C272.531 158.851 271.604 158.599 270.803 158.526C266.84 158.164 262.844 158.515 259.003 159.563C262.809 158.886 266.723 159.202 270.373 160.481C272.542 161.251 274.576 162.362 276.398 163.772L281.517 163.027C289.947 163.479 297.085 163.466 302.515 163.32C316.202 162.961 321.387 161.744 323.705 161.125C328.063 159.985 332.291 158.392 336.319 156.371L339.021 151.95C338.736 150.653 338.286 148.625 337.697 146.212C334.888 134.204 331.187 122.425 326.625 110.972C321.328 97.8202 321.275 101.557 318.076 94.6221C317.515 93.312 316.666 92.1461 315.593 91.2111C314.212 90.088 312.552 89.3639 310.792 89.1167Z" fill="#474C54"/>
<path d="M297.515 97.0422C305.547 112.7 312.789 128.753 319.215 145.141C319.446 145.733 320.406 145.474 320.175 144.875C313.719 128.404 306.444 112.269 298.376 96.5302C298.078 95.9584 297.223 96.4571 297.515 97.0289V97.0422Z" fill="#18191C"/>
<path d="M322.705 146.218C321.043 144.716 318.964 145.188 316.937 145.666C312.964 146.611 309.276 148.326 305.521 149.888C297.289 153.249 288.606 155.366 279.756 156.172C279.127 156.232 279.094 157.229 279.756 157.169C286.888 156.539 293.921 155.061 300.707 152.768C304.078 151.611 307.329 150.161 310.64 148.838C313.289 147.761 319.533 144.676 322.023 146.923C322.5 147.355 323.202 146.65 322.725 146.218H322.705Z" fill="#18191C"/>
<path d="M315.711 92.4477C322.578 100.579 326.366 110.826 329.856 120.753C333.341 130.703 336.176 140.871 338.345 151.192C338.477 151.817 339.437 151.557 339.305 150.926C336.965 139.778 333.843 128.811 329.962 118.106C326.571 108.798 322.87 99.3893 316.413 91.7429C316.003 91.2575 315.301 91.9623 315.711 92.4477Z" fill="#18191C"/>
<path d="M281.729 163.872C293.297 164.264 304.938 164.65 316.46 163.207C323.797 162.282 335.789 161.391 339.411 153.599C339.676 153.02 338.822 152.508 338.55 153.094C336.471 157.568 331.703 159.111 327.26 160.221C322.095 161.472 316.838 162.308 311.54 162.721C301.607 163.552 291.675 163.22 281.742 162.881C281.08 162.881 281.08 163.858 281.742 163.878L281.729 163.872Z" fill="#18191C"/>
<path d="M280.848 162.774C276.212 164.503 272.643 160.434 268.392 159.363C264.419 158.366 259.87 159.363 255.883 159.676C255.221 159.729 255.221 160.726 255.883 160.673C261.677 160.214 266.77 159.343 272.153 162.083C275.08 163.565 277.835 164.955 281.113 163.738C281.708 163.512 281.45 162.548 280.848 162.774Z" fill="#18191C"/>
<path d="M280.239 155.893C279.251 153.764 277.656 151.977 275.656 150.76C274.994 150.354 274.014 149.729 273.193 150.042C273.048 150.092 272.915 150.171 272.801 150.274C272.687 150.377 272.595 150.502 272.53 150.642C272.465 150.781 272.429 150.933 272.424 151.086C272.418 151.24 272.443 151.394 272.498 151.538C272.71 152.136 273.67 151.877 273.458 151.272C273.326 150.899 274.564 151.272 274.623 151.325C274.926 151.479 275.22 151.649 275.504 151.837C276.094 152.222 276.642 152.668 277.14 153.167C278.067 154.094 278.822 155.179 279.371 156.371C279.649 156.95 280.504 156.445 280.232 155.873L280.239 155.893Z" fill="#18191C"/>
<path d="M278.821 155.999C276.54 153.636 273.649 151.958 270.471 151.152C267.293 150.347 263.955 150.446 260.83 151.438C260.221 151.631 260.485 152.595 261.095 152.402C264.053 151.447 267.219 151.343 270.233 152.104C273.247 152.864 275.988 154.458 278.146 156.704C278.596 157.163 279.298 156.458 278.848 155.999H278.821Z" fill="#18191C"/>
<path d="M255.857 159.955C257.261 157.668 261.651 157.96 263.976 157.648C264.605 157.575 264.638 156.577 263.976 156.651C261.194 156.99 256.691 156.69 255.003 159.45C254.665 160.002 255.526 160.5 255.857 159.955Z" fill="#18191C"/>
<path d="M257.155 157.854C259.42 155.82 262.519 155.747 265.399 155.727C265.531 155.727 265.657 155.674 265.75 155.581C265.843 155.487 265.896 155.36 265.896 155.228C265.896 155.096 265.843 154.969 265.75 154.875C265.657 154.782 265.531 154.729 265.399 154.729C262.227 154.729 258.93 154.922 256.453 157.149C255.976 157.582 256.678 158.28 257.155 157.854Z" fill="#18191C"/>
<path d="M258.975 155.707C259.597 153.619 264.094 153.845 265.749 153.931C266.411 153.964 266.411 152.967 265.749 152.934C263.524 152.814 258.843 152.688 258.015 155.441C257.829 156.059 258.79 156.318 258.975 155.707Z" fill="#18191C"/>
<path d="M259.863 153.712C260.054 153.233 260.418 152.843 260.882 152.623C261.346 152.402 261.877 152.366 262.367 152.522C262.976 152.721 263.241 151.757 262.631 151.564C261.889 151.339 261.089 151.409 260.397 151.759C259.704 152.11 259.172 152.713 258.91 153.446C258.685 154.051 259.645 154.31 259.863 153.712Z" fill="#18191C"/>
<path d="M302.488 92.275C304.475 91.0914 306.514 89.8348 308.852 89.6685C311.5 89.4757 313.447 90.8255 315.473 92.2949C315.99 92.6739 316.487 91.8095 315.97 91.4305C313.93 89.9544 311.831 88.5515 309.216 88.618C306.6 88.6845 304.19 90.0941 301.985 91.4106C301.442 91.743 301.938 92.6074 302.488 92.275Z" fill="#18191C"/>
<path d="M250.632 62.4216C250.088 66.0079 250.036 69.6524 250.48 73.2528C250.976 77.6401 252.378 81.8751 254.599 85.6864C257.209 90.0334 260.848 93.6651 265.194 96.2584C266.366 96.1343 267.528 95.9254 268.67 95.6334C271.118 95.0081 273.459 94.0198 275.616 92.7012C276.781 93.6883 278.044 94.5528 279.384 95.281C282.419 96.9045 285.781 97.814 289.218 97.9406C292.182 94.3743 294.52 90.327 296.131 85.9723C297.601 81.9829 301.673 70.919 296.449 60.9521C294.542 57.3085 292.138 55.2473 289.377 52.8802C283.847 48.1461 276.616 41.9493 267.525 43.6847C257.446 45.6062 251.924 55.9454 250.97 60.5399C250.897 60.7593 250.771 61.4841 250.632 62.4216Z" fill="white"/>
<path opacity="0.26" d="M267.167 49.0034C271.319 52.3762 274.41 56.8841 276.066 61.9825C277.722 67.0809 277.871 72.5517 276.497 77.7338C274.08 87.9799 267.161 94.0704 264.459 96.2114C266.353 95.7858 268.379 95.2473 270.518 94.5558C272.346 93.9707 274.047 93.339 275.604 92.7007C276.769 93.6865 278.032 94.5508 279.371 95.2805C281.215 96.2736 283.191 96.9968 285.238 97.4282C289.754 92.3495 293.168 86.383 295.264 79.908C297.191 73.884 298.926 68.4385 296.515 62.953C294.045 57.3346 288.609 54.8412 283.695 52.5939C278.501 50.2378 272.867 49.0141 267.167 49.0034Z" fill="#474C54"/>
<path d="M250.957 60.553C254.751 54.7049 260.152 50.086 266.505 47.2549C266.98 48.6791 267.578 50.0585 268.293 51.3773C272.75 59.549 280.696 63.1527 284.57 64.6155C286.132 62.6673 288.543 61.8495 290.476 62.5477C292.887 63.4187 293.509 66.2113 293.675 66.9693C294.028 68.6873 293.763 70.4757 292.926 72.0159C291.47 74.5691 288.384 76.0053 285.06 75.7526C284.086 76.4175 279.669 79.5891 278.636 85.4203C277.57 91.4044 280.722 97.076 285.06 100.108C287.761 101.933 290.956 102.878 294.211 102.814C297.466 102.75 300.622 101.679 303.25 99.7489C308.249 96.052 309.276 90.4403 309.488 89.1105C313.394 92.1092 318.275 92.5812 321.553 90.4403C325.367 87.9336 326.082 82.4615 325.003 78.7779C323.274 72.8403 317.546 73.4587 308.064 63.7511C304.594 60.2072 303.011 58.3388 301.204 55.4532C296.899 48.5582 297.343 44.1499 290.609 40.6458C277.498 33.8239 262.863 40.3998 261.175 41.1844C253.736 44.7346 247.655 50.6275 243.859 57.9665C245.343 62.3434 246.016 66.9564 245.845 71.577C245.448 80.6463 241.872 83.3258 241.918 91.6371C241.918 95.1145 241.978 103.173 247.626 108.113C253.421 113.173 264.4 114.337 270.637 107.934C276.12 102.302 274.783 94.064 274.61 93.0866L265.651 96.2914C262.297 94.4398 259.329 91.9565 256.91 88.9775C247.785 77.6276 250.414 63.2458 250.957 60.553Z" fill="#FF6800"/>
<path d="M250.46 60.553C248.798 74.1436 252.228 88.7382 264.214 96.6439C264.744 96.9963 265.247 96.1319 264.711 95.7795C253.03 88.0799 249.838 73.7646 251.467 60.5397C251.546 59.8748 250.553 59.9147 250.474 60.5397L250.46 60.553Z" fill="#18191C"/>
<path d="M265.181 96.7571C270.205 96.2083 274.922 94.0548 278.636 90.6134C279.106 90.1812 278.404 89.4764 277.928 89.9086C274.41 93.1754 269.943 95.2259 265.181 95.7597C264.552 95.8329 264.518 96.8302 265.181 96.7571Z" fill="#18191C"/>
<path d="M259.757 64.9611C259.88 70.6221 260.534 76.2587 261.711 81.7964C261.735 81.8801 261.781 81.9559 261.843 82.0167C261.905 82.0774 261.982 82.1209 262.066 82.143C262.15 82.1651 262.238 82.165 262.322 82.1427C262.406 82.1204 262.483 82.0767 262.545 82.0158C263.561 80.9141 264.489 79.7336 265.32 78.4852C265.677 77.9533 264.816 77.448 264.465 77.9799C263.67 79.1558 262.785 80.2674 261.817 81.3044L262.644 81.5238C261.486 76.0738 260.843 70.526 260.724 64.9545C260.724 64.2896 259.711 64.2896 259.731 64.9545L259.757 64.9611Z" fill="#18191C"/>
<path d="M262.519 85.8524C264.528 85.9384 266.533 85.606 268.407 84.8759C270.282 84.1458 271.986 83.034 273.412 81.6103C273.869 81.1582 273.167 80.4534 272.71 80.9056C271.381 82.2378 269.79 83.2772 268.039 83.9573C266.288 84.6373 264.414 84.9431 262.539 84.8551C261.876 84.8551 261.876 85.8258 262.539 85.8524H262.519Z" fill="#18191C"/>
<path d="M253.646 60.9784C253.879 60.6433 254.19 60.3707 254.552 60.1846C254.914 59.9985 255.316 59.9046 255.723 59.9112C256.13 59.9177 256.529 60.0246 256.885 60.2222C257.241 60.4199 257.543 60.7024 257.765 61.0449C258.122 61.5701 258.983 61.0449 258.626 60.5395C258.327 60.0657 257.92 59.671 257.437 59.3891C256.955 59.1072 256.412 58.9464 255.854 58.9203C255.296 58.8942 254.74 59.0036 254.234 59.2392C253.727 59.4748 253.285 59.8296 252.944 60.2736C252.56 60.7722 253.255 61.4837 253.646 60.9784Z" fill="#18191C"/>
<path d="M266.128 60.4199C266.962 59.6122 268.06 59.1355 269.218 59.078C270.376 59.0205 271.515 59.3863 272.425 60.1074C272.922 60.5064 273.63 59.8016 273.134 59.4026C272.033 58.4997 270.641 58.0329 269.221 58.0905C267.8 58.148 266.45 58.726 265.426 59.7151C264.969 60.1606 265.671 60.8654 266.128 60.4199Z" fill="#18191C"/>
<path d="M284.921 64.9345C286.292 63.6579 287.894 62.7004 289.808 62.9398C292.582 63.2922 293.238 65.7457 293.212 68.0595C293.165 72.1819 290.702 74.396 286.729 74.6686C286.067 74.7085 286.067 75.7059 286.729 75.666C292.059 75.3003 295.026 71.5436 294.086 66.1779C293.145 60.8121 287.464 61.1712 284.219 64.1832C283.749 64.622 284.458 65.3268 284.921 64.8946V64.9345Z" fill="#18191C"/>
<path d="M256.612 71.6568C257.091 71.6568 257.48 70.5315 257.48 69.1435C257.48 67.7554 257.091 66.6301 256.612 66.6301C256.133 66.6301 255.745 67.7554 255.745 69.1435C255.745 70.5315 256.133 71.6568 256.612 71.6568Z" fill="#18191C"/>
<path d="M268.696 71.2774C269.175 71.2774 269.564 70.1521 269.564 68.7641C269.564 67.376 269.175 66.2507 268.696 66.2507C268.217 66.2507 267.829 67.376 267.829 68.7641C267.829 70.1521 268.217 71.2774 268.696 71.2774Z" fill="#18191C"/>
<path d="M270.624 73.9907H270.532C270.4 73.9907 270.274 74.0433 270.181 74.1368C270.087 74.2303 270.035 74.3571 270.035 74.4894C270.035 74.6217 270.087 74.7485 270.181 74.842C270.274 74.9355 270.4 74.9881 270.532 74.9881H270.624C270.756 74.9881 270.882 74.9355 270.976 74.842C271.069 74.7485 271.121 74.6217 271.121 74.4894C271.121 74.3571 271.069 74.2303 270.976 74.1368C270.882 74.0433 270.756 73.9907 270.624 73.9907Z" fill="#18191C"/>
<path d="M274.869 72.5276C275 72.5276 275.127 72.4751 275.22 72.3816C275.313 72.288 275.365 72.1612 275.365 72.0289C275.365 71.8967 275.313 71.7699 275.22 71.6763C275.127 71.5828 275 71.5303 274.869 71.5303C274.737 71.5303 274.611 71.5828 274.518 71.6763C274.424 71.7699 274.372 71.8967 274.372 72.0289C274.372 72.1612 274.424 72.288 274.518 72.3816C274.611 72.4751 274.737 72.5276 274.869 72.5276Z" fill="#18191C"/>
<path d="M274.961 76.5835C275.093 76.5835 275.219 76.531 275.313 76.4375C275.406 76.344 275.458 76.2171 275.458 76.0849C275.458 75.9526 275.406 75.8258 275.313 75.7322C275.219 75.6387 275.093 75.5862 274.961 75.5862C274.83 75.5862 274.703 75.6387 274.61 75.7322C274.517 75.8258 274.465 75.9526 274.465 76.0849C274.465 76.2171 274.517 76.344 274.61 76.4375C274.703 76.531 274.83 76.5835 274.961 76.5835Z" fill="#18191C"/>
<path d="M275.253 93.0534C277.947 95.1798 280.954 96.8733 284.166 98.0734C284.762 98.2994 285.02 97.3353 284.424 97.1093C281.372 95.9712 278.514 94.3628 275.955 92.3419C275.458 91.9563 274.749 92.6544 275.253 93.0534Z" fill="#18191C"/>
</g>
<defs>
<clipPath id="clip0_216_3202">
<rect width="384" height="357.517" fill="white" transform="translate(0.5)"/>
</clipPath>
</defs>
</svg>
