<svg width="501" height="430" viewBox="0 0 501 430" fill="none" xmlns="http://www.w3.org/2000/svg">
<g clip-path="url(#clip0_255_1595)">
<path d="M500.5 341.917H0.5V342.167H500.5V341.917Z" fill="#EBEBEB"/>
<path d="M450.4 358.007H417.28V358.257H450.4V358.007Z" fill="#EBEBEB"/>
<path d="M331.72 360.727H323.03V360.977H331.72V360.727Z" fill="#EBEBEB"/>
<path d="M416.28 348.727H397.09V348.977H416.28V348.727Z" fill="#EBEBEB"/>
<path d="M96.15 350.407H52.96V350.657H96.15V350.407Z" fill="#EBEBEB"/>
<path d="M111.39 350.407H105.06V350.657H111.39V350.407Z" fill="#EBEBEB"/>
<path d="M225.65 354.627H131.97V354.877H225.65V354.627Z" fill="#EBEBEB"/>
<path d="M237.5 297.317H44.41C42.8973 297.315 41.4475 296.712 40.3788 295.641C39.3102 294.571 38.71 293.12 38.71 291.607V20.1772C38.7231 18.6732 39.3292 17.2352 40.3964 16.1754C41.4637 15.1157 42.9059 14.5198 44.41 14.5172H237.5C239.014 14.5172 240.467 15.1188 241.538 16.1896C242.608 17.2605 243.21 18.7128 243.21 20.2272V291.607C243.21 293.122 242.608 294.574 241.538 295.645C240.467 296.716 239.014 297.317 237.5 297.317ZM44.41 14.7172C42.9636 14.7199 41.5774 15.2963 40.5556 16.3199C39.5338 17.3436 38.96 18.7309 38.96 20.1772V291.607C38.96 293.054 39.5338 294.441 40.5556 295.464C41.5774 296.488 42.9636 297.065 44.41 297.067H237.5C238.947 297.065 240.334 296.488 241.358 295.465C242.381 294.442 242.957 293.054 242.96 291.607V20.1772C242.957 18.7299 242.381 17.3427 241.358 16.3193C240.334 15.296 238.947 14.7199 237.5 14.7172H44.41Z" fill="#EBEBEB"/>
<path d="M453.81 297.317H260.71C259.196 297.315 257.746 296.712 256.675 295.642C255.605 294.572 255.003 293.121 255 291.607V20.1772C255.016 18.6723 255.624 17.2343 256.693 16.1748C257.762 15.1153 259.205 14.5198 260.71 14.5172H453.81C455.312 14.5224 456.752 15.1195 457.817 16.1789C458.882 17.2384 459.487 18.675 459.5 20.1772V291.607C459.5 293.118 458.901 294.567 457.835 295.638C456.768 296.708 455.321 297.312 453.81 297.317ZM260.71 14.7172C259.263 14.7199 257.875 15.296 256.852 16.3193C255.829 17.3427 255.253 18.7299 255.25 20.1772V291.607C255.253 293.054 255.829 294.442 256.852 295.465C257.875 296.488 259.263 297.065 260.71 297.067H453.81C455.257 297.065 456.645 296.488 457.668 295.465C458.691 294.442 459.267 293.054 459.27 291.607V20.1772C459.267 18.7299 458.691 17.3427 457.668 16.3193C456.645 15.296 455.257 14.7199 453.81 14.7172H260.71Z" fill="#EBEBEB"/>
<path d="M237.5 140.627V158.187L246.5 159.037C247.707 164.824 249.998 170.331 253.25 175.267L247.44 182.267L259.86 194.687L266.86 188.877C271.793 192.126 277.297 194.413 283.08 195.617L283.93 204.617H301.6L302.45 195.617C308.236 194.413 313.743 192.126 318.68 188.877L325.68 194.687L338.1 182.267L332.29 175.267C335.539 170.33 337.826 164.824 339.03 159.037L348.08 158.187V140.627L339.03 139.767C337.834 133.976 335.554 128.462 332.31 123.517L338.12 116.517L325.7 104.107L318.7 109.917C313.77 106.672 308.275 104.383 302.5 103.167L301.65 94.1672H284.03L283.18 103.167C277.398 104.379 271.895 106.669 266.96 109.917L259.96 104.107L247.5 116.517L253.31 123.517C250.061 128.452 247.771 133.954 246.56 139.737L237.5 140.627ZM292.78 125.627C297.483 125.627 302.081 127.022 305.991 129.635C309.902 132.248 312.95 135.962 314.75 140.307C316.55 144.652 317.021 149.434 316.103 154.046C315.186 158.659 312.921 162.897 309.595 166.222C306.269 169.548 302.032 171.813 297.419 172.73C292.806 173.648 288.025 173.177 283.68 171.377C279.335 169.577 275.621 166.529 273.008 162.619C270.395 158.708 269 154.11 269 149.407C269 146.281 269.616 143.186 270.814 140.298C272.012 137.41 273.767 134.787 275.979 132.578C278.192 130.369 280.818 128.619 283.707 127.426C286.597 126.233 289.694 125.622 292.82 125.627H292.78Z" fill="#F0F0F0"/>
<path d="M207.86 219.227L212.86 223.407L221.79 214.477L217.61 209.477C219.967 205.923 221.627 201.952 222.5 197.777L229 197.167V184.517L222.5 183.907C221.634 179.749 219.989 175.793 217.65 172.247L221.83 167.247L212.9 158.317L207.9 162.497C204.353 160.163 200.397 158.517 196.24 157.647L195.63 151.147H182.97L182.36 157.647C178.202 158.523 174.246 160.176 170.7 162.517L165.7 158.337L156.77 167.267L160.95 172.267C158.611 175.813 156.966 179.769 156.1 183.927L149.6 184.537V197.157L156.1 197.767C156.966 201.925 158.611 205.882 160.95 209.427L156.77 214.427L165.7 223.357L170.7 219.177C174.248 221.512 178.203 223.157 182.36 224.027L182.97 230.527H195.59L196.2 224.027C200.353 223.173 204.309 221.544 207.86 219.227ZM172.2 190.857C172.2 187.477 173.203 184.172 175.081 181.361C176.959 178.551 179.629 176.36 182.752 175.067C185.876 173.774 189.312 173.436 192.628 174.096C195.943 174.757 198.988 176.385 201.378 178.776C203.768 181.167 205.395 184.213 206.053 187.529C206.711 190.845 206.371 194.282 205.076 197.404C203.781 200.527 201.589 203.195 198.778 205.072C195.966 206.949 192.661 207.949 189.28 207.947C187.036 207.947 184.814 207.505 182.742 206.646C180.669 205.787 178.785 204.528 177.199 202.941C175.613 201.354 174.355 199.47 173.497 197.397C172.64 195.323 172.199 193.101 172.2 190.857Z" fill="#F5F5F5"/>
<path d="M263.95 304.717C268.9 303.688 273.61 301.73 277.83 298.947L283.83 303.947L294.5 293.297L289.5 287.297C292.283 283.077 294.241 278.367 295.27 273.417L303.01 272.697V257.697L295.27 256.967C294.246 252.004 292.288 247.28 289.5 243.047L294.5 237.047L283.84 226.417L277.84 231.417C273.617 228.639 268.908 226.681 263.96 225.647L263.23 217.917H248.23L247.5 225.617C242.552 226.651 237.843 228.609 233.62 231.387L227.62 226.387L216.99 237.017L221.99 243.017C219.211 247.24 217.254 251.949 216.22 256.897L208.48 257.627V272.627L216.22 273.347C217.252 278.296 219.21 283.005 221.99 287.227L216.99 293.227L227.62 303.847L233.62 298.847C237.833 301.666 242.543 303.658 247.5 304.717L248.23 312.457H263.23L263.95 304.717ZM235.37 265.167C235.372 261.145 236.567 257.213 238.803 253.87C241.039 250.526 244.216 247.921 247.933 246.383C251.65 244.845 255.739 244.443 259.684 245.229C263.629 246.015 267.252 247.953 270.096 250.798C272.94 253.643 274.876 257.267 275.66 261.213C276.444 265.158 276.041 269.247 274.501 272.963C272.961 276.679 270.354 279.855 267.009 282.09C263.665 284.325 259.732 285.517 255.71 285.517C253.038 285.517 250.392 284.991 247.924 283.968C245.455 282.945 243.213 281.446 241.324 279.556C239.435 277.666 237.937 275.423 236.915 272.954C235.894 270.485 235.369 267.839 235.37 265.167Z" fill="#FAFAFA"/>
<path d="M141.963 122.886L95.9604 116.6L89.6752 162.603L135.678 168.888L141.963 122.886Z" fill="#F5F5F5"/>
<path d="M102.727 129.214L102.321 132.187L132.273 136.279L132.679 133.306L102.727 129.214Z" fill="#E0E0E0"/>
<path d="M101.448 138.545L101.042 141.518L130.994 145.61L131.4 142.638L101.448 138.545Z" fill="#E0E0E0"/>
<path d="M100.139 148.19L99.7324 151.162L117.369 153.572L117.775 150.599L100.139 148.19Z" fill="#E0E0E0"/>
<path d="M399.52 71.7834L353.09 71.9454L353.252 118.375L399.682 118.213L399.52 71.7834Z" fill="#F0F0F0"/>
<path d="M391.802 83.3222L361.572 83.433L361.583 86.433L391.813 86.3222L391.802 83.3222Z" fill="#E0E0E0"/>
<path d="M391.846 92.742L361.616 92.8528L361.627 95.8528L391.857 95.742L391.846 92.742Z" fill="#E0E0E0"/>
<path d="M379.442 102.527L361.642 102.593L361.653 105.593L379.453 105.527L379.442 102.527Z" fill="#E0E0E0"/>
<path d="M427.383 185.017L381.321 190.852L387.157 236.914L433.218 231.079L427.383 185.017Z" fill="#F5F5F5"/>
<path d="M421.147 197.461L391.156 201.26L391.533 204.236L421.524 200.437L421.147 197.461Z" fill="#E0E0E0"/>
<path d="M422.331 206.798L392.341 210.598L392.718 213.574L422.708 209.774L422.331 206.798Z" fill="#E0E0E0"/>
<path d="M411.221 218.018L393.562 220.255L393.94 223.231L411.598 220.994L411.221 218.018Z" fill="#E0E0E0"/>
<path d="M180.407 259.777L133.978 259.939L134.14 306.369L180.569 306.207L180.407 259.777Z" fill="#F0F0F0"/>
<path d="M172.742 271.354L142.512 271.465L142.523 274.465L172.753 274.354L172.742 271.354Z" fill="#E0E0E0"/>
<path d="M172.777 280.774L142.547 280.885L142.558 283.885L172.788 283.774L172.777 280.774Z" fill="#E0E0E0"/>
<path d="M160.382 290.559L142.583 290.624L142.594 293.624L160.393 293.559L160.382 290.559Z" fill="#E0E0E0"/>
<path d="M385.475 282.511L339.045 282.673L339.207 329.103L385.637 328.941L385.475 282.511Z" fill="#F0F0F0"/>
<path d="M377.804 294.052L347.574 294.163L347.585 297.163L377.815 297.052L377.804 294.052Z" fill="#E0E0E0"/>
<path d="M377.848 303.472L347.619 303.583L347.63 306.583L377.859 306.472L377.848 303.472Z" fill="#E0E0E0"/>
<path d="M365.444 313.257L347.645 313.323L347.656 316.322L365.455 316.257L365.444 313.257Z" fill="#E0E0E0"/>
<path d="M189.825 68.7506L144.5 78.8157L154.565 124.142L199.891 114.076L189.825 68.7506Z" fill="#F0F0F0"/>
<path d="M184.749 81.7425L155.238 88.2958L155.889 91.2244L185.4 84.6712L184.749 81.7425Z" fill="#E0E0E0"/>
<path d="M186.795 90.9415L157.284 97.4948L157.935 100.423L187.446 93.8701L186.795 90.9415Z" fill="#E0E0E0"/>
<path d="M176.769 103.138L159.393 106.997L160.043 109.925L177.42 106.067L176.769 103.138Z" fill="#E0E0E0"/>
<path d="M99.7398 121.617H98.9098L97.7598 116.317H100.88L99.7398 121.617Z" fill="#E0E0E0"/>
<path d="M99.3201 120.307C101.651 120.307 103.54 118.816 103.54 116.977C103.54 115.138 101.651 113.647 99.3201 113.647C96.9895 113.647 95.1001 115.138 95.1001 116.977C95.1001 118.816 96.9895 120.307 99.3201 120.307Z" fill="#E6E6E6"/>
<path d="M184.57 75.3473H183.74L182.6 70.0573H185.72L184.57 75.3473Z" fill="#E0E0E0"/>
<path d="M184.16 74.0472C186.496 74.0472 188.39 72.5563 188.39 70.7172C188.39 68.8781 186.496 67.3872 184.16 67.3872C181.824 67.3872 179.93 68.8781 179.93 70.7172C179.93 72.5563 181.824 74.0472 184.16 74.0472Z" fill="#E6E6E6"/>
<path d="M375.64 76.6772H374.81L373.66 71.3872H376.78L375.64 76.6772Z" fill="#E0E0E0"/>
<path d="M375.22 75.3772C377.551 75.3772 379.44 73.8863 379.44 72.0472C379.44 70.2081 377.551 68.7172 375.22 68.7172C372.889 68.7172 371 70.2081 371 72.0472C371 73.8863 372.889 75.3772 375.22 75.3772Z" fill="#E6E6E6"/>
<path d="M423.1 191.667H422.27L421.13 186.377H424.25L423.1 191.667Z" fill="#E0E0E0"/>
<path d="M422.69 190.367C425.021 190.367 426.91 188.876 426.91 187.037C426.91 185.198 425.021 183.707 422.69 183.707C420.36 183.707 418.47 185.198 418.47 187.037C418.47 188.876 420.36 190.367 422.69 190.367Z" fill="#E6E6E6"/>
<path d="M363.09 287.787H362.25L361.11 282.487H364.23L363.09 287.787Z" fill="#E0E0E0"/>
<path d="M362.67 286.477C365.001 286.477 366.89 284.986 366.89 283.147C366.89 281.308 365.001 279.817 362.67 279.817C360.34 279.817 358.45 281.308 358.45 283.147C358.45 284.986 360.34 286.477 362.67 286.477Z" fill="#E6E6E6"/>
<path d="M155.98 263.987H155.15L154.01 258.687H157.13L155.98 263.987Z" fill="#E0E0E0"/>
<path d="M155.57 262.677C157.901 262.677 159.79 261.186 159.79 259.347C159.79 257.508 157.901 256.017 155.57 256.017C153.239 256.017 151.35 257.508 151.35 259.347C151.35 261.186 153.239 262.677 155.57 262.677Z" fill="#E6E6E6"/>
<path d="M246.3 48.2272C168.55 83.2272 239.13 145.557 194.24 179.507C149.35 213.457 27.2402 174.207 73.8202 262.387C128.5 365.957 367.82 351.577 419.43 224.517C471.04 97.4572 324.05 13.2472 246.3 48.2272Z" fill="#FF6800"/>
<path opacity="0.9" d="M246.3 48.2272C168.55 83.2272 239.13 145.557 194.24 179.507C149.35 213.457 27.2402 174.207 73.8202 262.387C128.5 365.957 367.82 351.577 419.43 224.517C471.04 97.4572 324.05 13.2472 246.3 48.2272Z" fill="white"/>
<path d="M250.5 387.077C357.582 387.077 444.39 382.009 444.39 375.757C444.39 369.505 357.582 364.437 250.5 364.437C143.417 364.437 56.6099 369.505 56.6099 375.757C56.6099 382.009 143.417 387.077 250.5 387.077Z" fill="#F5F5F5"/>
<path d="M144.17 208.357C144.17 201.767 148.5 196.357 153.83 196.357C159.16 196.357 163.49 201.717 163.49 208.357C163.49 214.997 159.16 220.297 153.83 220.297C148.5 220.297 144.17 214.947 144.17 208.357ZM146.17 208.357C146.17 213.837 149.61 218.297 153.83 218.297C158.05 218.297 161.49 213.837 161.49 208.357C161.49 202.877 158.06 198.357 153.83 198.357C149.6 198.357 146.17 202.877 146.17 208.357Z" fill="#263238"/>
<path d="M125.16 208.357C125.16 201.767 129.49 196.357 134.82 196.357C140.15 196.357 144.48 201.717 144.48 208.357C144.48 214.997 140.15 220.297 134.82 220.297C129.49 220.297 125.16 214.947 125.16 208.357ZM127.16 208.357C127.16 213.837 130.59 218.297 134.82 218.297C139.05 218.297 142.48 213.837 142.48 208.357C142.48 202.877 139.04 198.357 134.82 198.357C130.6 198.357 127.16 202.877 127.16 208.357Z" fill="#263238"/>
<path d="M106.14 208.357C106.14 201.767 110.48 196.357 115.81 196.357C121.14 196.357 125.47 201.717 125.47 208.357C125.47 214.997 121.13 220.297 115.81 220.297C110.49 220.297 106.14 214.947 106.14 208.357ZM108.14 208.357C108.14 213.837 111.58 218.297 115.81 218.297C120.04 218.297 123.47 213.837 123.47 208.357C123.47 202.877 120.03 198.357 115.81 198.357C111.59 198.357 108.14 202.877 108.14 208.357Z" fill="#263238"/>
<path d="M87.1299 208.357C87.1299 201.767 91.4699 196.357 96.7999 196.357C102.13 196.357 106.46 201.717 106.46 208.357C106.46 214.997 102.12 220.297 96.7999 220.297C91.4799 220.297 87.1299 214.947 87.1299 208.357ZM89.1299 208.357C89.1299 213.837 92.5699 218.297 96.7999 218.297C101.03 218.297 104.46 213.837 104.46 208.357C104.46 202.877 101.02 198.357 96.7999 198.357C92.5799 198.357 89.1299 202.877 89.1299 208.357Z" fill="#263238"/>
<path d="M163.18 208.357C163.18 201.767 167.51 196.357 172.84 196.357C178.17 196.357 182.51 201.717 182.51 208.357C182.51 214.997 178.17 220.297 172.84 220.297C167.51 220.297 163.18 214.947 163.18 208.357ZM165.18 208.357C165.18 213.837 168.62 218.297 172.84 218.297C177.06 218.297 180.51 213.837 180.51 208.357C180.51 202.877 177.07 198.357 172.84 198.357C168.61 198.357 165.18 202.877 165.18 208.357Z" fill="#263238"/>
<path d="M74.5601 373.307H193.64L193.64 208.587L74.5601 208.587L74.5601 373.307Z" fill="#263238"/>
<path opacity="0.7" d="M74.5601 373.307H193.64L193.64 208.587L74.5601 208.587L74.5601 373.307Z" fill="white"/>
<path opacity="0.6" d="M85.2901 373.307H193.64L193.64 208.587H85.2901L85.2901 373.307Z" fill="white"/>
<path opacity="0.2" d="M78.1299 373.307L77.6299 219.367L77.1299 373.307H78.1299Z" fill="black"/>
<path opacity="0.2" d="M83.1099 373.307L82.6099 228.957L82.1099 373.307H83.1099Z" fill="black"/>
<path opacity="0.2" d="M79.6201 208.707L80.1201 324.437L80.6201 208.707H79.6201Z" fill="black"/>
<path d="M175.72 216.417C175.823 216.95 176.075 217.443 176.447 217.838C176.82 218.233 177.297 218.514 177.823 218.649C178.349 218.783 178.902 218.764 179.418 218.595C179.934 218.427 180.391 218.114 180.737 217.695C181.082 217.276 181.3 216.767 181.367 216.229C181.434 215.69 181.346 215.143 181.113 214.653C180.881 214.162 180.514 213.748 180.055 213.458C179.595 213.168 179.063 213.015 178.52 213.017C177.701 213.103 176.948 213.508 176.424 214.144C175.9 214.78 175.648 215.596 175.72 216.417Z" fill="#263238"/>
<path d="M178.7 217.427C178.843 217.426 178.983 217.394 179.113 217.333C179.242 217.273 179.357 217.186 179.45 217.077C181.465 214.621 182.548 211.533 182.51 208.357C182.51 201.767 178.17 196.357 172.84 196.357C168.92 196.357 165.41 199.257 163.91 203.727C163.868 203.852 163.851 203.984 163.86 204.115C163.869 204.246 163.903 204.375 163.962 204.493C164.02 204.61 164.101 204.716 164.201 204.802C164.3 204.889 164.415 204.955 164.54 204.997C164.665 205.039 164.796 205.056 164.928 205.047C165.059 205.038 165.187 205.004 165.305 204.945C165.423 204.887 165.529 204.805 165.615 204.706C165.702 204.607 165.768 204.492 165.81 204.367C167.03 200.717 169.81 198.367 172.81 198.367C177.04 198.367 180.48 202.837 180.48 208.367C180.522 211.063 179.612 213.687 177.91 215.777C177.782 215.922 177.7 216.101 177.672 216.292C177.644 216.483 177.672 216.678 177.752 216.853C177.832 217.029 177.962 217.177 178.125 217.281C178.287 217.385 178.477 217.439 178.67 217.437L178.7 217.427Z" fill="#263238"/>
<g opacity="0.4">
<path d="M178.7 217.427C178.843 217.426 178.983 217.394 179.113 217.333C179.242 217.273 179.357 217.186 179.45 217.077C181.465 214.621 182.548 211.533 182.51 208.357C182.51 201.767 178.17 196.357 172.84 196.357C168.92 196.357 165.41 199.257 163.91 203.727C163.868 203.852 163.851 203.984 163.86 204.115C163.869 204.246 163.903 204.375 163.962 204.493C164.02 204.61 164.101 204.716 164.201 204.802C164.3 204.889 164.415 204.955 164.54 204.997C164.665 205.039 164.796 205.056 164.928 205.047C165.059 205.038 165.187 205.004 165.305 204.945C165.423 204.887 165.529 204.805 165.615 204.706C165.702 204.607 165.768 204.492 165.81 204.367C167.03 200.717 169.81 198.367 172.81 198.367C177.04 198.367 180.48 202.837 180.48 208.367C180.522 211.063 179.612 213.687 177.91 215.777C177.782 215.922 177.7 216.101 177.672 216.292C177.644 216.483 177.672 216.678 177.752 216.853C177.832 217.029 177.962 217.177 178.125 217.281C178.287 217.385 178.477 217.439 178.67 217.437L178.7 217.427Z" fill="white"/>
</g>
<path d="M156.71 216.417C156.814 216.947 157.067 217.436 157.438 217.828C157.81 218.22 158.285 218.498 158.809 218.63C159.332 218.763 159.882 218.743 160.396 218.575C160.909 218.406 161.363 218.096 161.706 217.679C162.05 217.262 162.267 216.756 162.334 216.22C162.401 215.685 162.315 215.141 162.085 214.652C161.854 214.164 161.49 213.751 161.034 213.461C160.579 213.172 160.05 213.018 159.51 213.017C158.691 213.103 157.938 213.508 157.414 214.144C156.89 214.78 156.637 215.596 156.71 216.417Z" fill="#263238"/>
<path d="M159.68 217.427C159.825 217.427 159.967 217.396 160.098 217.335C160.23 217.275 160.346 217.187 160.44 217.077C162.452 214.62 163.532 211.532 163.49 208.357C163.49 201.767 159.16 196.357 153.83 196.357C149.9 196.357 146.4 199.257 144.9 203.727C144.815 203.979 144.834 204.254 144.952 204.493C145.07 204.731 145.278 204.912 145.53 204.997C145.782 205.082 146.057 205.063 146.296 204.945C146.534 204.827 146.715 204.619 146.8 204.367C148.02 200.717 150.8 198.367 153.8 198.367C158.03 198.367 161.46 202.837 161.46 208.367C161.506 211.061 160.6 213.686 158.9 215.777C158.773 215.921 158.691 216.099 158.662 216.289C158.634 216.479 158.661 216.674 158.74 216.849C158.819 217.024 158.947 217.173 159.109 217.277C159.27 217.381 159.458 217.437 159.65 217.437L159.68 217.427Z" fill="#263238"/>
<g opacity="0.4">
<path d="M159.68 217.427C159.825 217.427 159.967 217.396 160.098 217.335C160.23 217.275 160.346 217.187 160.44 217.077C162.452 214.62 163.532 211.532 163.49 208.357C163.49 201.767 159.16 196.357 153.83 196.357C149.9 196.357 146.4 199.257 144.9 203.727C144.815 203.979 144.834 204.254 144.952 204.493C145.07 204.731 145.278 204.912 145.53 204.997C145.782 205.082 146.057 205.063 146.296 204.945C146.534 204.827 146.715 204.619 146.8 204.367C148.02 200.717 150.8 198.367 153.8 198.367C158.03 198.367 161.46 202.837 161.46 208.367C161.506 211.061 160.6 213.686 158.9 215.777C158.773 215.921 158.691 216.099 158.662 216.289C158.634 216.479 158.661 216.674 158.74 216.849C158.819 217.024 158.947 217.173 159.109 217.277C159.27 217.381 159.458 217.437 159.65 217.437L159.68 217.427Z" fill="white"/>
</g>
<path d="M137.69 216.417C137.792 216.95 138.044 217.442 138.416 217.837C138.788 218.232 139.264 218.514 139.79 218.648C140.316 218.782 140.869 218.764 141.384 218.596C141.9 218.428 142.358 218.117 142.703 217.699C143.049 217.281 143.268 216.773 143.336 216.235C143.404 215.697 143.317 215.15 143.086 214.659C142.855 214.169 142.49 213.754 142.032 213.463C141.574 213.172 141.043 213.017 140.5 213.017C139.68 213.103 138.926 213.507 138.401 214.143C137.875 214.779 137.62 215.595 137.69 216.417Z" fill="#263238"/>
<path d="M140.67 217.427C140.815 217.427 140.957 217.396 141.089 217.335C141.22 217.275 141.336 217.187 141.43 217.077C143.424 214.613 144.486 211.526 144.43 208.357C144.43 201.767 140.1 196.357 134.77 196.357C130.84 196.357 127.34 199.257 125.84 203.727C125.798 203.852 125.781 203.984 125.789 204.115C125.798 204.247 125.833 204.375 125.891 204.493C125.95 204.611 126.031 204.716 126.13 204.803C126.23 204.889 126.345 204.955 126.47 204.997C126.595 205.039 126.727 205.057 126.858 205.048C126.99 205.039 127.118 205.005 127.236 204.946C127.354 204.887 127.459 204.806 127.546 204.707C127.632 204.607 127.698 204.492 127.74 204.367C128.96 200.717 131.74 198.367 134.74 198.367C138.96 198.367 142.4 202.837 142.4 208.367C142.448 211.063 141.537 213.689 139.83 215.777C139.703 215.922 139.62 216.101 139.592 216.292C139.564 216.483 139.592 216.678 139.672 216.853C139.753 217.029 139.882 217.177 140.045 217.281C140.208 217.385 140.397 217.439 140.59 217.437L140.67 217.427Z" fill="#263238"/>
<g opacity="0.4">
<path d="M140.67 217.427C140.815 217.427 140.957 217.396 141.089 217.335C141.22 217.275 141.336 217.187 141.43 217.077C143.424 214.613 144.486 211.526 144.43 208.357C144.43 201.767 140.1 196.357 134.77 196.357C130.84 196.357 127.34 199.257 125.84 203.727C125.798 203.852 125.781 203.984 125.789 204.115C125.798 204.247 125.833 204.375 125.891 204.493C125.95 204.611 126.031 204.716 126.13 204.803C126.23 204.889 126.345 204.955 126.47 204.997C126.595 205.039 126.727 205.057 126.858 205.048C126.99 205.039 127.118 205.005 127.236 204.946C127.354 204.887 127.459 204.806 127.546 204.707C127.632 204.607 127.698 204.492 127.74 204.367C128.96 200.717 131.74 198.367 134.74 198.367C138.96 198.367 142.4 202.837 142.4 208.367C142.448 211.063 141.537 213.689 139.83 215.777C139.703 215.922 139.62 216.101 139.592 216.292C139.564 216.483 139.592 216.678 139.672 216.853C139.753 217.029 139.882 217.177 140.045 217.281C140.208 217.385 140.397 217.439 140.59 217.437L140.67 217.427Z" fill="white"/>
</g>
<path d="M118.68 216.417C118.783 216.95 119.035 217.442 119.406 217.837C119.778 218.232 120.255 218.514 120.78 218.648C121.306 218.782 121.859 218.764 122.375 218.596C122.89 218.428 123.348 218.117 123.693 217.699C124.039 217.281 124.259 216.773 124.326 216.235C124.394 215.697 124.308 215.15 124.077 214.659C123.846 214.169 123.48 213.754 123.022 213.463C122.564 213.172 122.033 213.017 121.49 213.017C120.67 213.103 119.916 213.507 119.391 214.143C118.865 214.779 118.61 215.595 118.68 216.417Z" fill="#263238"/>
<path d="M121.66 217.427C121.805 217.427 121.947 217.396 122.078 217.335C122.21 217.275 122.326 217.187 122.42 217.077C124.414 214.613 125.476 211.526 125.42 208.357C125.42 201.767 121.08 196.357 115.76 196.357C111.83 196.357 108.33 199.257 106.83 203.727C106.777 203.854 106.751 203.99 106.754 204.127C106.756 204.264 106.786 204.399 106.842 204.523C106.899 204.648 106.98 204.76 107.082 204.852C107.184 204.944 107.303 205.014 107.433 205.058C107.562 205.102 107.7 205.119 107.836 205.108C107.973 205.096 108.106 205.057 108.226 204.992C108.347 204.927 108.453 204.838 108.538 204.731C108.623 204.623 108.685 204.5 108.72 204.367C109.94 200.717 112.72 198.367 115.72 198.367C119.94 198.367 123.38 202.837 123.38 208.367C123.422 211.063 122.512 213.687 120.81 215.777C120.683 215.922 120.6 216.101 120.572 216.292C120.544 216.483 120.572 216.678 120.652 216.853C120.732 217.029 120.862 217.177 121.025 217.281C121.188 217.385 121.377 217.439 121.57 217.437L121.66 217.427Z" fill="#263238"/>
<g opacity="0.4">
<path d="M121.66 217.427C121.805 217.427 121.947 217.396 122.078 217.335C122.21 217.275 122.326 217.187 122.42 217.077C124.414 214.613 125.476 211.526 125.42 208.357C125.42 201.767 121.08 196.357 115.76 196.357C111.83 196.357 108.33 199.257 106.83 203.727C106.777 203.854 106.751 203.99 106.754 204.127C106.756 204.264 106.786 204.399 106.842 204.523C106.899 204.648 106.98 204.76 107.082 204.852C107.184 204.944 107.303 205.014 107.433 205.058C107.562 205.102 107.7 205.119 107.836 205.108C107.973 205.096 108.106 205.057 108.226 204.992C108.347 204.927 108.453 204.838 108.538 204.731C108.623 204.623 108.685 204.5 108.72 204.367C109.94 200.717 112.72 198.367 115.72 198.367C119.94 198.367 123.38 202.837 123.38 208.367C123.422 211.063 122.512 213.687 120.81 215.777C120.683 215.922 120.6 216.101 120.572 216.292C120.544 216.483 120.572 216.678 120.652 216.853C120.732 217.029 120.862 217.177 121.025 217.281C121.188 217.385 121.377 217.439 121.57 217.437L121.66 217.427Z" fill="white"/>
</g>
<path d="M99.6699 216.417C99.6699 218.297 100.93 219.817 102.47 219.817C103.262 219.668 103.978 219.246 104.492 218.625C105.007 218.004 105.288 217.223 105.288 216.417C105.288 215.611 105.007 214.83 104.492 214.209C103.978 213.588 103.262 213.167 102.47 213.017C100.93 213.017 99.6699 214.517 99.6699 216.417Z" fill="#263238"/>
<path d="M102.65 217.427C102.794 217.427 102.937 217.396 103.068 217.335C103.199 217.275 103.316 217.187 103.41 217.077C105.4 214.611 106.462 211.525 106.41 208.357C106.41 201.767 102.07 196.357 96.7499 196.357C92.8199 196.357 89.3099 199.257 87.8199 203.727C87.7672 203.854 87.7412 203.99 87.7433 204.127C87.7454 204.264 87.7756 204.399 87.8322 204.523C87.8887 204.648 87.9702 204.76 88.0717 204.852C88.1733 204.944 88.2926 205.014 88.4224 205.058C88.5522 205.102 88.6896 205.119 88.8262 205.108C88.9627 205.096 89.0955 205.057 89.2162 204.992C89.3369 204.927 89.443 204.838 89.528 204.731C89.6129 204.623 89.6748 204.5 89.7099 204.367C90.9299 200.717 93.7099 198.367 96.7099 198.367C100.93 198.367 104.37 202.837 104.37 208.367C104.412 211.063 103.502 213.687 101.8 215.777C101.712 215.876 101.645 215.992 101.603 216.118C101.561 216.243 101.544 216.376 101.553 216.508C101.562 216.64 101.598 216.769 101.657 216.887C101.717 217.006 101.799 217.111 101.9 217.197C102.003 217.284 102.122 217.349 102.251 217.389C102.38 217.428 102.516 217.441 102.65 217.427Z" fill="#263238"/>
<g opacity="0.4">
<path d="M102.65 217.427C102.794 217.427 102.937 217.396 103.068 217.335C103.199 217.275 103.316 217.187 103.41 217.077C105.4 214.611 106.462 211.525 106.41 208.357C106.41 201.767 102.07 196.357 96.7499 196.357C92.8199 196.357 89.3099 199.257 87.8199 203.727C87.7672 203.854 87.7412 203.99 87.7433 204.127C87.7454 204.264 87.7756 204.399 87.8322 204.523C87.8887 204.648 87.9702 204.76 88.0717 204.852C88.1733 204.944 88.2926 205.014 88.4224 205.058C88.5522 205.102 88.6896 205.119 88.8262 205.108C88.9627 205.096 89.0955 205.057 89.2162 204.992C89.3369 204.927 89.443 204.838 89.528 204.731C89.6129 204.623 89.6748 204.5 89.7099 204.367C90.9299 200.717 93.7099 198.367 96.7099 198.367C100.93 198.367 104.37 202.837 104.37 208.367C104.412 211.063 103.502 213.687 101.8 215.777C101.712 215.876 101.645 215.992 101.603 216.118C101.561 216.243 101.544 216.376 101.553 216.508C101.562 216.64 101.598 216.769 101.657 216.887C101.717 217.006 101.799 217.111 101.9 217.197C102.003 217.284 102.122 217.349 102.251 217.389C102.38 217.428 102.516 217.441 102.65 217.427Z" fill="white"/>
</g>
<path d="M116.58 284.367H108.2V298.657H116.58V284.367Z" fill="#FF6800"/>
<path d="M130.15 273.967H121.77V298.657H130.15V273.967Z" fill="#FF6800"/>
<path d="M143.73 277.867H135.35V298.657H143.73V277.867Z" fill="#FF6800"/>
<path d="M157.31 267.467H148.93V298.657H157.31V267.467Z" fill="#FF6800"/>
<path d="M170.88 257.067H162.5V298.657H170.88V257.067Z" fill="#FF6800"/>
<path opacity="0.5" d="M116.58 284.367H108.2V298.657H116.58V284.367Z" fill="white"/>
<path opacity="0.5" d="M130.15 273.967H121.77V298.657H130.15V273.967Z" fill="white"/>
<path opacity="0.5" d="M143.73 277.867H135.35V298.657H143.73V277.867Z" fill="white"/>
<path opacity="0.5" d="M157.31 267.467H148.93V298.657H157.31V267.467Z" fill="white"/>
<path opacity="0.5" d="M170.88 257.067H162.5V298.657H170.88V257.067Z" fill="white"/>
<path d="M182.06 296.677H96.6899V300.637H182.06V296.677Z" fill="#263238"/>
<path d="M100.29 287.307L98.4502 284.987L125.83 263.197L139.38 271.057L175.96 239.877L177.88 242.127L139.71 274.677L126.1 266.777L100.29 287.307Z" fill="#FF6800"/>
<path d="M179.1 239.167L173.54 240.027L177.46 244.207L179.1 239.167Z" fill="#FF6800"/>
<g opacity="0.3">
<path d="M145.1 313.517H96.79C96.5248 313.517 96.2705 313.412 96.0829 313.224C95.8954 313.037 95.79 312.782 95.79 312.517C95.79 312.252 95.8954 311.998 96.0829 311.81C96.2705 311.622 96.5248 311.517 96.79 311.517H145.1C145.365 311.517 145.62 311.622 145.807 311.81C145.995 311.998 146.1 312.252 146.1 312.517C146.1 312.782 145.995 313.037 145.807 313.224C145.62 313.412 145.365 313.517 145.1 313.517Z" fill="black"/>
</g>
<g opacity="0.3">
<path d="M182.42 322.427H103.69C103.425 322.427 103.17 322.322 102.983 322.134C102.795 321.947 102.69 321.692 102.69 321.427C102.69 321.162 102.795 320.907 102.983 320.72C103.17 320.532 103.425 320.427 103.69 320.427H182.42C182.685 320.427 182.94 320.532 183.127 320.72C183.315 320.907 183.42 321.162 183.42 321.427C183.42 321.692 183.315 321.947 183.127 322.134C182.94 322.322 182.685 322.427 182.42 322.427Z" fill="black"/>
<path d="M182.5 327.437H96.79C96.5248 327.437 96.2705 327.332 96.0829 327.144C95.8954 326.957 95.79 326.702 95.79 326.437C95.79 326.172 95.8954 325.918 96.0829 325.73C96.2705 325.543 96.5248 325.437 96.79 325.437H182.5C182.765 325.437 183.02 325.543 183.207 325.73C183.395 325.918 183.5 326.172 183.5 326.437C183.5 326.702 183.395 326.957 183.207 327.144C183.02 327.332 182.765 327.437 182.5 327.437Z" fill="black"/>
<path d="M182.64 332.447H96.8999C96.6347 332.447 96.3803 332.342 96.1928 332.154C96.0053 331.967 95.8999 331.712 95.8999 331.447C95.8999 331.182 96.0053 330.927 96.1928 330.74C96.3803 330.552 96.6347 330.447 96.8999 330.447H182.64C182.905 330.447 183.159 330.552 183.347 330.74C183.535 330.927 183.64 331.182 183.64 331.447C183.64 331.712 183.535 331.967 183.347 332.154C183.159 332.342 182.905 332.447 182.64 332.447Z" fill="black"/>
<path d="M168.74 337.457H97.0103C96.745 337.457 96.4907 337.352 96.3031 337.164C96.1156 336.977 96.0103 336.722 96.0103 336.457C96.0103 336.192 96.1156 335.937 96.3031 335.75C96.4907 335.562 96.745 335.457 97.0103 335.457H168.74C169.005 335.457 169.26 335.562 169.447 335.75C169.635 335.937 169.74 336.192 169.74 336.457C169.74 336.722 169.635 336.977 169.447 337.164C169.26 337.352 169.005 337.457 168.74 337.457Z" fill="black"/>
</g>
<g opacity="0.3">
<path d="M182.42 346.447H103.69C103.425 346.447 103.17 346.342 102.983 346.154C102.795 345.967 102.69 345.712 102.69 345.447C102.69 345.182 102.795 344.927 102.983 344.74C103.17 344.552 103.425 344.447 103.69 344.447H182.42C182.685 344.447 182.94 344.552 183.127 344.74C183.315 344.927 183.42 345.182 183.42 345.447C183.42 345.712 183.315 345.967 183.127 346.154C182.94 346.342 182.685 346.447 182.42 346.447Z" fill="black"/>
<path d="M182.5 351.457H96.79C96.5248 351.457 96.2705 351.351 96.0829 351.164C95.8954 350.976 95.79 350.722 95.79 350.457C95.79 350.192 95.8954 349.937 96.0829 349.75C96.2705 349.562 96.5248 349.457 96.79 349.457H182.5C182.765 349.457 183.02 349.562 183.207 349.75C183.395 349.937 183.5 350.192 183.5 350.457C183.5 350.722 183.395 350.976 183.207 351.164C183.02 351.351 182.765 351.457 182.5 351.457Z" fill="black"/>
<path d="M182.64 356.517H96.8999C96.6347 356.517 96.3803 356.412 96.1928 356.224C96.0053 356.037 95.8999 355.782 95.8999 355.517C95.8999 355.252 96.0053 354.998 96.1928 354.81C96.3803 354.622 96.6347 354.517 96.8999 354.517H182.64C182.905 354.517 183.159 354.622 183.347 354.81C183.535 354.998 183.64 355.252 183.64 355.517C183.64 355.782 183.535 356.037 183.347 356.224C183.159 356.412 182.905 356.517 182.64 356.517Z" fill="black"/>
<path d="M168.74 361.517H97.0103C96.745 361.517 96.4907 361.412 96.3031 361.224C96.1156 361.037 96.0103 360.782 96.0103 360.517C96.0103 360.252 96.1156 359.998 96.3031 359.81C96.4907 359.622 96.745 359.517 97.0103 359.517H168.74C169.005 359.517 169.26 359.622 169.447 359.81C169.635 359.998 169.74 360.252 169.74 360.517C169.74 360.782 169.635 361.037 169.447 361.224C169.26 361.412 169.005 361.517 168.74 361.517Z" fill="black"/>
</g>
<g opacity="0.3">
<path d="M145.1 230.437H96.79C96.5248 230.437 96.2705 230.332 96.0829 230.144C95.8954 229.957 95.79 229.702 95.79 229.437C95.79 229.172 95.8954 228.917 96.0829 228.73C96.2705 228.542 96.5248 228.437 96.79 228.437H145.1C145.365 228.437 145.62 228.542 145.807 228.73C145.995 228.917 146.1 229.172 146.1 229.437C146.1 229.702 145.995 229.957 145.807 230.144C145.62 230.332 145.365 230.437 145.1 230.437Z" fill="black"/>
</g>
<path d="M410.94 130.757H296.11C294.199 130.757 292.65 132.306 292.65 134.217V323.917C292.65 325.828 294.199 327.377 296.11 327.377H410.94C412.851 327.377 414.4 325.828 414.4 323.917V134.217C414.4 132.306 412.851 130.757 410.94 130.757Z" fill="#FF6800"/>
<path d="M321.34 129.817H385.72C385.89 129.817 386.052 129.885 386.172 130.005C386.293 130.125 386.36 130.287 386.36 130.457V136.897H320.69V130.457C320.69 130.372 320.707 130.288 320.74 130.21C320.772 130.132 320.82 130.061 320.881 130.001C320.941 129.941 321.013 129.894 321.092 129.863C321.171 129.831 321.255 129.816 321.34 129.817Z" fill="#263238"/>
<path opacity="0.9" d="M409.59 136.897H297.47V321.207H409.59V136.897Z" fill="white"/>
<path d="M375.5 145.377H355.79L355.56 144.687C355.421 144.26 355.15 143.888 354.786 143.624C354.422 143.36 353.985 143.218 353.535 143.218C353.086 143.218 352.648 143.36 352.284 143.624C351.92 143.888 351.65 144.26 351.51 144.687L351.28 145.377H331.55C330.785 145.377 330.052 145.074 329.51 144.534C328.968 143.994 328.663 143.262 328.66 142.497V135.237C328.665 134.473 328.972 133.742 329.513 133.203C330.054 132.664 330.786 132.36 331.55 132.357H375.55C376.313 132.36 377.044 132.664 377.584 133.204C378.123 133.743 378.428 134.474 378.43 135.237V142.517C378.428 142.898 378.349 143.274 378.2 143.625C378.051 143.975 377.834 144.292 377.562 144.558C377.289 144.824 376.967 145.034 376.613 145.174C376.259 145.315 375.881 145.384 375.5 145.377ZM357.16 143.377H375.5C375.616 143.378 375.731 143.357 375.839 143.313C375.946 143.269 376.043 143.204 376.125 143.122C376.207 143.04 376.272 142.943 376.316 142.835C376.36 142.728 376.381 142.613 376.38 142.497V135.237C376.38 135.004 376.287 134.78 376.122 134.615C375.957 134.45 375.734 134.357 375.5 134.357H331.5C331.384 134.356 331.268 134.378 331.16 134.421C331.052 134.465 330.954 134.529 330.871 134.611C330.789 134.693 330.723 134.791 330.678 134.898C330.633 135.005 330.61 135.121 330.61 135.237V142.517C330.61 142.633 330.633 142.749 330.678 142.856C330.723 142.964 330.789 143.061 330.871 143.143C330.954 143.225 331.052 143.289 331.16 143.333C331.268 143.377 331.384 143.398 331.5 143.397H349.9C350.254 142.741 350.779 142.193 351.419 141.811C352.059 141.429 352.79 141.228 353.535 141.228C354.28 141.228 355.012 141.429 355.652 141.811C356.292 142.193 356.816 142.741 357.17 143.397L357.16 143.377Z" fill="#263238"/>
<g opacity="0.5">
<path d="M375.5 145.377H355.79L355.56 144.687C355.421 144.26 355.15 143.888 354.786 143.624C354.422 143.36 353.985 143.218 353.535 143.218C353.086 143.218 352.648 143.36 352.284 143.624C351.92 143.888 351.65 144.26 351.51 144.687L351.28 145.377H331.55C330.785 145.377 330.052 145.074 329.51 144.534C328.968 143.994 328.663 143.262 328.66 142.497V135.237C328.665 134.473 328.972 133.742 329.513 133.203C330.054 132.664 330.786 132.36 331.55 132.357H375.55C376.313 132.36 377.044 132.664 377.584 133.204C378.123 133.743 378.428 134.474 378.43 135.237V142.517C378.428 142.898 378.349 143.274 378.2 143.625C378.051 143.975 377.834 144.292 377.562 144.558C377.289 144.824 376.967 145.034 376.613 145.174C376.259 145.315 375.881 145.384 375.5 145.377ZM357.16 143.377H375.5C375.616 143.378 375.731 143.357 375.839 143.313C375.946 143.269 376.043 143.204 376.125 143.122C376.207 143.04 376.272 142.943 376.316 142.835C376.36 142.728 376.381 142.613 376.38 142.497V135.237C376.38 135.004 376.287 134.78 376.122 134.615C375.957 134.45 375.734 134.357 375.5 134.357H331.5C331.384 134.356 331.268 134.378 331.16 134.421C331.052 134.465 330.954 134.529 330.871 134.611C330.789 134.693 330.723 134.791 330.678 134.898C330.633 135.005 330.61 135.121 330.61 135.237V142.517C330.61 142.633 330.633 142.749 330.678 142.856C330.723 142.964 330.789 143.061 330.871 143.143C330.954 143.225 331.052 143.289 331.16 143.333C331.268 143.377 331.384 143.398 331.5 143.397H349.9C350.254 142.741 350.779 142.193 351.419 141.811C352.059 141.429 352.79 141.228 353.535 141.228C354.28 141.228 355.012 141.429 355.652 141.811C356.292 142.193 356.816 142.741 357.17 143.397L357.16 143.377Z" fill="white"/>
</g>
<path d="M372.42 131.197H334.64C334.093 131.197 333.65 131.64 333.65 132.187V134.557C333.65 135.104 334.093 135.547 334.64 135.547H372.42C372.967 135.547 373.41 135.104 373.41 134.557V132.187C373.41 131.64 372.967 131.197 372.42 131.197Z" fill="#263238"/>
<path opacity="0.2" d="M372.42 131.197H334.64C334.093 131.197 333.65 131.64 333.65 132.187V134.557C333.65 135.104 334.093 135.547 334.64 135.547H372.42C372.967 135.547 373.41 135.104 373.41 134.557V132.187C373.41 131.64 372.967 131.197 372.42 131.197Z" fill="white"/>
<path d="M400.821 291.304C403.521 279.865 396.437 268.404 384.999 265.704C373.56 263.005 362.099 270.089 359.399 281.527C356.7 292.965 363.784 304.427 375.222 307.126C386.661 309.826 398.122 302.742 400.821 291.304Z" fill="#FF6800"/>
<path opacity="0.3" d="M380.12 286.437H401.4C401.4 290.646 400.152 294.76 397.814 298.259C395.475 301.759 392.152 304.486 388.263 306.097C384.375 307.708 380.096 308.129 375.968 307.308C371.84 306.487 368.049 304.46 365.073 301.484C362.097 298.508 360.07 294.716 359.249 290.588C358.428 286.46 358.849 282.182 360.46 278.293C362.07 274.405 364.798 271.081 368.297 268.743C371.797 266.405 375.911 265.157 380.12 265.157H380.2L380.12 286.437Z" fill="white"/>
<path opacity="0.3" d="M380.12 286.437L391.6 304.347C388.817 306.133 385.656 307.245 382.368 307.596C379.08 307.948 375.755 307.528 372.658 306.37C369.56 305.212 366.775 303.349 364.523 300.927C362.272 298.506 360.615 295.592 359.686 292.419C358.756 289.246 358.579 285.899 359.168 282.645C359.757 279.392 361.097 276.32 363.08 273.674C365.063 271.028 367.636 268.881 370.594 267.402C373.551 265.924 376.813 265.155 380.12 265.157H380.19L380.12 286.437Z" fill="white"/>
<path opacity="0.3" d="M380.12 286.437L362.18 297.877C360.129 294.66 358.981 290.952 358.855 287.14C358.729 283.327 359.63 279.551 361.464 276.206C363.298 272.861 365.997 270.071 369.279 268.127C372.561 266.183 376.305 265.157 380.12 265.157H380.19L380.12 286.437Z" fill="white"/>
<g opacity="0.5">
<path d="M305.55 169.907V220.127H401.55V169.907H305.55ZM400.76 177.747H384.15V170.657H400.76V177.747ZM347.71 177.747H330.61V170.657H347.71V177.747ZM348.46 170.657H365.55V177.747H348.5L348.46 170.657ZM347.71 178.497V219.377H330.61V178.517L347.71 178.497ZM348.46 178.497H365.55V219.377H348.5L348.46 178.497ZM366.3 178.497H383.4V219.377H366.3V178.497ZM366.3 177.747V170.657H383.4V177.747H366.3ZM329.86 170.657V177.747H306.3V170.657H329.86ZM306.3 178.517H329.86V219.397H306.3V178.517ZM384.15 219.397V178.517H400.76V219.397H384.15Z" fill="black"/>
<path d="M336.06 185.517H342.98C343.245 185.517 343.499 185.412 343.687 185.224C343.874 185.037 343.98 184.782 343.98 184.517C343.98 184.252 343.874 183.998 343.687 183.81C343.499 183.622 343.245 183.517 342.98 183.517H336.06C335.794 183.517 335.54 183.622 335.352 183.81C335.165 183.998 335.06 184.252 335.06 184.517C335.06 184.782 335.165 185.037 335.352 185.224C335.54 185.412 335.794 185.517 336.06 185.517Z" fill="black"/>
<path d="M353.5 194.587H361.01C361.275 194.587 361.53 194.482 361.717 194.294C361.905 194.107 362.01 193.852 362.01 193.587C362.01 193.322 361.905 193.068 361.717 192.88C361.53 192.693 361.275 192.587 361.01 192.587H353.5C353.235 192.587 352.98 192.693 352.793 192.88C352.605 193.068 352.5 193.322 352.5 193.587C352.5 193.852 352.605 194.107 352.793 194.294C352.98 194.482 353.235 194.587 353.5 194.587Z" fill="black"/>
<path d="M361.37 210.737H353.5C353.235 210.737 352.98 210.842 352.793 211.03C352.605 211.217 352.5 211.472 352.5 211.737C352.5 212.002 352.605 212.257 352.793 212.444C352.98 212.632 353.235 212.737 353.5 212.737H361.34C361.605 212.737 361.86 212.632 362.047 212.444C362.235 212.257 362.34 212.002 362.34 211.737C362.34 211.472 362.235 211.217 362.047 211.03C361.86 210.842 361.605 210.737 361.34 210.737H361.37Z" fill="black"/>
<path d="M378.77 201.657H370.5C370.235 201.657 369.98 201.762 369.793 201.95C369.605 202.138 369.5 202.392 369.5 202.657C369.5 202.922 369.605 203.177 369.793 203.364C369.98 203.552 370.235 203.657 370.5 203.657H378.79C379.055 203.657 379.31 203.552 379.497 203.364C379.685 203.177 379.79 202.922 379.79 202.657C379.79 202.392 379.685 202.138 379.497 201.95C379.31 201.762 379.055 201.657 378.79 201.657H378.77Z" fill="black"/>
<path d="M396.66 183.517H388.26C387.995 183.517 387.74 183.622 387.553 183.81C387.365 183.998 387.26 184.252 387.26 184.517C387.26 184.782 387.365 185.037 387.553 185.224C387.74 185.412 387.995 185.517 388.26 185.517H396.66C396.925 185.517 397.179 185.412 397.367 185.224C397.554 185.037 397.66 184.782 397.66 184.517C397.66 184.252 397.554 183.998 397.367 183.81C397.179 183.622 396.925 183.517 396.66 183.517Z" fill="black"/>
<path d="M395.58 210.737H388.26C387.995 210.737 387.74 210.842 387.553 211.03C387.365 211.217 387.26 211.472 387.26 211.737C387.26 212.002 387.365 212.257 387.553 212.444C387.74 212.632 387.995 212.737 388.26 212.737H395.58C395.845 212.737 396.099 212.632 396.287 212.444C396.474 212.257 396.58 212.002 396.58 211.737C396.58 211.472 396.474 211.217 396.287 211.03C396.099 210.842 395.845 210.737 395.58 210.737Z" fill="black"/>
<path d="M336.06 203.657H341.99C342.255 203.657 342.509 203.552 342.697 203.364C342.884 203.177 342.99 202.922 342.99 202.657C342.99 202.392 342.884 202.138 342.697 201.95C342.509 201.762 342.255 201.657 341.99 201.657H336.06C335.794 201.657 335.54 201.762 335.352 201.95C335.165 202.138 335.06 202.392 335.06 202.657C335.06 202.922 335.165 203.177 335.352 203.364C335.54 203.552 335.794 203.657 336.06 203.657Z" fill="black"/>
<path d="M342.98 210.737H336.06C335.794 210.737 335.54 210.842 335.352 211.03C335.165 211.217 335.06 211.472 335.06 211.737C335.06 212.002 335.165 212.257 335.352 212.444C335.54 212.632 335.794 212.737 336.06 212.737H342.98C343.245 212.737 343.499 212.632 343.687 212.444C343.874 212.257 343.98 212.002 343.98 211.737C343.98 211.472 343.874 211.217 343.687 211.03C343.499 210.842 343.245 210.737 342.98 210.737Z" fill="black"/>
<path d="M309.91 185.517H325.73C325.995 185.517 326.249 185.412 326.437 185.224C326.624 185.037 326.73 184.782 326.73 184.517C326.73 184.252 326.624 183.998 326.437 183.81C326.249 183.622 325.995 183.517 325.73 183.517H309.91C309.644 183.517 309.39 183.622 309.203 183.81C309.015 183.998 308.91 184.252 308.91 184.517C308.91 184.782 309.015 185.037 309.203 185.224C309.39 185.412 309.644 185.517 309.91 185.517Z" fill="black"/>
<path d="M309.91 194.587H320.44C320.705 194.587 320.959 194.482 321.147 194.294C321.334 194.107 321.44 193.852 321.44 193.587C321.44 193.322 321.334 193.068 321.147 192.88C320.959 192.693 320.705 192.587 320.44 192.587H309.91C309.644 192.587 309.39 192.693 309.203 192.88C309.015 193.068 308.91 193.322 308.91 193.587C308.91 193.852 309.015 194.107 309.203 194.294C309.39 194.482 309.644 194.587 309.91 194.587Z" fill="black"/>
<path d="M325.73 201.657H309.91C309.644 201.657 309.39 201.762 309.203 201.95C309.015 202.138 308.91 202.392 308.91 202.657C308.91 202.922 309.015 203.177 309.203 203.364C309.39 203.552 309.644 203.657 309.91 203.657H325.73C325.995 203.657 326.249 203.552 326.437 203.364C326.624 203.177 326.73 202.922 326.73 202.657C326.73 202.392 326.624 202.138 326.437 201.95C326.249 201.762 325.995 201.657 325.73 201.657Z" fill="black"/>
<path d="M317.82 210.737H309.91C309.644 210.737 309.39 210.842 309.203 211.03C309.015 211.217 308.91 211.472 308.91 211.737C308.91 212.002 309.015 212.257 309.203 212.444C309.39 212.632 309.644 212.737 309.91 212.737H317.82C318.085 212.737 318.339 212.632 318.527 212.444C318.714 212.257 318.82 212.002 318.82 211.737C318.82 211.472 318.714 211.217 318.527 211.03C318.339 210.842 318.085 210.737 317.82 210.737Z" fill="black"/>
</g>
<g opacity="0.5">
<path d="M343.99 159.377H306.55C306.285 159.377 306.03 159.272 305.843 159.084C305.655 158.897 305.55 158.642 305.55 158.377C305.55 158.112 305.655 157.858 305.843 157.67C306.03 157.482 306.285 157.377 306.55 157.377H343.99C344.255 157.377 344.509 157.482 344.697 157.67C344.884 157.858 344.99 158.112 344.99 158.377C344.99 158.642 344.884 158.897 344.697 159.084C344.509 159.272 344.255 159.377 343.99 159.377Z" fill="black"/>
</g>
<g opacity="0.5">
<path d="M330.86 164.987H306.55C306.285 164.987 306.03 164.882 305.843 164.694C305.655 164.507 305.55 164.252 305.55 163.987C305.55 163.722 305.655 163.467 305.843 163.28C306.03 163.092 306.285 162.987 306.55 162.987H330.86C331.125 162.987 331.379 163.092 331.567 163.28C331.754 163.467 331.86 163.722 331.86 163.987C331.86 164.252 331.754 164.507 331.567 164.694C331.379 164.882 331.125 164.987 330.86 164.987Z" fill="black"/>
</g>
<g opacity="0.5">
<path d="M354.86 228.797H306.55C306.285 228.797 306.03 228.692 305.843 228.504C305.655 228.317 305.55 228.062 305.55 227.797C305.55 227.532 305.655 227.278 305.843 227.09C306.03 226.902 306.285 226.797 306.55 226.797H354.86C355.125 226.797 355.379 226.902 355.567 227.09C355.754 227.278 355.86 227.532 355.86 227.797C355.86 228.062 355.754 228.317 355.567 228.504C355.379 228.692 355.125 228.797 354.86 228.797Z" fill="black"/>
</g>
<path d="M311.52 268.437H305.55V274.407H311.52V268.437Z" fill="#FF6800"/>
<g opacity="0.5">
<path d="M345.5 272.427H315.86C315.595 272.427 315.34 272.322 315.153 272.134C314.965 271.947 314.86 271.692 314.86 271.427C314.86 271.162 314.965 270.908 315.153 270.72C315.34 270.532 315.595 270.427 315.86 270.427H345.5C345.765 270.427 346.019 270.532 346.207 270.72C346.395 270.908 346.5 271.162 346.5 271.427C346.5 271.692 346.395 271.947 346.207 272.134C346.019 272.322 345.765 272.427 345.5 272.427Z" fill="black"/>
</g>
<path d="M311.52 278.447H305.55V284.417H311.52V278.447Z" fill="#FF6800"/>
<g opacity="0.5">
<path d="M345.5 282.427H315.86C315.595 282.427 315.34 282.322 315.153 282.134C314.965 281.947 314.86 281.692 314.86 281.427C314.86 281.162 314.965 280.908 315.153 280.72C315.34 280.532 315.595 280.427 315.86 280.427H345.5C345.765 280.427 346.019 280.532 346.207 280.72C346.395 280.908 346.5 281.162 346.5 281.427C346.5 281.692 346.395 281.947 346.207 282.134C346.019 282.322 345.765 282.427 345.5 282.427Z" fill="black"/>
</g>
<path d="M311.52 288.447H305.55V294.417H311.52V288.447Z" fill="#FF6800"/>
<g opacity="0.5">
<path d="M345.5 292.437H315.86C315.595 292.437 315.34 292.332 315.153 292.144C314.965 291.957 314.86 291.702 314.86 291.437C314.86 291.172 314.965 290.918 315.153 290.73C315.34 290.542 315.595 290.437 315.86 290.437H345.5C345.765 290.437 346.019 290.542 346.207 290.73C346.395 290.918 346.5 291.172 346.5 291.437C346.5 291.702 346.395 291.957 346.207 292.144C346.019 292.332 345.765 292.437 345.5 292.437Z" fill="black"/>
</g>
<path d="M311.52 298.457H305.55V304.427H311.52V298.457Z" fill="#FF6800"/>
<g opacity="0.5">
<path d="M345.5 302.447H315.86C315.595 302.447 315.34 302.342 315.153 302.154C314.965 301.967 314.86 301.712 314.86 301.447C314.86 301.182 314.965 300.927 315.153 300.74C315.34 300.552 315.595 300.447 315.86 300.447H345.5C345.765 300.447 346.019 300.552 346.207 300.74C346.395 300.927 346.5 301.182 346.5 301.447C346.5 301.712 346.395 301.967 346.207 302.154C346.019 302.342 345.765 302.447 345.5 302.447Z" fill="black"/>
</g>
<g opacity="0.5">
<path d="M400.18 237.737H313.44C313.175 237.737 312.92 237.632 312.733 237.444C312.545 237.257 312.44 237.002 312.44 236.737C312.44 236.472 312.545 236.217 312.733 236.03C312.92 235.842 313.175 235.737 313.44 235.737H400.18C400.445 235.737 400.7 235.842 400.887 236.03C401.075 236.217 401.18 236.472 401.18 236.737C401.18 237.002 401.075 237.257 400.887 237.444C400.7 237.632 400.445 237.737 400.18 237.737Z" fill="black"/>
<path d="M400.29 242.747H306.55C306.285 242.747 306.03 242.641 305.843 242.454C305.655 242.266 305.55 242.012 305.55 241.747C305.55 241.482 305.655 241.227 305.843 241.04C306.03 240.852 306.285 240.747 306.55 240.747H400.29C400.555 240.747 400.809 240.852 400.997 241.04C401.184 241.227 401.29 241.482 401.29 241.747C401.29 242.012 401.184 242.266 400.997 242.454C400.809 242.641 400.555 242.747 400.29 242.747Z" fill="black"/>
<path d="M400.4 247.757H306.66C306.394 247.757 306.14 247.652 305.953 247.464C305.765 247.277 305.66 247.022 305.66 246.757C305.66 246.492 305.765 246.238 305.953 246.05C306.14 245.862 306.394 245.757 306.66 245.757H400.4C400.665 245.757 400.919 245.862 401.107 246.05C401.294 246.238 401.4 246.492 401.4 246.757C401.4 247.022 401.294 247.277 401.107 247.464C400.919 247.652 400.665 247.757 400.4 247.757Z" fill="black"/>
<path d="M386.5 252.767H306.77C306.505 252.767 306.25 252.662 306.063 252.474C305.875 252.287 305.77 252.032 305.77 251.767C305.77 251.502 305.875 251.248 306.063 251.06C306.25 250.872 306.505 250.767 306.77 250.767H386.5C386.765 250.767 387.02 250.872 387.207 251.06C387.395 251.248 387.5 251.502 387.5 251.767C387.5 252.032 387.395 252.287 387.207 252.474C387.02 252.662 386.765 252.767 386.5 252.767Z" fill="black"/>
</g>
<path opacity="0.3" d="M311.52 278.447H305.55V284.417H311.52V278.447Z" fill="white"/>
<path opacity="0.5" d="M311.52 288.447H305.55V294.417H311.52V288.447Z" fill="white"/>
<path opacity="0.7" d="M311.52 298.457H305.55V304.427H311.52V298.457Z" fill="white"/>
<path d="M407.91 352.767C407.91 352.767 403.16 342.407 408.59 332.187C414.02 321.967 415.59 319.567 412.13 317.477C408.67 315.387 407.08 325.647 407.08 325.647C405.369 321.005 405.193 315.936 406.58 311.187C408.98 303.797 410.49 291.757 407.21 290.467C403.93 289.177 406.58 305.467 403.72 311.047C402.27 307.142 401.332 303.064 400.93 298.917C400.54 292.987 401.15 283.507 398.56 281.077C395.97 278.647 394.3 280.327 396.85 293.427C398.383 301.255 399.229 309.202 399.38 317.177C399.38 317.177 393.75 299.987 389.96 299.487C386.17 298.987 386.18 304.557 389.42 309.387C392.66 314.217 398.91 322.857 399.93 327.307C399.93 327.307 393.74 314.377 388.18 318.307C382.62 322.237 393.02 330.087 397.66 332.907C402.3 335.727 405.5 353.457 405.5 353.457L407.91 352.767Z" fill="#FF6800"/>
<path opacity="0.2" d="M407.91 352.767C407.91 352.767 403.16 342.407 408.59 332.187C414.02 321.967 415.59 319.567 412.13 317.477C408.67 315.387 407.08 325.647 407.08 325.647C405.369 321.005 405.193 315.936 406.58 311.187C408.98 303.797 410.49 291.757 407.21 290.467C403.93 289.177 406.58 305.467 403.72 311.047C402.27 307.142 401.332 303.064 400.93 298.917C400.54 292.987 401.15 283.507 398.56 281.077C395.97 278.647 394.3 280.327 396.85 293.427C398.383 301.255 399.229 309.202 399.38 317.177C399.38 317.177 393.75 299.987 389.96 299.487C386.17 298.987 386.18 304.557 389.42 309.387C392.66 314.217 398.91 322.857 399.93 327.307C399.93 327.307 393.74 314.377 388.18 318.307C382.62 322.237 393.02 330.087 397.66 332.907C402.3 335.727 405.5 353.457 405.5 353.457L407.91 352.767Z" fill="black"/>
<path d="M404.16 357.017C404.16 357.017 408.79 346.587 403.24 336.457C397.69 326.327 396.09 323.937 399.52 321.787C402.95 319.637 404.67 329.887 404.67 329.887C406.327 325.227 406.443 320.158 405 315.427C402.51 308.067 400.85 296.057 404.12 294.717C407.39 293.377 404.93 309.717 407.85 315.237C409.256 311.316 410.147 307.228 410.5 303.077C410.82 297.127 410.09 287.657 412.66 285.187C415.23 282.717 416.91 284.377 414.51 297.517C413.073 305.367 412.324 313.327 412.27 321.307C412.27 321.307 417.7 304.037 421.5 303.517C425.3 302.997 425.34 308.517 422.16 313.397C418.98 318.277 412.84 327.017 411.87 331.477C411.87 331.477 417.87 318.477 423.51 322.337C429.15 326.197 418.81 334.187 414.21 337.077C409.61 339.967 406.59 357.707 406.59 357.707L404.16 357.017Z" fill="#FF6800"/>
<path d="M425.5 349.587H387.29L390.38 376.927H422.4L425.5 349.587Z" fill="#263238"/>
<path d="M194.76 115.087H223.5C225.845 115.087 228.093 116.018 229.751 117.676C231.409 119.334 232.34 121.583 232.34 123.927V148.927C232.34 151.272 231.409 153.52 229.751 155.178C228.093 156.836 225.845 157.767 223.5 157.767H215.1L218.1 168.667L209.1 157.767H194.76C193.598 157.768 192.448 157.541 191.374 157.097C190.3 156.653 189.325 156.002 188.503 155.181C187.681 154.36 187.029 153.385 186.584 152.312C186.139 151.239 185.91 150.089 185.91 148.927V123.927C185.91 122.765 186.139 121.615 186.584 120.542C187.029 119.469 187.681 118.494 188.503 117.673C189.325 116.852 190.3 116.201 191.374 115.757C192.448 115.313 193.598 115.086 194.76 115.087Z" fill="#FF6800"/>
<path opacity="0.7" d="M194.76 115.087H223.5C225.845 115.087 228.093 116.018 229.751 117.676C231.409 119.334 232.34 121.583 232.34 123.927V148.927C232.34 151.272 231.409 153.52 229.751 155.178C228.093 156.836 225.845 157.767 223.5 157.767H215.1L218.1 168.667L209.1 157.767H194.76C193.598 157.768 192.448 157.541 191.374 157.097C190.3 156.653 189.325 156.002 188.503 155.181C187.681 154.36 187.029 153.385 186.584 152.312C186.139 151.239 185.91 150.089 185.91 148.927V123.927C185.91 122.765 186.139 121.615 186.584 120.542C187.029 119.469 187.681 118.494 188.503 117.673C189.325 116.852 190.3 116.201 191.374 115.757C192.448 115.313 193.598 115.086 194.76 115.087Z" fill="white"/>
<path opacity="0.7" d="M204.78 141.877C209.723 141.877 213.73 137.87 213.73 132.927C213.73 127.984 209.723 123.977 204.78 123.977C199.837 123.977 195.83 127.984 195.83 132.927C195.83 137.87 199.837 141.877 204.78 141.877Z" fill="white"/>
<path d="M204.78 143.167C202.412 143.165 200.117 142.342 198.287 140.838C196.457 139.334 195.205 137.242 194.744 134.919C194.284 132.595 194.643 130.184 195.76 128.096C196.878 126.007 198.685 124.371 200.874 123.465C203.062 122.559 205.497 122.441 207.764 123.129C210.03 123.817 211.988 125.269 213.304 127.239C214.62 129.209 215.212 131.574 214.98 133.931C214.747 136.288 213.705 138.492 212.03 140.167C211.079 141.12 209.949 141.876 208.705 142.39C207.461 142.905 206.127 143.169 204.78 143.167ZM204.78 125.277C203.011 125.277 201.296 125.891 199.928 127.014C198.56 128.137 197.623 129.7 197.278 131.436C196.933 133.172 197.201 134.973 198.035 136.534C198.87 138.095 200.22 139.318 201.855 139.995C203.49 140.672 205.31 140.761 207.003 140.247C208.697 139.733 210.16 138.648 211.143 137.176C212.126 135.705 212.568 133.938 212.395 132.176C212.221 130.415 211.442 128.768 210.19 127.517C209.482 126.804 208.639 126.239 207.71 125.854C206.781 125.47 205.786 125.274 204.78 125.277Z" fill="#FF6800"/>
<path d="M212.033 138.337L210.194 140.176L220.398 150.379L222.236 148.541L212.033 138.337Z" fill="#FF6800"/>
<path d="M222.41 152.517C221.894 152.512 221.399 152.308 221.03 151.947L213.24 144.157C213.046 143.98 212.889 143.765 212.78 143.525C212.67 143.285 212.611 143.026 212.605 142.763C212.598 142.499 212.645 142.238 212.743 141.993C212.841 141.748 212.987 141.526 213.173 141.34C213.359 141.153 213.58 141.006 213.825 140.908C214.069 140.809 214.33 140.761 214.594 140.766C214.857 140.772 215.116 140.83 215.357 140.939C215.597 141.047 215.812 141.203 215.99 141.397L223.79 149.197C224.06 149.47 224.243 149.817 224.317 150.194C224.39 150.571 224.351 150.961 224.203 151.315C224.056 151.67 223.807 151.973 223.488 152.187C223.169 152.401 222.794 152.516 222.41 152.517Z" fill="#FF6800"/>
<path d="M206.17 128.877C206.17 129.273 206.053 129.659 205.833 129.988C205.613 130.317 205.301 130.573 204.935 130.725C204.57 130.876 204.168 130.916 203.78 130.839C203.392 130.761 203.035 130.571 202.756 130.291C202.476 130.012 202.286 129.655 202.208 129.267C202.131 128.879 202.171 128.477 202.322 128.112C202.474 127.746 202.73 127.434 203.059 127.214C203.388 126.994 203.774 126.877 204.17 126.877C204.7 126.877 205.209 127.088 205.584 127.463C205.959 127.838 206.17 128.347 206.17 128.877Z" fill="white"/>
<path d="M209.14 130.337C209.14 130.535 209.081 130.728 208.972 130.893C208.862 131.057 208.706 131.185 208.523 131.261C208.34 131.337 208.139 131.356 207.945 131.318C207.751 131.279 207.573 131.184 207.433 131.044C207.293 130.904 207.198 130.726 207.159 130.532C207.121 130.338 207.141 130.137 207.216 129.954C207.292 129.772 207.42 129.615 207.585 129.506C207.749 129.396 207.942 129.337 208.14 129.337C208.405 129.337 208.66 129.442 208.847 129.63C209.035 129.817 209.14 130.072 209.14 130.337Z" fill="white"/>
<path d="M289.28 298.977H140.34V322.947H289.28V298.977Z" fill="#FF6800"/>
<path opacity="0.8" d="M289.28 298.977H140.34V322.947H289.28V298.977Z" fill="white"/>
<path opacity="0.2" d="M289.28 305.317V303.367L187.31 304.177L289.28 305.317Z" fill="black"/>
<path opacity="0.2" d="M289.28 313.717V312.207L243.5 313.847L289.28 313.717Z" fill="black"/>
<path opacity="0.2" d="M289.28 319.337V317.387L215.47 318.517L289.28 319.337Z" fill="black"/>
<path opacity="0.2" d="M173.64 298.977L171.5 316.847L174.05 314.127C174.907 317.389 176.509 320.408 178.73 322.947C180.323 320.86 181.591 318.544 182.49 316.077L252.05 315.277L183.15 313.767C183.364 312.781 183.475 311.776 183.48 310.767C183.476 309.931 183.396 309.098 183.24 308.277L285.3 308.017L183 307.217C182.64 305.871 182.137 304.567 181.5 303.327C182.971 302.029 184.868 301.318 186.83 301.327H289.28V298.977H173.64Z" fill="black"/>
<path d="M175.94 310.827C175.948 313.7 177.094 316.453 179.128 318.483C181.162 320.513 183.917 321.654 186.79 321.657H291C291.105 321.657 291.209 321.677 291.306 321.718C291.403 321.758 291.492 321.817 291.566 321.891C291.64 321.965 291.699 322.054 291.739 322.151C291.78 322.248 291.8 322.352 291.8 322.457V323.317C291.8 323.529 291.716 323.732 291.566 323.882C291.416 324.033 291.212 324.117 291 324.117H137.06C135.304 324.117 133.566 323.769 131.945 323.094C130.324 322.419 128.853 321.429 127.617 320.183C126.38 318.936 125.403 317.457 124.741 315.83C124.079 314.204 123.746 312.463 123.76 310.707C123.847 307.158 125.326 303.785 127.878 301.317C130.43 298.849 133.85 297.484 137.4 297.517H291C291.212 297.517 291.416 297.601 291.566 297.751C291.716 297.901 291.8 298.105 291.8 298.317V299.167C291.8 299.379 291.716 299.582 291.566 299.733C291.416 299.883 291.212 299.967 291 299.967H187.11C184.199 299.961 181.401 301.093 179.314 303.122C177.227 305.152 176.016 307.917 175.94 310.827Z" fill="#FF6800"/>
<path opacity="0.4" d="M175.94 310.827C175.948 313.7 177.094 316.453 179.128 318.483C181.162 320.513 183.917 321.654 186.79 321.657H291C291.105 321.657 291.209 321.677 291.306 321.718C291.403 321.758 291.492 321.817 291.566 321.891C291.64 321.965 291.699 322.054 291.739 322.151C291.78 322.248 291.8 322.352 291.8 322.457V323.317C291.8 323.529 291.716 323.732 291.566 323.882C291.416 324.033 291.212 324.117 291 324.117H137.06C135.304 324.117 133.566 323.769 131.945 323.094C130.324 322.419 128.853 321.429 127.617 320.183C126.38 318.936 125.403 317.457 124.741 315.83C124.079 314.204 123.746 312.463 123.76 310.707C123.847 307.158 125.326 303.785 127.878 301.317C130.43 298.849 133.85 297.484 137.4 297.517H291C291.212 297.517 291.416 297.601 291.566 297.751C291.716 297.901 291.8 298.105 291.8 298.317V299.167C291.8 299.379 291.716 299.582 291.566 299.733C291.416 299.883 291.212 299.967 291 299.967H187.11C184.199 299.961 181.401 301.093 179.314 303.122C177.227 305.152 176.016 307.917 175.94 310.827Z" fill="white"/>
<path d="M175.94 310.827C175.948 313.7 177.094 316.454 179.128 318.483C181.162 320.513 183.917 321.654 186.79 321.657H291C291.105 321.657 291.209 321.678 291.306 321.718C291.403 321.758 291.492 321.817 291.566 321.891C291.64 321.966 291.699 322.054 291.739 322.151C291.779 322.248 291.8 322.352 291.8 322.457V323.317C291.8 323.529 291.716 323.733 291.566 323.883C291.416 324.033 291.212 324.117 291 324.117H186.19C184.434 324.116 182.696 323.767 181.075 323.092C179.454 322.416 177.983 321.427 176.746 320.18C175.509 318.934 174.531 317.456 173.867 315.83C173.204 314.204 172.868 312.463 172.88 310.707C172.972 307.163 174.45 303.797 176.996 301.33C179.543 298.864 182.955 297.495 186.5 297.517H291C291.212 297.517 291.416 297.601 291.566 297.751C291.716 297.901 291.8 298.105 291.8 298.317V299.167C291.8 299.379 291.716 299.583 291.566 299.733C291.416 299.883 291.212 299.967 291 299.967H187.11C184.199 299.961 181.401 301.093 179.314 303.123C177.227 305.152 176.016 307.917 175.94 310.827Z" fill="#FF6800"/>
<path d="M195.56 304.367V313.977L199.04 310.497L202.41 313.867V304.367H195.56Z" fill="#263238"/>
<path opacity="0.6" d="M175.94 310.827C175.948 313.7 177.094 316.454 179.128 318.483C181.162 320.513 183.917 321.654 186.79 321.657H291C291.105 321.657 291.209 321.678 291.306 321.718C291.403 321.758 291.492 321.817 291.566 321.891C291.64 321.966 291.699 322.054 291.739 322.151C291.779 322.248 291.8 322.352 291.8 322.457V323.317C291.8 323.529 291.716 323.733 291.566 323.883C291.416 324.033 291.212 324.117 291 324.117H186.19C184.434 324.116 182.696 323.767 181.075 323.092C179.454 322.416 177.983 321.427 176.746 320.18C175.509 318.934 174.531 317.456 173.867 315.83C173.204 314.204 172.868 312.463 172.88 310.707C172.972 307.163 174.45 303.797 176.996 301.33C179.543 298.864 182.955 297.495 186.5 297.517H291C291.212 297.517 291.416 297.601 291.566 297.751C291.716 297.901 291.8 298.105 291.8 298.317V299.167C291.8 299.379 291.716 299.583 291.566 299.733C291.416 299.883 291.212 299.967 291 299.967H187.11C184.199 299.961 181.401 301.093 179.314 303.123C177.227 305.152 176.016 307.917 175.94 310.827Z" fill="white"/>
<path d="M296.47 351.797H147.53V375.767H296.47V351.797Z" fill="#FF6800"/>
<path opacity="0.7" d="M296.47 351.797H147.53V375.767H296.47V351.797Z" fill="white"/>
<path opacity="0.2" d="M296.47 358.127V356.177L194.5 356.997L296.47 358.127Z" fill="black"/>
<path opacity="0.2" d="M296.47 366.527V365.027L250.69 366.657L296.47 366.527Z" fill="black"/>
<path opacity="0.2" d="M296.47 372.147V370.207L222.66 371.327L296.47 372.147Z" fill="black"/>
<path opacity="0.2" d="M180.83 351.797L178.67 369.667L181.22 366.947C182.086 370.208 183.691 373.226 185.91 375.767C187.496 373.673 188.76 371.355 189.66 368.887L259.22 368.087L190.32 366.587C190.536 365.601 190.65 364.596 190.66 363.587C190.653 362.751 190.569 361.918 190.41 361.097L292.5 360.867L190.19 360.067C189.83 358.724 189.327 357.423 188.69 356.187C190.154 354.871 192.052 354.141 194.02 354.137H296.5V351.797H180.83Z" fill="black"/>
<path d="M183.13 363.637C183.125 365.065 183.402 366.479 183.945 367.8C184.488 369.12 185.286 370.321 186.294 371.331C187.302 372.342 188.5 373.144 189.819 373.691C191.138 374.238 192.552 374.518 193.98 374.517H298.19C298.402 374.517 298.606 374.601 298.756 374.751C298.906 374.901 298.99 375.105 298.99 375.317V376.177C298.99 376.389 298.906 376.593 298.756 376.743C298.606 376.893 298.402 376.977 298.19 376.977H136.06C134.306 376.974 132.569 376.625 130.95 375.95C129.331 375.274 127.862 374.285 126.626 373.04C125.39 371.795 124.412 370.318 123.749 368.694C123.086 367.07 122.749 365.331 122.76 363.577C122.844 360.024 124.323 356.646 126.877 354.174C129.431 351.702 132.856 350.335 136.41 350.367H298.19C298.402 350.367 298.606 350.451 298.756 350.601C298.906 350.751 298.99 350.955 298.99 351.167V352.027C298.99 352.239 298.906 352.443 298.756 352.593C298.606 352.743 298.402 352.827 298.19 352.827H194.3C191.397 352.82 188.607 353.946 186.521 355.965C184.435 357.983 183.219 360.736 183.13 363.637Z" fill="#263238"/>
<path opacity="0.2" d="M183.13 363.637C183.125 365.065 183.402 366.479 183.945 367.8C184.488 369.12 185.286 370.321 186.294 371.331C187.302 372.342 188.5 373.144 189.819 373.691C191.138 374.238 192.552 374.518 193.98 374.517H298.19C298.402 374.517 298.606 374.601 298.756 374.751C298.906 374.901 298.99 375.105 298.99 375.317V376.177C298.99 376.389 298.906 376.593 298.756 376.743C298.606 376.893 298.402 376.977 298.19 376.977H136.06C134.306 376.974 132.569 376.625 130.95 375.95C129.331 375.274 127.862 374.285 126.626 373.04C125.39 371.795 124.412 370.318 123.749 368.694C123.086 367.07 122.749 365.331 122.76 363.577C122.844 360.024 124.323 356.646 126.877 354.174C129.431 351.702 132.856 350.335 136.41 350.367H298.19C298.402 350.367 298.606 350.451 298.756 350.601C298.906 350.751 298.99 350.955 298.99 351.167V352.027C298.99 352.239 298.906 352.443 298.756 352.593C298.606 352.743 298.402 352.827 298.19 352.827H194.3C191.397 352.82 188.607 353.946 186.521 355.965C184.435 357.983 183.219 360.736 183.13 363.637Z" fill="white"/>
<path d="M183.13 363.637C183.125 365.065 183.402 366.479 183.945 367.8C184.488 369.12 185.286 370.321 186.294 371.331C187.302 372.342 188.5 373.144 189.819 373.691C191.138 374.238 192.552 374.518 193.98 374.517H298.19C298.402 374.517 298.606 374.601 298.756 374.751C298.906 374.901 298.99 375.105 298.99 375.317V376.177C298.99 376.389 298.906 376.593 298.756 376.743C298.606 376.893 298.402 376.977 298.19 376.977H193.38C191.625 376.977 189.887 376.63 188.267 375.955C186.647 375.28 185.176 374.292 183.94 373.046C182.704 371.801 181.726 370.323 181.064 368.697C180.401 367.072 180.067 365.332 180.08 363.577C180.161 360.024 181.638 356.647 184.191 354.175C186.743 351.702 190.167 350.335 193.72 350.367H298.19C298.402 350.367 298.606 350.451 298.756 350.601C298.906 350.751 298.99 350.955 298.99 351.167V352.027C298.99 352.239 298.906 352.443 298.756 352.593C298.606 352.743 298.402 352.827 298.19 352.827H194.3C191.397 352.82 188.607 353.946 186.521 355.965C184.435 357.983 183.218 360.736 183.13 363.637Z" fill="#263238"/>
<path d="M194.5 360.597V370.207L197.97 366.727L201.34 370.097V360.597H194.5Z" fill="#FF6800"/>
<path opacity="0.4" d="M183.13 363.637C183.125 365.065 183.402 366.479 183.945 367.8C184.488 369.12 185.286 370.321 186.294 371.331C187.302 372.342 188.5 373.144 189.819 373.691C191.138 374.238 192.552 374.518 193.98 374.517H298.19C298.402 374.517 298.606 374.601 298.756 374.751C298.906 374.901 298.99 375.105 298.99 375.317V376.177C298.99 376.389 298.906 376.593 298.756 376.743C298.606 376.893 298.402 376.977 298.19 376.977H193.38C191.625 376.977 189.887 376.63 188.267 375.955C186.647 375.28 185.176 374.292 183.94 373.046C182.704 371.801 181.726 370.323 181.064 368.697C180.401 367.072 180.067 365.332 180.08 363.577C180.161 360.024 181.638 356.647 184.191 354.175C186.743 351.702 190.167 350.335 193.72 350.367H298.19C298.402 350.367 298.606 350.451 298.756 350.601C298.906 350.751 298.99 350.955 298.99 351.167V352.027C298.99 352.239 298.906 352.443 298.756 352.593C298.606 352.743 298.402 352.827 298.19 352.827H194.3C191.397 352.82 188.607 353.946 186.521 355.965C184.435 357.983 183.218 360.736 183.13 363.637Z" fill="white"/>
<path d="M134.13 349.317H189.31V325.377H134.13V349.317Z" fill="#FF6800"/>
<path opacity="0.8" d="M134.13 349.317H189.31V325.377H134.13V349.317Z" fill="white"/>
<path opacity="0.2" d="M184.89 327.727H134.13V325.387H184.83L184.89 327.727Z" fill="black"/>
<path opacity="0.2" d="M184.89 329.767L139.1 330.747L184.89 331.717V329.767Z" fill="black"/>
<path opacity="0.2" d="M184.89 338.617L136.4 339.437L184.89 340.127V338.617Z" fill="black"/>
<path opacity="0.2" d="M184.89 343.797L136.83 344.767L184.89 345.737V343.797Z" fill="black"/>
<path opacity="0.2" d="M134.13 333.177L180.62 334.577L134.13 335.557V333.177Z" fill="black"/>
<path d="M257.29 337.227C257.285 340.102 256.139 342.858 254.105 344.89C252.072 346.922 249.315 348.064 246.44 348.067H131.58C131.368 348.067 131.164 348.151 131.014 348.301C130.864 348.451 130.78 348.655 130.78 348.867V349.717C130.78 349.929 130.864 350.133 131.014 350.283C131.164 350.433 131.368 350.517 131.58 350.517H247.04C248.796 350.52 250.534 350.174 252.156 349.501C253.777 348.827 255.249 347.838 256.486 346.592C257.723 345.346 258.7 343.867 259.362 342.241C260.023 340.614 260.356 338.873 260.34 337.117C260.258 333.564 258.782 330.187 256.229 327.715C253.676 325.242 250.253 323.875 246.7 323.907H131.58C131.368 323.907 131.164 323.991 131.014 324.141C130.864 324.291 130.78 324.495 130.78 324.707V325.567C130.78 325.779 130.864 325.983 131.014 326.133C131.164 326.283 131.368 326.367 131.58 326.367H246.12C249.031 326.361 251.829 327.493 253.916 329.523C256.003 331.552 257.214 334.317 257.29 337.227Z" fill="#263238"/>
<path opacity="0.4" d="M257.29 337.227C257.285 340.102 256.139 342.858 254.105 344.89C252.072 346.922 249.315 348.064 246.44 348.067H131.58C131.368 348.067 131.164 348.151 131.014 348.301C130.864 348.451 130.78 348.655 130.78 348.867V349.717C130.78 349.929 130.864 350.133 131.014 350.283C131.164 350.433 131.368 350.517 131.58 350.517H247.04C248.796 350.52 250.534 350.174 252.156 349.501C253.777 348.827 255.249 347.838 256.486 346.592C257.723 345.346 258.7 343.867 259.362 342.241C260.023 340.614 260.356 338.873 260.34 337.117C260.258 333.564 258.782 330.187 256.229 327.715C253.676 325.242 250.253 323.875 246.7 323.907H131.58C131.368 323.907 131.164 323.991 131.014 324.141C130.864 324.291 130.78 324.495 130.78 324.707V325.567C130.78 325.779 130.864 325.983 131.014 326.133C131.164 326.283 131.368 326.367 131.58 326.367H246.12C249.031 326.361 251.829 327.493 253.916 329.523C256.003 331.552 257.214 334.317 257.29 337.227Z" fill="white"/>
<path d="M299.18 337.367C299.18 340.549 297.916 343.602 295.665 345.852C293.415 348.103 290.363 349.367 287.18 349.367H184.89V325.367H287.19C290.371 325.369 293.421 326.635 295.669 328.885C297.917 331.135 299.18 334.186 299.18 337.367Z" fill="#FF6800"/>
<path opacity="0.7" d="M184.89 325.387V349.387H287.2C290.383 349.387 293.435 348.123 295.685 345.872C297.936 343.622 299.2 340.57 299.2 337.387C299.2 334.204 297.936 331.152 295.685 328.902C293.435 326.651 290.383 325.387 287.2 325.387H184.89Z" fill="white"/>
<path opacity="0.2" d="M184.89 331.717V329.767L286.86 330.587L184.89 331.717Z" fill="black"/>
<path opacity="0.2" d="M184.89 340.127V338.617L230.67 340.257L184.89 340.127Z" fill="black"/>
<path opacity="0.2" d="M184.89 345.737V343.797L258.7 344.917L184.89 345.737Z" fill="black"/>
<path opacity="0.2" d="M287.36 327.727C289.328 327.731 291.226 328.461 292.69 329.777C292.053 331.017 291.546 332.321 291.18 333.667L188.88 334.467L290.95 334.717C290.791 335.541 290.707 336.378 290.7 337.217C290.702 338.227 290.819 339.234 291.05 340.217L222.14 341.717L291.69 342.527C292.293 344.186 293.067 345.778 294 347.277C296.094 345.82 297.669 343.734 298.497 341.322C299.324 338.91 299.362 336.296 298.604 333.861C297.846 331.426 296.332 329.295 294.282 327.779C292.231 326.262 289.751 325.438 287.2 325.427H184.89V327.767L287.36 327.727Z" fill="black"/>
<path d="M298.23 337.227C298.225 340.102 297.08 342.858 295.046 344.89C293.012 346.922 290.255 348.064 287.38 348.067H183.17C182.958 348.067 182.754 348.151 182.604 348.301C182.454 348.451 182.37 348.655 182.37 348.867V349.717C182.37 349.929 182.454 350.133 182.604 350.283C182.754 350.433 182.958 350.517 183.17 350.517H287.98C289.736 350.52 291.475 350.174 293.096 349.501C294.718 348.827 296.189 347.838 297.426 346.592C298.663 345.346 299.64 343.867 300.302 342.241C300.964 340.614 301.296 338.873 301.28 337.117C301.199 333.564 299.722 330.187 297.169 327.715C294.617 325.242 291.194 323.875 287.64 323.907H183.17C182.958 323.907 182.754 323.991 182.604 324.141C182.454 324.291 182.37 324.495 182.37 324.707V325.567C182.37 325.779 182.454 325.983 182.604 326.133C182.754 326.283 182.958 326.367 183.17 326.367H287.06C289.971 326.361 292.769 327.493 294.856 329.523C296.944 331.552 298.154 334.317 298.23 337.227Z" fill="#263238"/>
<path d="M286.86 334.187V343.797L283.38 340.317L280.01 343.687V334.187H286.86Z" fill="#FF6800"/>
<path d="M313.89 199.107H311.39C310.925 199.117 310.47 199.237 310.061 199.458C309.652 199.679 309.302 199.994 309.04 200.377L306.56 203.997C306.068 204.712 305.754 205.535 305.647 206.397C305.539 207.258 305.639 208.133 305.94 208.947L306.32 209.947C310.47 210.147 315.11 207.307 315.11 207.307L316.53 206.647C316.823 206.519 317.088 206.335 317.31 206.103C317.531 205.872 317.705 205.6 317.82 205.301C317.935 205.003 317.99 204.684 317.982 204.364C317.973 204.044 317.901 203.729 317.77 203.437L316.5 200.687C316.263 200.201 315.891 199.793 315.428 199.512C314.965 199.232 314.431 199.091 313.89 199.107Z" fill="#EEC1BB"/>
<path d="M266.5 203.517C272.92 208.707 279.85 213.707 287.5 216.767L286.55 216.567C287.25 216.737 289.09 216.037 290.05 215.567C295.39 212.967 300.45 209.067 305.25 205.507C305.741 205.151 306.344 204.983 306.948 205.033C307.552 205.083 308.119 205.347 308.546 205.779C308.972 206.21 309.23 206.78 309.273 207.385C309.316 207.989 309.141 208.59 308.78 209.077C303.99 215.077 293.21 227.267 284.67 225.487C275.31 222.697 267.04 217.487 259.67 211.117C254.89 206.517 261.3 199.327 266.5 203.517Z" fill="#EBC0BB"/>
<path d="M253.03 196.447C250.69 202.967 254.46 209.447 263.53 217.077C268.04 216.407 274.13 207.157 274.13 207.157C274.13 207.157 261.37 194.397 253.03 196.447Z" fill="#FF6800"/>
<path d="M260.83 155.947C260.83 155.947 251.9 146.807 240.26 158.277C228.62 169.747 226.35 207.747 226.35 207.747L256.73 213.647C256.73 213.647 260.66 209.137 262.68 196.127C264.7 183.117 265.77 170.677 268.33 167.777C270.89 164.877 260.83 155.947 260.83 155.947Z" fill="#263238"/>
<path d="M286.92 348.387L280.34 345.767L282.91 336.177L285.28 327.377L293.6 329.217L290.07 339.367L286.92 348.387Z" fill="#EEC1BB"/>
<path opacity="0.2" d="M289.99 339.577L282.84 336.357L285.25 327.467L293.58 329.267L289.99 339.577Z" fill="black"/>
<path d="M237.13 261.977C237.13 261.977 292.13 254.557 307.41 264.317C322.69 274.077 293.1 333.517 293.1 333.517L283.84 331.517C283.84 331.517 290.78 284.397 290.26 282.427C289.74 280.457 263.84 293.307 228.39 294.527L237.13 261.977Z" fill="#263238"/>
<path opacity="0.2" d="M237.13 261.977C237.13 261.977 292.13 254.557 307.41 264.317C322.69 274.077 293.1 333.517 293.1 333.517L283.84 331.517C283.84 331.517 290.78 284.397 290.26 282.427C289.74 280.457 263.84 293.307 228.39 294.527L237.13 261.977Z" fill="black"/>
<path d="M283.33 328.517L294.98 332.297L292.89 337.607L282.19 333.967L283.33 328.517Z" fill="#263238"/>
<path d="M293.01 349.867C291.75 349.867 289.53 347.867 289.07 347.387C289.043 347.362 289.023 347.331 289.01 347.297V347.237C289.008 347.174 289.025 347.111 289.06 347.057C289.12 346.987 290.58 345.057 291.98 344.997C292.192 344.976 292.405 345.001 292.606 345.072C292.807 345.143 292.989 345.258 293.14 345.407C293.49 345.737 293.61 346.057 293.49 346.357C293.3 346.837 292.49 347.097 291.58 347.257C292.316 347.362 293.009 347.67 293.58 348.147C293.68 348.248 293.758 348.368 293.808 348.501C293.858 348.634 293.879 348.776 293.87 348.917C293.87 349.497 293.56 349.727 293.34 349.807C293.235 349.848 293.123 349.869 293.01 349.867ZM289.91 347.497C291.07 348.497 292.61 349.577 293.16 349.357C293.16 349.357 293.36 349.287 293.38 348.887C293.384 348.811 293.372 348.736 293.345 348.665C293.317 348.594 293.274 348.53 293.22 348.477C292.68 347.877 291.01 347.597 289.91 347.517V347.497ZM292.09 345.497H292C291.116 345.73 290.332 346.246 289.77 346.967C291.3 346.897 292.86 346.607 293.02 346.197C293.07 346.067 292.9 345.877 292.79 345.777C292.599 345.604 292.348 345.51 292.09 345.517V345.497Z" fill="#577AFA"/>
<path d="M279.11 341.677C279.37 340.937 288.3 344.487 288.3 344.487C288.3 344.487 292.06 352.017 297.1 355.077C302.14 358.137 298.02 360.417 291.93 358.427L276.85 353.517C272.5 352.117 276.42 349.317 279.11 341.677Z" fill="#2E353A"/>
<path opacity="0.4" d="M283.33 328.517L294.98 332.297L292.89 337.607L282.19 333.967L283.33 328.517Z" fill="white"/>
<path d="M315.62 367.417L308.8 369.337L305 360.157L301.54 351.737L309.26 348.137L312.63 358.347L315.62 367.417Z" fill="#EEC1BB"/>
<path d="M305.77 364.517C305.77 363.737 315.39 364.587 315.39 364.587C315.39 364.587 321.14 370.737 326.84 372.227C332.54 373.717 329.25 377.077 322.84 376.927L306.99 376.527C302.44 376.417 305.38 372.607 305.77 364.517Z" fill="#2E353A"/>
<path d="M320.44 367.157C319.038 366.967 317.683 366.523 316.44 365.847L316.37 365.797C316.366 365.771 316.366 365.744 316.37 365.717C316.365 365.694 316.365 365.67 316.37 365.647C316.359 365.615 316.359 365.58 316.37 365.547C316.37 365.437 317.26 363.237 318.57 362.727C318.767 362.647 318.98 362.611 319.193 362.623C319.406 362.635 319.613 362.695 319.8 362.797C320.23 363.007 320.43 363.277 320.41 363.607C320.36 364.117 319.64 364.607 318.84 365.007C319.583 364.896 320.342 364.997 321.03 365.297C321.153 365.365 321.26 365.458 321.344 365.57C321.428 365.682 321.488 365.811 321.52 365.947C321.584 366.12 321.595 366.308 321.55 366.486C321.505 366.665 321.408 366.825 321.27 366.947C321.027 367.114 320.733 367.188 320.44 367.157ZM317.27 365.717C318.68 366.347 320.45 366.937 320.92 366.567C320.92 366.567 321.09 366.437 321 366.057C320.983 365.983 320.951 365.913 320.904 365.852C320.857 365.792 320.798 365.742 320.73 365.707C320.03 365.287 318.35 365.517 317.27 365.717ZM319.07 363.107C318.943 363.107 318.818 363.131 318.7 363.177C317.928 363.644 317.326 364.345 316.98 365.177C318.43 364.677 319.84 363.947 319.88 363.517C319.88 363.377 319.67 363.237 319.54 363.177C319.39 363.119 319.23 363.095 319.07 363.107Z" fill="#577AFA"/>
<path opacity="0.2" d="M312.69 358.557L305.06 360.347L301.56 351.827L309.27 348.187L312.69 358.557Z" fill="black"/>
<path d="M252.73 269.087C252.73 269.087 251.94 258.207 251.57 255.987C251.264 253.786 250.813 251.608 250.22 249.467C247.81 242.217 215.48 250.747 215.48 250.747L214.56 255.747C214.56 255.747 199.97 283.257 209.72 293.167C212.72 296.167 218.49 297.527 224.42 297.487C224.42 297.487 242.55 298.357 276.27 296.787C276.27 296.787 273.77 316.427 301.56 354.907L310.86 351.907C310.86 351.907 292.5 282.047 290.94 280.807C277.5 269.947 252.73 269.087 252.73 269.087Z" fill="#263238"/>
<path d="M299.88 354.437L311.43 350.347L313 355.837L302.29 359.457L299.88 354.437Z" fill="#263238"/>
<path d="M263.6 201.657C263.6 201.657 262.44 204.497 260.82 209.457C260.43 210.617 260.03 211.897 259.61 213.277C259.06 215.087 258.47 217.077 257.88 219.277C257.45 220.837 257.02 222.467 256.6 224.187C256.18 225.907 255.73 227.767 255.3 229.657C255.3 229.877 255.2 230.107 255.16 230.327C253.332 238.065 251.996 245.91 251.16 253.817L215.64 250.717C215.635 242.921 216.039 235.131 216.85 227.377C217.491 220.659 218.732 214.013 220.56 207.517C221.97 202.837 223.79 198.817 226.13 196.187C226.13 196.227 245.39 189.907 263.6 201.657Z" fill="#FF6800"/>
<path d="M245.5 191.127C234.81 187.707 230.66 196.127 230.66 196.127L236.35 195.567L247.9 210.067L254.67 201.297L258.93 203.587C258.93 203.587 254.76 194.087 245.5 191.127Z" fill="#FF6800"/>
<path opacity="0.6" d="M245.5 191.127C234.81 187.707 230.66 196.127 230.66 196.127L236.35 195.567L247.9 210.067L254.67 201.297L258.93 203.587C258.93 203.587 254.76 194.087 245.5 191.127Z" fill="white"/>
<path d="M247.6 209.277L237.8 194.607C242.42 192.517 245.48 183.677 246.15 178.697L253.07 189.157C250.81 192.517 249.3 196.357 254.48 199.257C254.5 199.257 247.59 209.247 247.6 209.277Z" fill="#EEC1BB"/>
<path opacity="0.2" d="M248.97 182.967L253.07 189.157C252.531 189.925 252.066 190.742 251.68 191.597C249.63 190.677 247.45 187.597 247.96 185.467C248.134 184.577 248.477 183.728 248.97 182.967Z" fill="black"/>
<path d="M215.09 251.847L226.2 252.577L225.8 255.717L214 254.867L215.09 251.847Z" fill="black"/>
<path d="M252.05 257.587L227.14 255.807L227.54 252.667L251.65 254.257L252.05 257.587Z" fill="black"/>
<path d="M242.92 257.577H242.82L239.82 257.377C239.462 257.354 239.127 257.191 238.888 256.924C238.648 256.656 238.524 256.306 238.54 255.947L238.62 253.947C238.619 253.758 238.659 253.571 238.736 253.398C238.814 253.226 238.928 253.072 239.07 252.947C239.202 252.82 239.36 252.723 239.532 252.661C239.704 252.599 239.887 252.574 240.07 252.587L243.19 252.767C243.372 252.777 243.55 252.823 243.714 252.903C243.877 252.983 244.023 253.094 244.144 253.231C244.264 253.368 244.355 253.528 244.413 253.7C244.471 253.873 244.494 254.055 244.48 254.237L244.33 256.317C244.297 256.666 244.134 256.99 243.872 257.224C243.611 257.457 243.271 257.584 242.92 257.577ZM239.58 253.937L239.49 255.937C239.487 256.035 239.522 256.129 239.587 256.202C239.652 256.275 239.743 256.319 239.84 256.327L242.84 256.537C242.939 256.543 243.037 256.509 243.111 256.444C243.186 256.378 243.232 256.286 243.24 256.187L243.39 254.117C243.395 254.067 243.39 254.016 243.374 253.968C243.359 253.92 243.333 253.875 243.3 253.837C243.267 253.801 243.227 253.771 243.182 253.751C243.137 253.73 243.089 253.719 243.04 253.717L239.92 253.537C239.82 253.534 239.723 253.57 239.65 253.637C239.612 253.669 239.582 253.709 239.561 253.754C239.541 253.799 239.53 253.848 239.53 253.897L239.58 253.937Z" fill="white"/>
<path opacity="0.5" d="M299.88 354.437L311.43 350.347L313 355.837L302.29 359.457L299.88 354.437Z" fill="white"/>
<path d="M270.43 176.007C270.378 176.009 270.327 175.995 270.283 175.969C270.239 175.942 270.203 175.903 270.18 175.857C269.903 175.318 269.507 174.848 269.022 174.485C268.537 174.121 267.975 173.872 267.38 173.757C267.343 173.756 267.306 173.747 267.272 173.731C267.239 173.715 267.209 173.692 267.184 173.664C267.16 173.636 267.141 173.603 267.13 173.567C267.119 173.532 267.116 173.494 267.12 173.457C267.13 173.386 267.166 173.32 267.221 173.274C267.277 173.228 267.348 173.204 267.42 173.207C268.111 173.325 268.766 173.604 269.33 174.021C269.894 174.438 270.353 174.981 270.67 175.607C270.687 175.639 270.697 175.674 270.701 175.71C270.704 175.747 270.7 175.783 270.689 175.818C270.677 175.852 270.659 175.884 270.635 175.911C270.612 175.939 270.582 175.961 270.55 175.977L270.43 176.007Z" fill="#263238"/>
<path d="M267.09 180.337C267.199 181.725 267.474 183.095 267.91 184.417C267.556 184.634 267.15 184.748 266.735 184.748C266.32 184.748 265.914 184.634 265.56 184.417L267.09 180.337Z" fill="#D4827D"/>
<path d="M269.3 178.847C269.04 179.467 268.5 179.847 268.08 179.667C267.66 179.487 267.53 178.847 267.79 178.227C268.05 177.607 268.59 177.227 269.01 177.407C269.43 177.587 269.55 178.217 269.3 178.847Z" fill="#263238"/>
<path d="M268.82 177.367H270.39C270.39 177.367 269.25 178.257 268.82 177.367Z" fill="#263238"/>
<path d="M246.28 184.227C246.318 184.33 246.368 184.427 246.43 184.517C246.53 184.717 246.64 184.897 246.75 185.097C247.392 186.328 248.265 187.425 249.32 188.327C252.73 191.157 255.67 192.057 258.32 191.327C258.45 191.327 258.57 191.247 258.7 191.207C262.62 189.727 265.7 185.207 268.31 179.107C269.44 176.745 270.18 174.216 270.5 171.617C270.5 171.617 270.5 171.527 270.5 171.507C270.5 171.487 270.5 171.297 270.5 171.207C270.628 169.712 270.38 168.21 269.779 166.835C269.179 165.461 268.244 164.258 267.06 163.337C266.049 162.505 264.949 161.787 263.78 161.197C252.42 155.297 240.79 173.247 246.28 184.227Z" fill="#EEC1BB"/>
<path d="M270.5 171.517C270.5 171.517 267.08 179.877 257.72 179.517C257.72 179.517 250.24 186.227 245.37 183.917C238.72 180.767 237.64 168.507 244.71 160.137C253.9 149.277 273.1 157.697 270.5 171.517Z" fill="#263238"/>
<path d="M262.77 179.157C263.4 177.897 263.45 175.287 261.36 174.587C259.27 173.887 255.56 178.277 259.96 181.887C260.59 182.407 261.5 181.777 262.77 179.157Z" fill="#EEC1BB"/>
<path d="M260.83 155.947C260.83 155.947 269.48 157.867 272.16 163.087C275.3 169.187 275.3 173.857 266.52 176.687C266.52 176.687 255.75 166.027 251.02 164.757C248.262 163.999 245.446 163.474 242.6 163.187C245.99 154.227 257.42 152.047 260.83 155.947Z" fill="#263238"/>
<path d="M257.74 179.517C252.3 190.387 240.34 208.857 227.59 195.827C227.59 195.827 232.17 181.087 241.42 175.007C250.67 168.927 257.74 179.517 257.74 179.517Z" fill="#263238"/>
<path d="M255.77 197.647C260.42 201.087 254.47 212.407 260.34 214.927C259.788 214.164 259.442 213.273 259.333 212.338C259.225 211.403 259.358 210.456 259.72 209.587C260.95 206.507 265.94 198.367 263.95 187.347L255.77 197.647Z" fill="#263238"/>
<path opacity="0.2" d="M231.68 221.517C231.68 221.517 224.08 226.667 216.89 227.307C217.522 220.614 218.75 213.991 220.56 207.517C221.48 206.999 222.506 206.698 223.56 206.637C228.9 206.737 230.85 211.747 230.85 211.747C231.428 214.971 231.706 218.242 231.68 221.517Z" fill="black"/>
<path d="M259.42 257.187L257.82 255.267C257.519 254.917 257.139 254.643 256.711 254.469C256.283 254.295 255.82 254.226 255.36 254.267L250.98 254.587C250.114 254.65 249.276 254.92 248.537 255.374C247.797 255.828 247.178 256.454 246.73 257.197L246.17 258.127C248.61 261.497 253.72 263.347 253.72 263.347L255.12 264.037C255.401 264.189 255.71 264.284 256.028 264.316C256.346 264.347 256.668 264.316 256.973 264.223C257.279 264.13 257.564 263.977 257.81 263.774C258.057 263.57 258.261 263.32 258.41 263.037L259.81 260.277C260.061 259.782 260.158 259.223 260.088 258.672C260.019 258.122 259.786 257.604 259.42 257.187Z" fill="#EEC1BB"/>
<path d="M228.63 211.217C228.508 217.515 228.96 223.811 229.98 230.027C230.355 232.016 230.839 233.982 231.43 235.917L230.99 235.047C233.3 238.577 236.68 241.847 239.63 245.047L244.57 250.147L249.57 255.277C250.01 255.721 250.271 256.312 250.302 256.936C250.332 257.56 250.13 258.174 249.735 258.658C249.34 259.143 248.78 259.464 248.162 259.56C247.545 259.655 246.913 259.519 246.39 259.177C244.32 257.867 242.39 256.487 240.39 255.087C234.29 250.497 228.14 246.207 223.39 240.087C219.25 230.917 218.24 220.727 218.59 210.767C219.18 204.117 228.82 204.607 228.74 211.277L228.63 211.217Z" fill="#EBC0BB"/>
<path d="M225.79 196.287C219.24 198.537 216.53 205.537 216.24 217.377C219.59 220.487 230.61 219.457 230.61 219.457C230.61 219.457 232.6 201.517 225.79 196.287Z" fill="#FF6800"/>
<path d="M296.37 266.387V269.517C296.37 270.327 295.37 270.657 294.61 270.657H231.5C230.69 270.657 229.71 270.327 229.71 269.517V266.357L296.37 266.387Z" fill="#263238"/>
<path opacity="0.4" d="M296.37 266.387V269.517C296.37 270.327 295.37 270.657 294.61 270.657H231.5C230.69 270.657 229.71 270.327 229.71 269.517V266.357L296.37 266.387Z" fill="white"/>
<path opacity="0.2" d="M296.37 266.387V269.517C296.37 270.327 295.37 270.657 294.61 270.657H252.99C252.18 270.657 251.22 270.327 251.22 269.517V266.357L296.37 266.387Z" fill="black"/>
<path d="M306.93 233.607L299.41 267.677C299.277 268.226 298.964 268.714 298.523 269.065C298.081 269.417 297.534 269.611 296.97 269.617H255.97C255.715 269.61 255.465 269.543 255.24 269.424C255.015 269.304 254.82 269.134 254.671 268.927C254.523 268.721 254.423 268.482 254.381 268.23C254.34 267.979 254.356 267.721 254.43 267.477L261.94 233.657C262.092 233.142 262.416 232.695 262.859 232.391C263.301 232.087 263.835 231.945 264.37 231.987H305.42C306.5 231.987 307.17 232.517 306.93 233.607Z" fill="#263238"/>
<path opacity="0.4" d="M306.93 233.607L299.41 267.677C299.277 268.226 298.965 268.714 298.523 269.066C298.081 269.417 297.534 269.611 296.97 269.617H257.33C257.074 269.611 256.823 269.546 256.597 269.427C256.371 269.308 256.175 269.139 256.025 268.932C255.875 268.724 255.774 268.485 255.732 268.233C255.69 267.981 255.706 267.722 255.78 267.477L263.29 233.657C263.442 233.141 263.768 232.692 264.213 232.388C264.657 232.084 265.193 231.942 265.73 231.987H305.38C306.5 231.987 307.17 232.517 306.93 233.607Z" fill="white"/>
<path opacity="0.2" d="M286.69 250.927C286.69 253.837 283.56 256.207 281.27 256.207C278.98 256.207 277.62 253.837 278.27 250.927C278.92 248.017 281.21 245.727 283.45 245.647C282.8 248.557 284.2 250.927 286.45 250.927H286.69Z" fill="black"/>
</g>
<defs>
<clipPath id="clip0_255_1595">
<rect width="500" height="429" fill="white" transform="translate(0.5 0.517212)"/>
</clipPath>
</defs>
</svg>
