<svg width="501" height="500" viewBox="0 0 501 500" fill="none" xmlns="http://www.w3.org/2000/svg">
<path d="M96.63 443.56C182.69 488.56 322.23 488.56 408.29 443.56C494.35 398.56 494.35 325.7 408.29 280.74C322.23 235.78 182.69 235.74 96.63 280.74C10.57 325.74 10.57 398.6 96.63 443.56Z" fill="#F5F5F5"/>
<path d="M329.99 408.45C352.573 408.45 370.88 397.879 370.88 384.84C370.88 371.801 352.573 361.23 329.99 361.23C307.407 361.23 289.1 371.801 289.1 384.84C289.1 397.879 307.407 408.45 329.99 408.45Z" fill="#E0E0E0"/>
<path d="M404.71 367.7C424.686 367.7 440.88 358.352 440.88 346.82C440.88 335.288 424.686 325.94 404.71 325.94C384.734 325.94 368.54 335.288 368.54 346.82C368.54 358.352 384.734 367.7 404.71 367.7Z" fill="#E0E0E0"/>
<path d="M372.58 78.84L378.98 82.53C378.94 82.2484 378.92 81.9644 378.92 81.68V79.83C378.92 76.53 381.24 75.2 384.09 76.83C385.325 77.5902 386.377 78.6148 387.17 79.83C387.64 75.68 390.89 74.14 394.84 76.42C397.09 77.8873 398.962 79.8644 400.306 82.1909C401.649 84.5173 402.424 87.1276 402.57 89.81V92.58C402.6 93.6887 402.378 94.7898 401.92 95.8L407.23 98.86C408.068 99.4085 408.765 100.147 409.264 101.016C409.763 101.885 410.049 102.859 410.1 103.86C410.1 105.69 408.81 106.43 407.23 105.51L372.58 85.51C371.743 84.961 371.047 84.2219 370.55 83.3529C370.053 82.484 369.769 81.5099 369.72 80.51C369.72 78.66 371 77.92 372.58 78.84Z" fill="#EBEBEB"/>
<path d="M345.22 97.47L350.05 100.25C350.018 100.038 350.002 99.8242 350 99.61V98.22C350 95.73 351.75 94.72 353.91 95.96C354.833 96.5345 355.623 97.2979 356.23 98.2C356.58 95.07 359.04 93.91 362.02 95.63C363.718 96.7378 365.132 98.2307 366.145 99.9874C367.158 101.744 367.742 103.715 367.85 105.74V107.83C367.873 108.663 367.706 109.491 367.36 110.25L371.36 112.56C371.988 112.972 372.511 113.526 372.886 114.178C373.262 114.829 373.479 115.559 373.52 116.31C373.52 117.69 372.52 118.25 371.36 117.56L345.21 102.46C344.58 102.052 344.056 101.5 343.68 100.85C343.305 100.2 343.089 99.4697 343.05 98.72C343.06 97.34 344.02 96.78 345.22 97.47Z" fill="#EBEBEB"/>
<path d="M78.9797 395.78C78.3497 396.12 66.5697 399.47 62.2097 393.7C57.8497 387.93 65.0897 378.96 60.9897 375.65C56.8897 372.34 45.4397 375.65 42.6797 368.7C39.9197 361.75 48.0997 358.7 43.4997 351.7C40.5997 347.28 32.4997 344.84 32.8697 340.7C33.4097 334.7 44.4797 333.06 54.1597 339.51C63.8397 345.96 68.3397 340.67 71.4197 340.24C74.4997 339.81 81.1097 340.76 80.8897 351.54C80.6697 362.32 78.9797 395.78 78.9797 395.78Z" fill="#455A64"/>
<path d="M79.7598 380.45C79.6078 380.449 79.4609 380.395 79.3454 380.296C79.23 380.197 79.1536 380.06 79.1298 379.91C75.7598 359.45 51.9798 342.8 39.6098 339.23C39.4475 339.179 39.3111 339.067 39.2292 338.918C39.1472 338.769 39.1259 338.594 39.1698 338.43C39.1938 338.349 39.2337 338.274 39.2869 338.208C39.3402 338.143 39.406 338.088 39.4803 338.048C39.5547 338.008 39.6362 337.984 39.7202 337.975C39.8042 337.967 39.8891 337.975 39.9698 338C52.6098 341.65 76.9698 358.71 80.3998 379.7C80.4259 379.868 80.3851 380.04 80.286 380.178C80.1869 380.317 80.0374 380.411 79.8698 380.44L79.7598 380.45Z" fill="white"/>
<path d="M51.7193 363.32C51.6087 363.32 51.4999 363.292 51.4035 363.238C51.3071 363.183 51.2264 363.105 51.1693 363.01C51.0841 362.864 51.0594 362.69 51.1005 362.525C51.1416 362.361 51.2452 362.219 51.3893 362.13C51.7793 361.9 60.9293 356.55 69.9393 359.05C70.021 359.072 70.0974 359.11 70.1643 359.162C70.2312 359.213 70.2872 359.278 70.329 359.351C70.3708 359.425 70.3977 359.506 70.4081 359.59C70.4184 359.673 70.4121 359.759 70.3893 359.84C70.3686 359.922 70.3314 360 70.28 360.067C70.2286 360.135 70.1641 360.191 70.0903 360.233C70.0165 360.275 69.935 360.302 69.8506 360.312C69.7662 360.322 69.6808 360.314 69.5993 360.29C61.1193 357.94 52.1393 363.18 52.0493 363.23C51.9497 363.29 51.8355 363.321 51.7193 363.32Z" fill="white"/>
<path d="M423.6 341.46L420.5 340C420.5 340 419.5 328.81 420.5 321.34C422.5 307.43 432.21 295.44 440.86 294.03C452 292.22 450.02 302.47 443.65 306.9C433.5 314 425.6 324.73 423.6 341.46Z" fill="#FF6800"/>
<g opacity="0.1">
<path d="M423.6 341.46L420.5 340C420.5 340 419.5 328.81 420.5 321.34C422.5 307.43 432.21 295.44 440.86 294.03C452 292.22 450.02 302.47 443.65 306.9C433.5 314 425.6 324.73 423.6 341.46Z" fill="black"/>
</g>
<path d="M422.42 337H422.5C422.641 336.973 422.765 336.892 422.846 336.774C422.926 336.656 422.957 336.511 422.93 336.37C420.77 324.94 430.18 303.75 442.77 297.73C442.903 297.668 443.006 297.555 443.055 297.417C443.105 297.28 443.098 297.128 443.035 296.995C442.973 296.862 442.861 296.76 442.723 296.71C442.585 296.661 442.433 296.668 442.3 296.73C429.3 302.93 419.64 324.73 421.86 336.55C421.882 336.681 421.952 336.799 422.055 336.882C422.158 336.965 422.288 337.007 422.42 337Z" fill="white"/>
<path d="M420.5 340C420.27 338.34 420.17 335.92 420.14 335.32C420.011 333.213 420.32 331.101 421.05 329.12C422.008 326.502 423.832 324.29 426.22 322.85C427.52 322.1 429.04 321.56 429.88 320.32C430.489 319.177 430.815 317.905 430.83 316.61C431.09 314.52 431.74 312.31 433.42 311.03C435.1 309.75 437.42 309.72 439.42 309.94C442.42 310.26 445.23 310.66 448.03 309.29C450.267 308.102 452.579 307.06 454.95 306.17C457.95 305.17 464.66 303.67 466.07 307.88C466.23 308.461 466.258 309.071 466.153 309.664C466.047 310.257 465.81 310.82 465.46 311.31C464.751 312.286 463.902 313.152 462.94 313.88L458.25 317.78C457.691 318.19 457.207 318.694 456.82 319.27C455.91 320.83 456.56 322.8 456.36 324.59C456.233 325.501 455.91 326.373 455.412 327.146C454.915 327.92 454.256 328.576 453.48 329.07C451.917 330.049 450.078 330.494 448.24 330.34C445.79 330.17 441.79 328.29 440.29 331.18C439.875 332.165 439.631 333.213 439.57 334.28C439.511 335.351 439.166 336.387 438.57 337.28C437.57 338.5 435.9 338.85 434.34 339.01C432.155 339.049 429.985 339.386 427.89 340.01C427.05 340.34 426.52 341.41 426.03 342.12C424.5 341.61 422.82 341 420.5 340Z" fill="#FF6800"/>
<path d="M421.87 339.16C421.795 339.179 421.716 339.179 421.64 339.16C421.516 339.109 421.417 339.011 421.365 338.888C421.312 338.764 421.311 338.625 421.36 338.5C427.66 322.85 447.76 311.64 459.74 307.92C459.804 307.9 459.871 307.893 459.937 307.9C460.004 307.906 460.068 307.926 460.127 307.957C460.186 307.989 460.237 308.032 460.279 308.084C460.321 308.136 460.352 308.196 460.37 308.26C460.408 308.387 460.395 308.524 460.333 308.642C460.272 308.76 460.166 308.849 460.04 308.89C448.25 312.55 428.47 323.55 422.3 338.89C422.258 338.968 422.196 339.034 422.12 339.081C422.045 339.128 421.959 339.156 421.87 339.16Z" fill="white"/>
<path d="M279.34 311.2C279.445 313.146 280.008 315.039 280.982 316.727C281.957 318.414 283.317 319.847 284.95 320.91C285.899 321.534 287.049 321.777 288.17 321.59C287.99 321.777 287.784 321.939 287.56 322.07L288.91 321.3L288.98 321.25L289.18 321.12C289.27 321.055 289.354 320.981 289.43 320.9L289.58 320.75C289.58 320.7 289.67 320.65 289.71 320.59C289.896 320.329 290.051 320.047 290.17 319.75L290.27 319.48C290.274 319.433 290.274 319.387 290.27 319.34C290.295 319.261 290.315 319.181 290.33 319.1C290.434 318.641 290.484 318.171 290.48 317.7C290.375 315.757 289.813 313.866 288.84 312.18C287.867 310.495 286.51 309.063 284.88 308C284.127 307.524 283.26 307.258 282.37 307.23H282.02L281.7 307.29L281.51 307.34H281.39C281.31 307.361 281.233 307.391 281.16 307.43L280.95 307.54L279.78 308.21C279.97 308.113 280.171 308.043 280.38 308C279.629 308.89 279.255 310.038 279.34 311.2Z" fill="#FF6800"/>
<path d="M162.93 375.72L170.84 389.46L172.18 388.68L287.56 322.07C287.784 321.939 287.99 321.777 288.17 321.59C288.894 320.707 289.252 319.579 289.17 318.44C289.062 316.495 288.498 314.603 287.523 312.916C286.548 311.229 285.191 309.795 283.56 308.73C282.804 308.261 281.939 307.999 281.05 307.97C280.811 307.966 280.572 307.993 280.34 308.05C280.131 308.093 279.929 308.163 279.74 308.26L279.64 308.31L162.93 375.72Z" fill="#EBEBEB"/>
<path d="M166.9 376.11C163.8 374.32 161.29 375.77 161.29 379.34C161.395 381.286 161.958 383.179 162.933 384.867C163.907 386.554 165.267 387.987 166.9 389.05C169.99 390.84 172.5 389.39 172.5 385.81C172.395 383.867 171.833 381.976 170.86 380.29C169.887 378.605 168.53 377.173 166.9 376.11Z" fill="#FF6800"/>
<path d="M154.85 384.44C154.888 384.38 154.935 384.326 154.99 384.28L162.14 376.41L162.2 376.35L162.33 376.21L162.4 376.13C163.4 375.13 165.04 375.07 166.88 376.13C168.51 377.193 169.866 378.625 170.839 380.31C171.812 381.996 172.374 383.887 172.48 385.83C172.48 387.91 171.63 389.26 170.32 389.69H170.24C170.105 389.729 169.968 389.76 169.83 389.78H169.74L159.38 392.04C158.749 392.145 158.101 392.006 157.57 391.65C156.636 391.044 155.859 390.227 155.301 389.264C154.744 388.302 154.421 387.221 154.36 386.11C154.326 385.514 154.499 384.924 154.85 384.44Z" fill="#E0E0E0"/>
<path d="M246.5 333.4L246.69 333.29C246.906 333.217 247.137 333.196 247.363 333.229C247.589 333.262 247.804 333.348 247.99 333.48C248.572 333.857 249.056 334.366 249.403 334.965C249.751 335.565 249.952 336.238 249.99 336.93C250.008 337.153 249.975 337.376 249.894 337.584C249.812 337.792 249.684 337.979 249.52 338.13L249.27 338.27L164.1 387.44L158.5 384.2L246.5 333.4Z" fill="#455A64"/>
<path d="M172 382.86L164.09 387.43L158.49 384.19L169.2 378C170.462 379.407 171.416 381.063 172 382.86Z" fill="#37474F"/>
<path d="M152.03 388.17L158.5 381L158.67 380.81C159.39 380.09 160.55 380.03 161.87 380.81C163.031 381.556 163.999 382.567 164.694 383.759C165.389 384.952 165.792 386.292 165.87 387.67C165.87 389.13 165.28 390.08 164.36 390.39H164.3L164.04 390.45L154.5 392.55C154.151 392.594 153.798 392.516 153.5 392.33C152.976 391.986 152.539 391.523 152.227 390.98C151.914 390.436 151.734 389.826 151.7 389.2C151.67 388.827 151.788 388.456 152.03 388.17Z" fill="#FF6800"/>
<path opacity="0.1" d="M152.03 388.17L158.5 381L158.67 380.81C159.39 380.09 160.55 380.03 161.87 380.81C163.031 381.556 163.999 382.567 164.694 383.759C165.389 384.952 165.792 386.292 165.87 387.67C165.87 389.13 165.28 390.08 164.36 390.39H164.3L164.04 390.45L154.5 392.55C154.151 392.594 153.798 392.516 153.5 392.33C152.976 391.986 152.539 391.523 152.227 390.98C151.914 390.436 151.734 389.826 151.7 389.2C151.67 388.827 151.788 388.456 152.03 388.17Z" fill="black"/>
<path d="M151.67 389.2C151.704 389.826 151.884 390.436 152.197 390.98C152.509 391.523 152.946 391.986 153.47 392.33C153.767 392.519 154.122 392.594 154.47 392.54L159.27 391.49C160.03 391.33 160.53 390.62 160.53 389.49C160.477 388.489 160.189 387.514 159.689 386.645C159.188 385.776 158.49 385.038 157.65 384.49C157.322 384.228 156.915 384.085 156.495 384.085C156.075 384.085 155.668 384.228 155.34 384.49L155.21 384.63L151.99 388.17C151.87 388.311 151.78 388.475 151.725 388.652C151.67 388.829 151.651 389.016 151.67 389.2Z" fill="#FF6800"/>
<path opacity="0.1" d="M153.5 388.16C152.5 387.59 151.7 388.05 151.7 389.16C151.734 389.786 151.914 390.396 152.227 390.94C152.54 391.483 152.976 391.946 153.5 392.29C154.5 392.86 155.3 392.39 155.3 391.24C155.259 390.622 155.075 390.023 154.763 389.488C154.45 388.954 154.018 388.499 153.5 388.16Z" fill="black"/>
<path d="M267.67 321.15C267.896 321.045 268.146 321.002 268.394 321.027C268.642 321.051 268.879 321.142 269.08 321.29C269.659 321.664 270.142 322.17 270.49 322.766C270.837 323.362 271.039 324.031 271.08 324.72C271.108 324.966 271.069 325.215 270.967 325.44C270.864 325.665 270.703 325.859 270.5 326L249.5 338.1C249.664 337.949 249.792 337.762 249.873 337.554C249.955 337.346 249.988 337.123 249.97 336.9C249.932 336.208 249.731 335.535 249.383 334.935C249.036 334.336 248.551 333.827 247.97 333.45C247.783 333.318 247.569 333.232 247.343 333.199C247.117 333.166 246.886 333.187 246.67 333.26L267.67 321.15Z" fill="#FAFAFA"/>
<path d="M267.09 322.43C267.13 323.12 267.332 323.791 267.68 324.388C268.027 324.986 268.51 325.493 269.09 325.87C269.279 326.044 269.519 326.153 269.775 326.181C270.03 326.209 270.288 326.155 270.511 326.027C270.734 325.899 270.91 325.703 271.014 325.468C271.118 325.233 271.145 324.971 271.09 324.72C271.049 324.031 270.847 323.362 270.5 322.766C270.152 322.17 269.669 321.664 269.09 321.29C268.901 321.118 268.662 321.01 268.408 320.982C268.154 320.953 267.897 321.006 267.675 321.133C267.453 321.259 267.277 321.453 267.172 321.686C267.066 321.919 267.038 322.18 267.09 322.43Z" fill="#F5F5F5"/>
<path d="M271.5 314H271.57L271.65 313.95L279.92 309.18L280.12 309.07C280.681 308.852 281.287 308.777 281.884 308.852C282.481 308.927 283.05 309.15 283.54 309.5C285.001 310.46 286.215 311.75 287.083 313.267C287.952 314.784 288.451 316.484 288.54 318.23C288.607 318.86 288.504 319.496 288.242 320.073C287.98 320.65 287.568 321.146 287.05 321.51L278.68 326.34H278.63C278.061 326.578 277.442 326.668 276.829 326.599C276.217 326.531 275.632 326.308 275.13 325.95C273.67 324.987 272.457 323.694 271.588 322.176C270.72 320.658 270.22 318.957 270.13 317.21C270.068 316.603 270.161 315.99 270.401 315.428C270.641 314.867 271.019 314.376 271.5 314Z" fill="#FF6800"/>
<path opacity="0.05" d="M271.5 314H271.57L271.65 313.95L279.92 309.18L280.12 309.07C280.681 308.852 281.287 308.777 281.884 308.852C282.481 308.927 283.05 309.15 283.54 309.5C285.001 310.46 286.215 311.75 287.083 313.267C287.952 314.784 288.451 316.484 288.54 318.23C288.607 318.86 288.504 319.496 288.242 320.073C287.98 320.65 287.568 321.146 287.05 321.51L278.68 326.34H278.63C278.061 326.578 277.442 326.668 276.829 326.599C276.217 326.531 275.632 326.308 275.13 325.95C273.67 324.987 272.457 323.694 271.588 322.176C270.72 320.658 270.22 318.957 270.13 317.21C270.068 316.603 270.161 315.99 270.401 315.428C270.641 314.867 271.019 314.376 271.5 314Z" fill="black"/>
<path opacity="0.1" d="M275.19 314.23C272.41 312.62 270.19 313.93 270.19 317.14C270.281 318.887 270.78 320.588 271.649 322.106C272.517 323.624 273.73 324.917 275.19 325.88C277.98 327.49 280.24 326.18 280.24 322.97C280.145 321.219 279.639 319.514 278.761 317.996C277.884 316.477 276.66 315.187 275.19 314.23Z" fill="black"/>
<path d="M149.38 391.18L152.8 389.12C152.904 389.063 153.023 389.038 153.142 389.046C153.261 389.055 153.374 389.098 153.47 389.17C153.742 389.342 153.969 389.577 154.131 389.856C154.293 390.135 154.385 390.448 154.4 390.77C154.409 390.885 154.389 391 154.342 391.105C154.295 391.21 154.222 391.301 154.13 391.37L150.72 393.43C150.522 393.534 150.303 393.589 150.08 393.59C149.732 393.59 149.399 393.452 149.153 393.206C148.908 392.961 148.77 392.627 148.77 392.28C148.77 392.06 148.826 391.844 148.933 391.651C149.039 391.459 149.193 391.297 149.38 391.18Z" fill="#455A64"/>
<path d="M149.18 391.33L149.36 391.18C149.461 391.15 149.568 391.143 149.672 391.16C149.776 391.178 149.874 391.219 149.96 391.28C150.231 391.453 150.455 391.689 150.616 391.967C150.776 392.246 150.866 392.559 150.88 392.88C150.892 392.992 150.874 393.106 150.828 393.209C150.783 393.313 150.711 393.403 150.62 393.47H150.55H150.48C150.347 393.523 150.203 393.547 150.06 393.54C149.713 393.54 149.379 393.402 149.134 393.156C148.888 392.911 148.75 392.577 148.75 392.23C148.771 391.886 148.925 391.563 149.18 391.33Z" fill="#263238"/>
<path d="M83.1697 400.31L79.6797 398.31C79.0987 397.932 78.6149 397.423 78.2675 396.824C77.92 396.225 77.7186 395.552 77.6797 394.86V136.29C77.7178 135.598 77.9189 134.925 78.2664 134.325C78.614 133.726 79.0982 133.217 79.6797 132.84L240.08 40.23C240.699 39.9132 241.384 39.748 242.08 39.748C242.775 39.748 243.461 39.9132 244.08 40.23L247.57 42.23C248.151 42.6075 248.634 43.1166 248.982 43.716C249.329 44.3154 249.531 44.9883 249.57 45.68V304.25C249.532 304.942 249.332 305.616 248.984 306.215C248.636 306.815 248.152 307.324 247.57 307.7L87.1497 400.31C86.5337 400.625 85.8516 400.789 85.1597 400.789C84.4678 400.789 83.7857 400.625 83.1697 400.31Z" fill="#FF6800"/>
<path opacity="0.4" d="M249.5 45.37C249.37 44.37 248.5 43.96 247.5 44.54L87.1498 137.15C86.5648 137.519 86.0804 138.028 85.7398 138.63L78.2598 134.32C78.6004 133.718 79.0848 133.209 79.6698 132.84L240.08 40.23C240.698 39.9116 241.384 39.7455 242.08 39.7455C242.775 39.7455 243.461 39.9116 244.08 40.23L247.58 42.23C248.106 42.5852 248.55 43.0494 248.881 43.5912C249.213 44.1329 249.423 44.7396 249.5 45.37Z" fill="white"/>
<path opacity="0.15" d="M86.7997 400.47C86.7601 400.478 86.7193 400.478 86.6797 400.47L86.4797 400.54H86.3997C86.2797 400.54 86.1597 400.6 86.0297 400.63C85.237 400.78 84.4185 400.714 83.6597 400.44C83.5088 400.383 83.3618 400.316 83.2197 400.24L79.7197 398.24C79.1404 397.861 78.6579 397.351 78.3106 396.752C77.9633 396.153 77.761 395.481 77.7197 394.79V136.29C77.7425 135.585 77.942 134.898 78.2997 134.29L85.7797 138.6C85.4097 139.203 85.2061 139.893 85.1897 140.6V399.17C85.1681 399.545 85.2777 399.917 85.4997 400.22C85.6228 400.375 85.7893 400.491 85.978 400.551C86.1668 400.612 86.3692 400.615 86.5597 400.56C86.6425 400.538 86.7229 400.508 86.7997 400.47Z" fill="black"/>
<path d="M199.44 87.84L199.15 87.66L195.84 85.76C194.636 85.0889 193.328 84.6257 191.97 84.39C191.4 84.26 190.89 84.11 190.44 83.96C189.94 83.7966 189.453 83.5995 188.98 83.37L189.22 83.06L185.5 80.89C185.186 80.7149 184.849 80.5837 184.5 80.5C183.09 80.15 180.98 80.97 178.88 80.73C178.115 80.6553 177.377 80.4132 176.717 80.0209C176.056 79.6285 175.491 79.0956 175.06 78.46C173.78 76.74 173.01 73.73 171.88 71.23L172.88 69.78C172.78 69.7174 172.676 69.6607 172.57 69.61L169.14 67.61C168.561 67.2692 167.901 67.0896 167.23 67.09C165.948 67.1576 164.706 67.5611 163.63 68.26C155.42 73.01 155.14 84.26 152.18 91.68C149.22 99.1 145.03 101.41 142.75 104.6C140.47 107.79 140.31 110.15 135.26 117.11C130.21 124.07 130.01 125.77 130.01 127.11V137.48L133.75 139.64L200.97 100.81L199.44 87.84ZM137.8 127.84C136.93 128.33 136.21 127.66 136.21 126.31C136.201 125.664 136.34 125.025 136.616 124.441C136.891 123.858 137.296 123.344 137.8 122.94C138.67 122.44 139.38 123.13 139.38 124.48C139.387 125.12 139.248 125.753 138.975 126.332C138.701 126.911 138.299 127.42 137.8 127.82V127.84ZM167.33 98.73C166.906 99.0391 166.416 99.2453 165.899 99.3324C165.382 99.4195 164.852 99.385 164.35 99.2317C163.848 99.0784 163.389 98.8105 163.009 98.4492C162.629 98.0879 162.338 97.6431 162.16 97.15C159.55 97.65 157.61 95.15 157.61 90.81C157.61 85.71 160.3 80.04 163.61 78.12C164.034 77.8111 164.525 77.6053 165.042 77.5189C165.56 77.4325 166.091 77.4678 166.592 77.6221C167.094 77.7764 167.553 78.0454 167.933 78.4078C168.312 78.7702 168.602 79.216 168.78 79.71C171.39 79.19 173.32 81.71 173.32 86.04C173.32 91.12 170.65 96.79 167.33 98.71V98.73ZM189.66 97.89C188.78 98.4 188.07 97.72 188.07 96.37C188.054 95.7232 188.189 95.0816 188.465 94.4965C188.741 93.9114 189.15 93.3989 189.66 93C190.54 92.49 191.25 93.17 191.25 94.52C191.262 95.1633 191.125 95.8007 190.849 96.382C190.573 96.9632 190.166 97.4726 189.66 97.87V97.89Z" fill="#455A64"/>
<path opacity="0.5" d="M137.5 129.67L130.27 125.5C130.105 126.021 130.024 126.564 130.03 127.11V137.48L133.77 139.64L137.5 137.48V129.67Z" fill="#37474F"/>
<path opacity="0.5" d="M144.93 116.73L148.67 108.1L142.73 104.62C140.99 107.03 140.48 108.98 138.14 112.81L144.93 116.73Z" fill="#37474F"/>
<path opacity="0.5" d="M159.88 99.48L160.36 96.96C158.71 96.27 157.61 94.04 157.61 90.79C157.61 86.46 159.55 81.73 162.16 79.22L156.98 76.22C154.78 81.22 153.98 87.22 152.16 91.69C151.78 92.69 151.37 93.52 150.96 94.32L159.88 99.48Z" fill="#37474F"/>
<path d="M199.439 87.84L199.149 87.66C198.049 87.1491 196.89 86.7731 195.699 86.54C193.745 86.1965 191.924 85.3172 190.439 84C190.064 83.6603 189.655 83.3589 189.219 83.1C188.909 82.9156 188.572 82.7806 188.219 82.7C185.959 82.15 181.84 84.62 178.88 80.78C178.844 80.7444 178.814 80.704 178.789 80.66C176.719 77.88 175.959 71.66 172.859 69.83C172.76 69.7674 172.656 69.7107 172.549 69.66C171.27 69.06 169.609 69.17 167.329 70.47C159.119 75.22 158.84 86.47 155.88 93.89C152.92 101.31 148.74 103.62 146.46 106.81C144.18 110 144.029 112.36 138.969 119.32C133.909 126.28 133.729 127.99 133.729 129.32V139.7L200.949 100.87V90.45C201 89.912 200.882 89.3715 200.611 88.9037C200.341 88.436 199.931 88.0642 199.439 87.84ZM141.499 130C140.619 130.51 139.91 129.83 139.91 128.47C139.897 127.825 140.035 127.186 140.31 126.604C140.586 126.021 140.993 125.509 141.499 125.11C142.379 124.6 143.079 125.29 143.079 126.64C143.093 127.284 142.957 127.922 142.683 128.505C142.409 129.088 142.004 129.6 141.499 130ZM167.299 98.74C166.876 99.0491 166.386 99.2553 165.869 99.3424C165.352 99.4295 164.821 99.395 164.32 99.2417C163.818 99.0884 163.359 98.8205 162.979 98.4592C162.599 98.0979 162.308 97.6531 162.13 97.16C161.542 95.8434 161.262 94.4107 161.309 92.97C161.309 87.88 163.989 82.2 167.309 80.29C167.758 80.0213 168.248 79.8287 168.759 79.72C171.369 79.2 173.299 81.72 173.299 86.05C173.319 91.12 170.649 96.79 167.329 98.71L167.299 98.74ZM193.389 100C192.509 100.51 191.799 99.83 191.799 98.49C191.785 97.8449 191.921 97.2053 192.197 96.622C192.473 96.0388 192.881 95.5279 193.389 95.13C194.259 94.62 194.969 95.3 194.969 96.65C194.982 97.2924 194.846 97.9289 194.572 98.51C194.298 99.0912 193.893 99.6011 193.389 100Z" fill="#37474F"/>
<path d="M173.319 86C173.319 91.1 170.649 96.77 167.319 98.69C166.896 98.9991 166.406 99.2053 165.889 99.2924C165.372 99.3795 164.841 99.345 164.34 99.1917C163.838 99.0385 163.379 98.7706 162.999 98.4093C162.619 98.048 162.328 97.6031 162.149 97.11C162.66 96.997 163.149 96.8046 163.599 96.54C166.909 94.62 169.599 88.95 169.599 83.85C169.643 82.4128 169.363 80.9843 168.779 79.67C171.389 79.17 173.319 81.68 173.319 86Z" fill="#263238"/>
<path d="M141.5 130C140.62 130.5 139.91 129.82 139.91 128.48C139.898 127.834 140.035 127.194 140.311 126.609C140.587 126.024 140.993 125.512 141.5 125.11C142.37 124.6 143.08 125.3 143.08 126.64C143.091 127.284 142.954 127.921 142.68 128.504C142.406 129.086 142.003 129.598 141.5 130Z" fill="#263238"/>
<path d="M193.39 100C192.51 100.5 191.8 99.83 191.8 98.48C191.787 97.8338 191.925 97.1935 192.2 96.609C192.476 96.0245 192.883 95.5115 193.39 95.11C194.26 94.61 194.97 95.3 194.97 96.65C194.98 97.292 194.843 97.9278 194.569 98.5086C194.295 99.0893 193.891 99.5995 193.39 100Z" fill="#263238"/>
<path d="M97.5594 161.34L237.139 80.75C237.51 80.5628 237.919 80.4653 238.334 80.4653C238.75 80.4653 239.159 80.5628 239.529 80.75L240.879 81.53C241.226 81.7573 241.515 82.0631 241.722 82.4228C241.929 82.7824 242.048 83.1857 242.069 83.6V296.54C242.049 296.955 241.931 297.359 241.724 297.718C241.517 298.078 241.228 298.384 240.879 298.61L101.299 379.2C100.929 379.387 100.52 379.485 100.104 379.485C99.6892 379.485 99.2799 379.387 98.9094 379.2L97.5594 378.42C97.2099 378.194 96.9189 377.889 96.7103 377.529C96.5017 377.17 96.3815 376.765 96.3594 376.35V163.41C96.383 162.995 96.504 162.591 96.7125 162.232C96.9209 161.872 97.211 161.567 97.5594 161.34Z" fill="#F5F5F5"/>
<path d="M242.03 83.24C241.88 82.75 241.42 82.59 240.88 82.91L101.3 163.5C100.94 163.713 100.646 164.021 100.45 164.39L96.71 162.24C96.9119 161.872 97.2045 161.563 97.56 161.34L237.14 80.75C237.51 80.5628 237.92 80.4653 238.335 80.4653C238.75 80.4653 239.159 80.5628 239.53 80.75L240.88 81.53C241.176 81.7238 241.43 81.975 241.628 82.2686C241.826 82.5623 241.962 82.8926 242.03 83.24Z" fill="#FAFAFA"/>
<path d="M101.01 379.33C100.867 379.382 100.72 379.422 100.57 379.45H100.34C100.097 379.475 99.8528 379.475 99.6101 379.45C99.4608 379.421 99.3137 379.381 99.1701 379.33L98.9001 379.2L97.5601 378.43C97.2136 378.202 96.9255 377.896 96.7188 377.537C96.5121 377.177 96.3927 376.774 96.3701 376.36V163.41C96.3772 162.997 96.4946 162.593 96.7101 162.24L100.45 164.39C100.237 164.748 100.117 165.154 100.1 165.57V378.51C100.1 379.16 100.5 379.48 101.01 379.33Z" fill="#E0E0E0"/>
<path d="M210.63 110.91L206.91 108.76C206.326 108.474 205.681 108.334 205.031 108.353C204.381 108.373 203.746 108.55 203.18 108.87C198.84 110.78 196.96 111.65 194.72 112.59L193.1 113.24C192.22 113.59 190.47 113.29 191.01 110.24L196.78 94.71H196.69L193.04 92.6C192.854 92.4836 192.646 92.4086 192.43 92.38C192.32 92.38 192.18 92.38 192.03 92.38C189.67 92.32 189.03 77.09 188.98 76.62L188.81 76.53L185.2 74.45C184.572 74.0941 183.861 73.9145 183.14 73.93C181.933 73.9857 180.757 74.3285 179.71 74.93C174.04 77.93 168.31 86.74 166.91 94.67C166.03 99.67 161 107.37 158.09 110.21C155.18 113.05 154.98 115.41 154.98 115.41L152.72 128.23L151.99 132.34C151.46 135.4 148.32 138.34 148.32 138.34L136.61 147C129.28 153.08 127.21 159.23 125.81 166.83V166.89C125.81 167.16 125.81 167.34 125.94 167.41C125.959 167.423 125.982 167.429 126.005 167.429C126.028 167.429 126.05 167.423 126.07 167.41L127.57 166.56L208.13 120.1C208.319 119.971 208.481 119.805 208.606 119.613C208.732 119.421 208.818 119.206 208.86 118.98C209.32 116.21 210.66 110.98 210.66 110.98L210.63 110.91ZM187.34 87.38C186.47 92.25 182.96 97.69 179.47 99.52C177.06 100.78 175.3 100 174.71 97.78C174.276 97.9496 173.807 98.0073 173.346 97.9479C172.885 97.8885 172.446 97.7138 172.07 97.44C170.95 96.56 181.21 78.94 182.07 79.33C182.469 79.5407 182.817 79.839 183.085 80.2026C183.353 80.5662 183.536 80.9858 183.62 81.43C186.5 80.56 188.11 83 187.34 87.38Z" fill="#455A64"/>
<path opacity="0.5" d="M137.5 155.56L131.63 152.17C128.23 156.65 126.86 161.36 125.85 166.83V166.89C125.85 167.16 125.85 167.34 125.98 167.41C125.999 167.423 126.022 167.429 126.045 167.429C126.068 167.429 126.09 167.423 126.11 167.41L130.74 163.75L137.5 155.56Z" fill="#37474F"/>
<path opacity="0.5" d="M151.6 133.53L159.88 138.3L163.61 116.73L156.15 112.42C155.556 113.273 155.156 114.246 154.98 115.27L152.72 128.09L151.99 132.2C151.907 132.656 151.777 133.102 151.6 133.53Z" fill="#37474F"/>
<path opacity="0.5" d="M170.829 84.23C168.943 87.4136 167.617 90.8976 166.909 94.53C166.315 97.1046 165.33 99.5731 163.989 101.85L171.079 105.95L174.609 97.8C174.189 97.9518 173.737 97.9984 173.295 97.9356C172.852 97.8729 172.431 97.7027 172.069 97.44C171.489 96.98 173.929 92.11 176.539 87.53L170.829 84.23Z" fill="#37474F"/>
<path d="M210.679 110.94H210.629C210.044 110.664 209.402 110.53 208.755 110.551C208.108 110.572 207.475 110.746 206.909 111.06C201.589 113.41 199.979 114.18 196.819 115.43C195.979 115.77 194.269 115.5 194.719 112.62C194.714 112.553 194.714 112.487 194.719 112.42L195.449 108.32L197.449 97.15C197.449 97.15 197.909 95.39 196.749 94.73H196.659C196.368 94.5954 196.05 94.5271 195.729 94.53C195.05 94.4483 194.398 94.2143 193.821 93.8455C193.244 93.4767 192.758 92.9826 192.399 92.4C191.776 91.4717 191.345 90.4283 191.13 89.331C190.915 88.2338 190.922 87.1047 191.149 86.01C191.999 81.22 191.069 77.86 188.949 76.61L188.779 76.51C187.409 75.78 185.569 75.9 183.419 77.03C177.739 80.03 172.009 88.84 170.619 96.77C169.729 101.77 164.699 109.48 161.789 112.31C158.879 115.14 158.689 117.51 158.689 117.51L156.499 130.26L155.779 134.36C155.239 137.42 152.099 140.36 152.099 140.36L140.399 149.14C135.73 152.857 132.359 157.958 130.769 163.71C130.769 163.71 126.379 167.12 126.109 167.39L127.609 166.54L208.399 120.1C208.399 120.1 209.319 119.59 209.529 119.46C209.739 119.33 212.989 116.26 212.989 116.26C212.809 113.64 212.029 111.75 210.679 110.94ZM187.339 87.38C186.469 92.25 182.959 97.69 179.469 99.52C177.059 100.78 175.299 100 174.709 97.78C174.446 96.5338 174.446 95.2462 174.709 94C175.579 89.12 179.099 83.69 182.589 81.87C182.909 81.6946 183.244 81.5473 183.589 81.43C186.499 80.56 188.109 83 187.339 87.38Z" fill="#37474F"/>
<path d="M187.34 87.38C186.47 92.25 182.96 97.69 179.47 99.52C177.06 100.78 175.3 100 174.71 97.78C175.054 97.6665 175.388 97.526 175.71 97.36C179.21 95.53 182.71 90.09 183.58 85.21C183.842 83.9637 183.842 82.6764 183.58 81.43C186.5 80.56 188.11 83 187.34 87.38Z" fill="#263238"/>
<path d="M183.969 81.64C184.296 81.6203 184.623 81.6854 184.917 81.8291C185.211 81.9728 185.464 82.1901 185.649 82.46C187.099 84.52 185.709 89.76 185.109 91.46C184.279 93.79 178.859 99.27 177.369 99.27C176.876 99.1886 176.404 99.0074 175.982 98.7375C175.561 98.4675 175.199 98.1145 174.919 97.7C174.673 96.4991 174.673 95.2609 174.919 94.06C175.769 89.24 179.249 83.88 182.679 82.06C182.985 81.8988 183.302 81.7618 183.629 81.65H183.959M183.959 81.42H183.589C183.244 81.5374 182.909 81.6846 182.589 81.86C179.099 83.68 175.589 89.11 174.709 93.99C174.446 95.2362 174.446 96.5238 174.709 97.77C175.01 98.2203 175.401 98.6037 175.857 98.8962C176.313 99.1887 176.824 99.3841 177.359 99.47C178.979 99.47 184.429 93.94 185.299 91.47C186.169 89 188.059 81.36 183.939 81.36L183.959 81.42Z" fill="#263238"/>
<path d="M126.069 167.42L208.349 120.12L209.489 119.49C209.689 119.37 212.939 116.28 212.939 116.28L130.719 163.74C130.719 163.74 125.739 167.6 126.069 167.42Z" fill="#263238"/>
<path d="M115.04 200.59V202.46C115.04 203.46 115.76 203.89 116.64 203.38L225.5 140.52C225.964 140.217 226.351 139.81 226.629 139.33C226.906 138.851 227.068 138.313 227.1 137.76V135.88C227.1 134.88 226.38 134.45 225.5 134.96L116.64 197.83C116.175 198.132 115.788 198.539 115.51 199.019C115.232 199.498 115.071 200.037 115.04 200.59Z" fill="#E0E0E0"/>
<path d="M115.04 211.9V213.77C115.04 214.77 115.76 215.2 116.64 214.69L225.5 151.82C225.965 151.518 226.352 151.111 226.63 150.631C226.908 150.152 227.069 149.613 227.1 149.06V147.18C227.1 146.18 226.38 145.76 225.5 146.26L116.64 209.14C116.175 209.442 115.788 209.849 115.51 210.329C115.232 210.808 115.071 211.347 115.04 211.9Z" fill="#E0E0E0"/>
<path d="M115.04 223.14V225C115.04 226 115.76 226.43 116.64 225.92L225.5 163.07C225.964 162.767 226.351 162.36 226.629 161.88C226.906 161.401 227.068 160.863 227.1 160.31V158.43C227.1 157.43 226.38 157 225.5 157.51L116.64 220.38C116.175 220.682 115.788 221.089 115.51 221.569C115.232 222.048 115.071 222.587 115.04 223.14Z" fill="#E0E0E0"/>
<path d="M115.04 248.05V249.92C115.04 250.92 115.76 251.35 116.64 250.84L225.5 188C225.965 187.698 226.352 187.291 226.63 186.811C226.908 186.332 227.069 185.793 227.1 185.24V183.36C227.1 182.36 226.38 181.94 225.5 182.44L116.64 245.29C116.175 245.592 115.788 245.999 115.51 246.479C115.232 246.958 115.071 247.497 115.04 248.05Z" fill="#E0E0E0"/>
<path d="M115.04 259.35V261.23C115.04 262.23 115.76 262.65 116.64 262.15L225.5 199.28C225.965 198.978 226.352 198.571 226.63 198.091C226.908 197.612 227.069 197.073 227.1 196.52V194.64C227.1 193.64 226.38 193.21 225.5 193.72L116.64 256.59C116.176 256.893 115.789 257.3 115.512 257.78C115.234 258.259 115.072 258.797 115.04 259.35Z" fill="#E0E0E0"/>
<path d="M115.04 270.6V272.47C115.04 273.47 115.76 273.9 116.64 273.39L225.5 210.52C225.965 210.218 226.352 209.811 226.63 209.331C226.908 208.852 227.069 208.313 227.1 207.76V205.88C227.1 204.88 226.38 204.46 225.5 204.96L116.64 267.84C116.175 268.142 115.788 268.549 115.51 269.029C115.232 269.508 115.071 270.047 115.04 270.6Z" fill="#E0E0E0"/>
<path d="M115.04 295.5V297.38C115.04 298.38 115.76 298.8 116.64 298.3L225.5 235.43C225.965 235.128 226.352 234.721 226.63 234.241C226.908 233.762 227.069 233.223 227.1 232.67V230.79C227.1 229.79 226.38 229.36 225.5 229.87L116.64 292.74C116.176 293.043 115.789 293.45 115.512 293.93C115.234 294.409 115.072 294.947 115.04 295.5Z" fill="#E0E0E0"/>
<path d="M115.04 306.81V308.68C115.04 309.68 115.76 310.11 116.64 309.6L225.5 246.73C225.964 246.43 226.351 246.025 226.63 245.547C226.908 245.069 227.069 244.532 227.1 243.98V242.1C227.1 241.1 226.38 240.67 225.5 241.18L116.64 304.05C116.175 304.352 115.788 304.759 115.51 305.239C115.232 305.718 115.071 306.257 115.04 306.81Z" fill="#E0E0E0"/>
<path d="M115.04 318.05V319.93C115.04 320.93 115.76 321.35 116.64 320.85L225.5 258C225.965 257.698 226.352 257.291 226.63 256.811C226.908 256.332 227.069 255.793 227.1 255.24V253.36C227.1 252.36 226.38 251.93 225.5 252.44L116.64 315.29C116.176 315.593 115.789 316 115.512 316.48C115.234 316.959 115.072 317.497 115.04 318.05Z" fill="#E0E0E0"/>
<path d="M171.08 319.56L227.13 287.21V288.29L171.08 320.64V319.56Z" fill="#E0E0E0"/>
<path d="M184.12 302.76C186.45 301.2 189.05 298.57 188.63 295.46C188.38 293.57 186.84 292.84 185.1 293.51C181.69 294.82 179.54 299.95 178.35 303.05C177.35 305.76 175.98 310.87 180.05 311.74C184.82 312.74 188.51 305.74 189.59 302.1C189.74 301.59 188.91 301.31 188.67 301.77C188.25 302.6 185.44 308.08 188.53 307.39C189.63 307.15 190.26 305.44 190.66 304.57C191.36 303.01 191.71 300.84 192.81 299.5L192 299.13C192.05 300.57 192 301.55 193 302.67C193.076 302.774 193.19 302.844 193.318 302.865C193.445 302.885 193.575 302.855 193.68 302.78C195.26 301.31 195.37 298.92 197.11 297.59L196.4 297.25C196.4 297.71 196.19 299.02 196.16 299.63C196.16 299.92 196.55 300.11 196.78 300.02C197.006 299.973 197.216 299.87 197.391 299.719C197.566 299.569 197.7 299.376 197.78 299.16L197.02 298.88C197.68 302.41 200.69 298.88 201.72 297.54C204.72 293.54 206.86 289.25 206.94 284.13C206.94 283.72 206.17 283.51 206.16 284C206.09 287.94 204.37 291.55 203.26 295.27C202.07 299.27 201.08 303.36 200.26 307.48L200.97 307.74C201.196 304.825 201.941 301.973 203.17 299.32C203.946 296.957 205.241 294.797 206.96 293L206.3 292.75C206.475 293.778 206.422 294.832 206.145 295.837C205.869 296.843 205.376 297.776 204.7 298.57C204.49 298.84 204.96 299.35 205.17 299.08C206.27 297.7 208.08 297.26 209.26 295.92C210.369 294.415 211.356 292.823 212.21 291.16L211.67 290.89C211.6 294.25 214.77 289.01 215.2 288.45L214.68 288.25C214.89 288.94 215.17 289.4 215.95 289.41C217.5 289.41 218.08 287.15 219.25 286.89C219.25 286.89 219.76 287.32 219.94 287.34C220.585 287.435 221.243 287.311 221.81 286.99C223.118 286.144 224.175 284.963 224.87 283.57C225.05 283.25 224.44 282.85 224.24 283.2C223.47 284.5 221.07 287.95 219.33 286.26C219.22 286.16 218.99 286.06 218.87 286.2C218.4 286.78 215.71 289.86 215.21 288.2C215.15 288 214.86 287.78 214.7 288C214.29 288.54 213.96 289.14 213.58 289.71C213.37 290.02 212.2 291.99 212.24 290.99C212.24 290.75 211.87 290.47 211.7 290.72C210.61 292.39 209.81 294.58 208.29 295.94C207.16 296.94 205.68 297.32 204.7 298.53L205.17 299.04C205.926 298.189 206.482 297.18 206.798 296.086C207.115 294.993 207.184 293.843 207 292.72C206.985 292.651 206.954 292.588 206.908 292.534C206.862 292.481 206.804 292.44 206.738 292.415C206.673 292.39 206.602 292.382 206.532 292.392C206.463 292.401 206.397 292.428 206.34 292.47C204.47 294.19 203.42 296.61 202.49 298.93C201.242 301.639 200.484 304.547 200.25 307.52C200.25 307.83 200.88 308.18 200.96 307.78C201.805 303.334 202.904 298.94 204.25 294.62C205.35 291.14 206.84 287.79 206.91 284.09L206.13 283.96C206.056 287.791 204.849 291.515 202.66 294.66C202.1 295.53 201.51 296.4 200.87 297.22C200.59 297.59 198.11 300.83 197.79 298.95C197.74 298.68 197.21 298.3 197.03 298.67L196.31 299.31L196.93 299.69C196.98 298.88 197.14 298.12 197.18 297.3C197.18 296.99 196.7 296.79 196.47 296.97C194.7 298.32 194.57 300.71 192.98 302.18L193.66 302.29C193.12 301.385 192.856 300.343 192.9 299.29C192.9 298.94 192.36 298.6 192.09 298.92C190.87 300.38 190.49 302.71 189.69 304.41C189.25 305.34 187.69 307.82 188.19 305.18C188.521 304.086 188.995 303.04 189.6 302.07L188.68 301.74C187.74 304.92 185.23 309.74 181.8 310.74C177.42 312.05 178.18 306.62 178.98 304.2C179.932 301.38 181.344 298.738 183.16 296.38C183.493 295.91 183.871 295.475 184.29 295.08C185.18 294.28 185.44 294.08 186.68 294.79C187.92 295.5 187.98 295.89 187.68 297.23C187.497 297.895 187.221 298.531 186.86 299.12C186.068 300.328 185.074 301.39 183.92 302.26C183.76 302.39 183.99 302.82 184.17 302.69L184.12 302.76Z" fill="#455A64"/>
<path d="M318.5 240.38C314.88 239.52 310.89 242.1 308.56 247.78C306.23 253.46 301.56 267.98 300.56 271.78C300.12 273.48 313.04 288.54 312.56 288.32C312.42 288.25 316.77 280.97 316.77 280.97L310.5 271.32L314.5 260.85L318.5 240.38Z" fill="#B16668"/>
<path d="M310.12 375.18C309.63 375.37 309.5 376.3 309.43 378.18C309.37 379.59 309.07 382.04 310.72 382.53C312.37 383.02 314.78 382.77 315.84 381.45C317.116 379.672 318.481 377.96 319.93 376.32C321.56 374.56 323.32 372.93 323.98 370.47C324.58 368.25 324.08 367.29 322.57 366.64C320.48 365.76 317.21 368.64 315.57 369.11C314.18 369.49 310.61 375 310.12 375.18Z" fill="#263238"/>
<path d="M310.12 373.46V375.74C310.977 376.288 311.966 376.593 312.983 376.621C313.999 376.649 315.004 376.4 315.89 375.9C315.99 375.68 316.49 372.63 316.49 372.63L310.12 373.46Z" fill="#B16668"/>
<path d="M327.099 387.31C326.704 388.532 326.37 389.774 326.099 391.03C325.809 392.41 325.409 394.72 325.899 395.75C326.389 396.78 328.259 397.46 331.189 397.44C333.079 397.44 336.029 398.71 338.049 399.84C340.079 400.835 342.375 401.154 344.599 400.75C347.199 400.44 349.899 398.93 350.319 397.86C350.739 396.79 350.199 396.26 344.069 393.65C344.009 393.65 337.609 390.73 334.639 387.46L327.099 387.31Z" fill="#263238"/>
<path d="M327.1 384.84C327.1 384.84 327.1 386.53 327.1 387.5C327.1 388.47 328.24 389.91 331.2 389.81C333.28 389.73 334.73 389.17 334.64 387.46V385L327.1 384.84Z" fill="#B16668"/>
<path d="M307.87 341.82C308.36 337.815 309.296 333.877 310.66 330.08C310.66 330.08 309.37 319.98 308.66 310.28C307.33 292.89 308.4 287.21 311.82 279.41C311.82 279.41 340.99 276.41 341.88 288.58C342.99 303.68 341.52 332.86 341.12 338.19C340.72 343.52 340.22 345.93 338.34 357.07C336.9 365.55 334.68 385 334.68 385C333.507 385.595 332.205 385.892 330.89 385.864C329.575 385.836 328.287 385.485 327.14 384.84C327.14 384.84 324.76 360.56 325.01 354.41C325.186 349.859 325.956 345.351 327.3 341C327.3 341 325.49 316.39 324.97 312.47C324.97 312.47 324.05 320.28 323.65 325.61C323.25 330.94 321.65 336.04 320.13 345.95C318.79 354.54 316.3 373.75 316.3 373.75C312.43 375.85 310.12 373.48 310.12 373.48C310.12 373.48 306.83 349.27 307.87 341.82Z" fill="#FF6800"/>
<g opacity="0.35">
<path d="M307.87 341.82C308.36 337.815 309.296 333.877 310.66 330.08C310.66 330.08 309.37 319.98 308.66 310.28C307.33 292.89 308.4 287.21 311.82 279.41C311.82 279.41 340.99 276.41 341.88 288.58C342.99 303.68 341.52 332.86 341.12 338.19C340.72 343.52 340.22 345.93 338.34 357.07C336.9 365.55 334.68 385 334.68 385C333.507 385.595 332.205 385.892 330.89 385.864C329.575 385.836 328.287 385.485 327.14 384.84C327.14 384.84 324.76 360.56 325.01 354.41C325.186 349.859 325.956 345.351 327.3 341C327.3 341 325.49 316.39 324.97 312.47C324.97 312.47 324.05 320.28 323.65 325.61C323.25 330.94 321.65 336.04 320.13 345.95C318.79 354.54 316.3 373.75 316.3 373.75C312.43 375.85 310.12 373.48 310.12 373.48C310.12 373.48 306.83 349.27 307.87 341.82Z" fill="black"/>
</g>
<path d="M333.41 236.45L332.04 247.72L322.13 246.83L323.26 234.32L333.41 236.45Z" fill="#B16668"/>
<path d="M311.25 246C312.34 243 316.05 239.73 319.86 240.44L322.66 240.95C322.74 243.55 327.66 244.89 332.52 243.32C333.98 243.74 335.33 244.17 336.52 244.6C340.01 245.85 341.41 251.6 341.52 261.34C341.63 271.08 342.63 295.21 342.63 295.21L338.5 296.52L336.6 289.45L335.83 297.92C331.193 299.002 326.366 298.978 321.74 297.85C311.26 295.56 308 289.91 308 289.91C309.282 283.37 311.83 277.143 315.5 271.58C310.26 257.61 309.64 250.43 311.25 246Z" fill="#EBEBEB"/>
<path d="M340.779 222.13C341.372 220.784 341.614 219.309 341.483 217.843C341.352 216.378 340.852 214.97 340.029 213.75C336.699 208.53 330.289 207.64 322.689 209.68C320.037 210.492 317.7 212.104 315.997 214.295C314.295 216.486 313.311 219.149 313.179 221.92C312.809 227.49 328.359 231.6 327.999 235.42L340.779 222.13Z" fill="#263238"/>
<path d="M341.109 224.25C341.109 224.25 343.219 227.63 342.919 227.98C342.397 228.304 341.821 228.534 341.219 228.66L341.109 224.25Z" fill="#9A4A4D"/>
<path d="M334.68 213.54C336.78 214.7 340.42 216.84 341.16 224.74C341.92 232.84 340.04 235.6 338.91 236.63C338.15 237.33 334.3 237.48 332.32 236.81C329.84 235.96 324.48 233.14 322.05 228.9C319.19 223.9 318.75 217.35 322.27 214.9C324.054 213.641 326.129 212.855 328.299 212.617C330.47 212.379 332.665 212.697 334.68 213.54Z" fill="#B16668"/>
<path d="M335.299 213.89C335.299 213.89 336.959 221.31 334.599 225.89C334.599 225.89 333.379 222.98 330.879 223.74C328.379 224.5 328.509 227.83 330.419 229.58C330.907 230.08 331.527 230.432 332.206 230.595C332.886 230.758 333.598 230.725 334.259 230.5C333.417 232.6 332.155 234.505 330.549 236.1C330.549 236.1 323.159 239.39 316.769 232.17C310.959 225.62 312.039 214.17 320.929 211.5C329.819 208.83 335.299 213.89 335.299 213.89Z" fill="#263238"/>
<path d="M314.23 214.66C314.58 214.96 314.796 215.386 314.832 215.846C314.867 216.305 314.719 216.76 314.42 217.11L311.78 214.84C311.929 214.666 312.11 214.524 312.314 214.421C312.518 214.318 312.74 214.256 312.968 214.24C313.196 214.223 313.424 214.251 313.641 214.324C313.858 214.396 314.058 214.51 314.23 214.66Z" fill="#263238"/>
<path d="M361.63 262.49C363.07 260.85 363.63 257.19 365.53 254.69C367.43 252.19 368.15 250.36 368.91 251.45C369.91 252.9 367.65 255.79 368.15 256.08C368.65 256.37 370.53 260.18 370.72 262.3C370.91 264.42 365.3 269.74 365.3 269.74L361.63 262.49Z" fill="#B16668"/>
<path d="M367.99 255.75C367.99 255.75 374.77 255.17 375.76 255.75C376.75 256.33 376.45 259.27 375.76 261.07C375.07 262.87 371.61 264.07 368.4 266.21C368.4 265.89 367.99 255.75 367.99 255.75Z" fill="#B16668"/>
<path d="M335.68 244.33C338.59 245.33 341.14 246.52 343.86 251.63C347.35 258.2 353.71 271.06 353.71 271.06L361.63 262.49C361.63 262.49 362.78 260.87 364.92 264.41C367.06 267.95 366.12 268.93 366.12 268.93C366.12 268.93 356.91 281.27 355.22 282.84C353.53 284.41 350.75 283.19 348.93 280.72C347.11 278.25 335.68 263.94 335.68 263.94C335.68 263.94 329.43 255.72 335.68 244.33Z" fill="#B16668"/>
<path opacity="0.2" d="M324.97 312.45L324.41 306.56C321.236 306.088 318.201 304.938 315.51 303.19C315.51 303.19 317.41 306.19 322.61 307.61L323.15 315.11L323.47 327.41L324.97 312.45Z" fill="black"/>
<path d="M304.2 242.77C305.551 242.774 306.888 242.512 308.137 241.998C309.386 241.484 310.521 240.729 311.478 239.776C312.435 238.823 313.194 237.691 313.713 236.444C314.231 235.197 314.499 233.86 314.5 232.51V216.92C313.323 216.538 312.073 216.44 310.851 216.634C309.629 216.828 308.47 217.309 307.47 218.036C306.469 218.764 305.655 219.718 305.093 220.82C304.532 221.923 304.24 223.143 304.24 224.38L304.2 242.77Z" fill="#263238"/>
<path d="M341.739 271.55C341.739 271.55 336.049 264.21 334.229 261.26L341.939 277.54L341.739 271.55Z" fill="#E0E0E0"/>
<path d="M391.63 211.27C389.47 217.64 384.86 236.64 384.86 236.64C384.86 236.64 376.07 248.33 373.65 250.56C372.31 251.8 369.28 254.03 369.28 254.03L371.8 255.89C371.8 255.89 376 254.61 376.35 256.89C380.73 253.367 384.872 249.558 388.75 245.49C389.729 244.468 390.419 243.205 390.75 241.83L394.5 225.7C394.5 225.7 394.5 212.7 396.5 211C398.5 209.3 397.71 205.45 397.71 205.45C396.34 205.49 393.33 206.28 391.63 211.27Z" fill="#FFA8A7"/>
<path d="M397.779 204.81C398.392 206.53 399.134 208.202 399.999 209.81C400.879 211.32 394.149 238.47 393.699 240.49C393.249 242.51 380.199 254.28 380.199 254.28C377.842 253.282 375.968 251.401 374.979 249.04L384.399 236.78C384.399 236.78 387.329 223.92 388.869 218.02C390.409 212.12 392.049 205.45 397.779 204.81Z" fill="#FF6800"/>
<path opacity="0.1" d="M397.779 204.81C398.392 206.53 399.134 208.202 399.999 209.81C400.879 211.32 394.149 238.47 393.699 240.49C393.249 242.51 380.199 254.28 380.199 254.28C377.842 253.282 375.968 251.401 374.979 249.04L384.399 236.78C384.399 236.78 387.329 223.92 388.869 218.02C390.409 212.12 392.049 205.45 397.779 204.81Z" fill="black"/>
<path d="M425.34 332.4H418.84V343.54H425.34V332.4Z" fill="#FFA8A7"/>
<path d="M398.74 335.1L392.24 335.33L391.92 323.54L398.74 323.32V335.1Z" fill="#FFA8A7"/>
<path d="M424.43 252.91C424.43 259.12 424.86 295.24 424.86 295.24C425.01 297.02 426.73 300.24 426.86 306.64C427.05 315.98 425.61 337.97 425.61 337.97C424.486 338.521 423.256 338.819 422.005 338.843C420.754 338.867 419.513 338.617 418.37 338.11C418.37 338.11 413.26 307.01 412.1 297.76C411.1 289.7 407.57 268.17 407.57 268.17L402.57 295.43C403.324 298.822 403.597 302.302 403.38 305.77C403.07 310.04 399.11 331.45 399.11 331.45C397.977 332.091 396.717 332.475 395.419 332.576C394.121 332.676 392.818 332.49 391.6 332.03C391.6 332.03 391.21 298.42 391.14 294.5C391.05 290.03 393 251.56 393 251.56L424.43 252.91Z" fill="#37474F"/>
<path d="M418.839 340.33V339.4C418.489 339.4 418.279 339.74 418.139 340.57C418.047 341.19 417.92 341.804 417.759 342.41C417.473 343.549 417.095 344.662 416.629 345.74C415.709 348.01 414.939 348.85 412.829 351.5C412.115 352.234 411.447 353.012 410.829 353.83C410.439 354.53 410.299 356.47 410.969 356.92C413.419 358.56 417.149 358.6 419.789 357.83C420.772 357.554 421.655 357.003 422.334 356.241C423.012 355.478 423.459 354.538 423.619 353.53C423.719 352.93 423.679 352.31 423.749 351.71C423.982 350.338 424.541 349.041 425.379 347.93C425.866 347.288 426.285 346.598 426.629 345.87C427.169 344.54 426.739 343.03 426.389 341.7C426.089 340.55 425.759 339.29 425.389 339.4V340.1C424.463 340.833 423.311 341.222 422.129 341.2C421.139 341.24 418.829 341.05 418.839 340.33Z" fill="#263238"/>
<path d="M392.17 333.32C391.83 333.32 391.56 333.81 390.81 334.62C389.697 335.74 388.406 336.67 386.99 337.37C384.55 338.59 379.82 340.46 377.67 341.43C376.33 342.03 376.4 343.65 377.78 344.57C379.16 345.49 382.51 346.15 386.52 345.26C388.7 344.77 391.52 342.75 393.35 342.86C395.18 342.97 398.52 342.94 399.85 342.02C401.18 341.1 400.65 339.15 400.27 337.47C399.86 335.64 399.35 332.77 398.74 332.9V333.53C397.96 334.72 393.92 335.2 392.21 334.33L392.17 333.32Z" fill="#263238"/>
<path d="M407.58 268.17C404.212 267.13 401.113 265.365 398.5 263C398.5 263 400.25 266.28 405.5 269.32L402.98 293.57L407.58 268.17Z" fill="#263238"/>
<path d="M413.15 205.25C415.37 205.79 419.83 206.52 420.83 210.93C422.03 216.22 422.42 227.75 422.42 227.75L422.83 253.41C418.35 256.67 401.9 258.41 392.47 251.56C392.47 251.56 393.63 220.76 393.63 215.96C393.63 211.16 396.29 205.4 403.63 204.96L413.15 205.25Z" fill="#F5F5F5"/>
<path d="M403.75 204.48C401.727 206.174 400.263 208.44 399.55 210.98C398.65 214.86 398.55 258.19 398.55 258.19C398.55 258.19 393.95 257.34 391.8 255.65C391.8 255.65 392.07 221.45 392.51 215.79C393.18 207.22 393.11 204.79 403.78 203.84L403.75 204.48Z" fill="#FF6800"/>
<path d="M415.089 203.84C415.089 203.84 408.959 207.61 408.889 222.62C408.829 235.62 408.399 258.19 408.399 258.19C408.399 258.19 418.549 259.68 424.979 255.84C424.979 255.84 425.749 224.38 425.619 219.51C425.479 213.93 424.179 206.72 422.389 206C420.013 205.099 417.573 204.377 415.089 203.84Z" fill="#FF6800"/>
<path d="M437.89 238.3C431.79 213.36 427.28 205.04 419.89 205.14C417.72 207.72 418.32 215.54 421.74 220.28C421.74 220.28 429.37 236.36 430.58 242.08C431.65 247.08 432.86 253.43 432.79 257.75C432.765 258.514 432.463 259.242 431.94 259.8C430.55 261.31 430.54 262.53 429.64 264.2C428.93 265.5 428.16 265.99 428.38 266.29C428.671 266.599 429.068 266.789 429.492 266.82C429.916 266.852 430.336 266.723 430.67 266.46C431.321 265.986 431.903 265.424 432.4 264.79C432.161 266.389 431.7 267.948 431.03 269.42C429.46 272.95 429.84 274.75 434.61 273.49C437.61 272.7 439.47 270.22 439.91 263.04C440.13 260.399 440.157 257.745 439.99 255.1C439.34 248.3 438.88 242.32 437.89 238.3Z" fill="#FFA8A7"/>
<path d="M418.6 204.73C418.6 204.73 423.51 204.51 426.17 207.2C428.83 209.89 432.42 215.55 435.9 227.92C439.38 240.29 440.45 249.33 440.62 256.29C440.62 256.29 436.26 258.29 432.24 256.01C432.24 256.01 430.46 245.24 428.88 239.51C427.3 233.78 421.41 221.71 421.41 221.71C421.41 221.71 415.78 213.34 418.6 204.73Z" fill="#FF6800"/>
<path opacity="0.1" d="M418.6 204.73C418.6 204.73 423.51 204.51 426.17 207.2C428.83 209.89 432.42 215.55 435.9 227.92C439.38 240.29 440.45 249.33 440.62 256.29C440.62 256.29 436.26 258.29 432.24 256.01C432.24 256.01 430.46 245.24 428.88 239.51C427.3 233.78 421.41 221.71 421.41 221.71C421.41 221.71 415.78 213.34 418.6 204.73Z" fill="black"/>
<path opacity="0.1" d="M415.779 212.05L412.969 215.52L414.379 219.48L410.689 228.94L415.129 219.48L413.579 215.74L415.779 212.05Z" fill="black"/>
<path opacity="0.1" d="M395.98 210.93L396.59 214.52L394.16 217.69L397.54 228.33L394.92 217.81L397.16 214.85L395.98 210.93Z" fill="black"/>
<path d="M411.46 185.318C412.251 180.445 408.942 175.853 404.068 175.062C399.195 174.27 394.602 177.58 393.811 182.454C393.02 187.327 396.33 191.919 401.203 192.711C406.077 193.502 410.669 190.192 411.46 185.318Z" fill="#263238"/>
<path d="M418.08 190.23C418.08 190.23 416.63 197.04 416.08 198.16C415.691 198.846 415.054 199.358 414.3 199.59L414.4 194.8L418.08 190.23Z" fill="#263238"/>
<path d="M416.26 180.48C416.769 180.423 417.284 180.484 417.766 180.657C418.248 180.83 418.683 181.112 419.04 181.48C420.23 182.7 419.57 186.48 418.04 190.25L415.31 190.56L416.26 180.48Z" fill="#263238"/>
<path d="M414.5 190.55C415.05 190.87 415.83 189.82 416.5 189.12C416.763 188.81 417.102 188.573 417.484 188.432C417.866 188.291 418.278 188.251 418.68 188.315C419.082 188.379 419.46 188.546 419.779 188.799C420.098 189.052 420.346 189.383 420.5 189.76C421.62 192.12 419.5 195.24 417.8 195.76C414.8 196.7 414.36 194.76 414.36 194.76L414.14 205.87C412.07 208.52 407.43 211.64 404.93 211.19C402.93 210.84 402.5 207.47 404.41 205.26V202C403.087 202.21 401.746 202.277 400.41 202.2C398.21 201.86 396.83 200.13 396.16 197.75C395.09 193.93 394.68 190.85 395.59 183.33C396.59 175.09 406.17 175.01 411.34 178.26C416.51 181.51 414.5 190.55 414.5 190.55Z" fill="#FFA8A7"/>
<path d="M414.499 191.47C414.779 191.47 415.829 189.74 416.499 189.12C417.439 188.26 416.219 180.48 416.219 180.48C416.546 179.796 416.659 179.029 416.543 178.28C416.427 177.53 416.088 176.834 415.569 176.28C414.279 174.86 412.479 173.12 406.569 173.82C402.389 174.31 397.839 175.61 394.159 173.82C393.819 175.02 393.845 176.293 394.233 177.478C394.622 178.663 395.355 179.705 396.339 180.47C397.847 181.218 399.49 181.654 401.169 181.75C404.401 181.994 407.649 181.934 410.869 181.57C411.869 181.43 412.099 182.41 412.649 185.1C413.209 187.45 413.609 191.45 414.499 191.47Z" fill="#263238"/>
<path d="M416.26 181.09L419.57 179.31C419.464 179.087 419.314 178.888 419.128 178.724C418.943 178.561 418.727 178.437 418.492 178.359C418.258 178.282 418.01 178.252 417.764 178.273C417.518 178.294 417.278 178.364 417.06 178.48C416.621 178.733 416.294 179.143 416.145 179.627C415.997 180.112 416.038 180.635 416.26 181.09Z" fill="#263238"/>
<path d="M404.43 202C406.689 201.569 408.905 200.933 411.05 200.1C412.059 199.574 412.885 198.754 413.42 197.75C413.162 198.755 412.702 199.698 412.07 200.52C410.82 202.12 404.43 203.3 404.43 203.3V202Z" fill="#F28F8F"/>
<path d="M405.609 189.32C405.609 189.585 405.715 189.84 405.902 190.027C406.09 190.215 406.344 190.32 406.609 190.32C406.875 190.32 407.129 190.215 407.316 190.027C407.504 189.84 407.609 189.585 407.609 189.32C407.609 189.055 407.504 188.8 407.316 188.613C407.129 188.425 406.875 188.32 406.609 188.32C406.344 188.32 406.09 188.425 405.902 188.613C405.715 188.8 405.609 189.055 405.609 189.32Z" fill="#263238"/>
<path d="M406.649 185.61L408.749 186.77C408.899 186.481 408.931 186.145 408.84 185.832C408.749 185.519 408.541 185.254 408.259 185.09C408.12 185.015 407.967 184.969 407.81 184.954C407.652 184.94 407.494 184.957 407.343 185.006C407.193 185.054 407.054 185.133 406.934 185.237C406.815 185.341 406.718 185.468 406.649 185.61Z" fill="#263238"/>
<path d="M404.87 196.11L402.63 196.95C402.677 197.101 402.755 197.241 402.858 197.362C402.961 197.482 403.087 197.581 403.229 197.651C403.371 197.721 403.526 197.761 403.684 197.77C403.843 197.778 404.001 197.755 404.15 197.7C404.452 197.579 404.696 197.346 404.83 197.05C404.964 196.753 404.978 196.417 404.87 196.11Z" fill="#F28F8F"/>
<path d="M396.839 186.43L398.759 184.95C398.669 184.82 398.553 184.711 398.419 184.627C398.285 184.543 398.136 184.488 397.98 184.463C397.824 184.439 397.665 184.447 397.511 184.486C397.358 184.525 397.215 184.594 397.089 184.69C396.833 184.893 396.665 185.187 396.618 185.51C396.572 185.834 396.651 186.163 396.839 186.43Z" fill="#263238"/>
<path d="M397.43 189C397.43 189.265 397.535 189.52 397.723 189.707C397.91 189.895 398.164 190 398.43 190C398.695 190 398.949 189.895 399.137 189.707C399.324 189.52 399.43 189.265 399.43 189C399.43 188.735 399.324 188.48 399.137 188.293C398.949 188.105 398.695 188 398.43 188C398.164 188 397.91 188.105 397.723 188.293C397.535 188.48 397.43 188.735 397.43 189Z" fill="#263238"/>
<path d="M402.44 188.11L402.12 194.02L399.03 192.97L402.44 188.11Z" fill="#F28F8F"/>
<path d="M401.37 210.55C401.97 211.99 403.09 212.55 405.1 212.8C406.117 212.863 407.136 212.718 408.096 212.374C409.055 212.03 409.934 211.495 410.68 210.8L408.18 208.31L404.99 210.7L404.72 208.03L401.37 210.55Z" fill="#FF6800"/>
<path opacity="0.1" d="M401.37 210.55C401.97 211.99 403.09 212.55 405.1 212.8C406.117 212.863 407.136 212.718 408.096 212.374C409.055 212.03 409.934 211.495 410.68 210.8L408.18 208.31L404.99 210.7L404.72 208.03L401.37 210.55Z" fill="black"/>
<path d="M402.949 209.77C402.654 210.634 402.542 211.55 402.619 212.46C402.715 213.27 403.026 214.04 403.519 214.69C403.836 214.894 404.196 215.022 404.571 215.064C404.946 215.105 405.325 215.06 405.679 214.93C406.327 214.374 406.847 213.685 407.204 212.911C407.561 212.136 407.747 211.293 407.749 210.44L404.989 210.75L402.949 209.77Z" fill="#FF6800"/>
<path d="M403.5 214.69C403.5 214.69 400.23 232.69 400.1 234.17C399.97 235.65 401.97 240.79 403.22 240.83C404.47 240.87 406.91 236.2 406.94 234.83C406.97 233.46 405.66 214.88 405.66 214.88L403.5 214.69Z" fill="#FF6800"/>
<path opacity="0.1" d="M405.68 214.93C405.33 215.084 404.947 215.144 404.567 215.101C404.188 215.059 403.826 214.917 403.52 214.69V214.98C403.831 215.229 404.199 215.399 404.591 215.476C404.982 215.552 405.387 215.533 405.77 215.42L405.68 214.93Z" fill="black"/>
<path d="M404.99 210.75L414.19 203.75V201.67C414.19 201.67 416.33 202.48 416.81 206.25C415.335 209.519 412.812 212.204 409.64 213.88L407.71 210.44L404.99 210.75Z" fill="#E0E0E0"/>
<path d="M404.43 202.62C403.227 202.81 402.149 203.468 401.43 204.45C400.51 205.96 400.72 211.77 400.72 211.77L402.92 209.77L404.92 210.77C404.73 208.84 404.35 205.32 404.35 205.32L404.43 202.62Z" fill="#E0E0E0"/>
<path d="M368.5 266.27C369.359 265.063 369.862 263.639 369.95 262.16C370.21 260.27 375.39 258.24 375.56 259.65C375.73 261.06 376.2 262.23 374.56 263.94C372.92 265.65 370.91 267.54 368.5 266.27Z" fill="#FFA8A7"/>
<path d="M368.77 254.06C367.53 255.66 366.77 258.77 366.11 259.82C365.45 260.87 364.67 261.82 366.11 261.97C367.55 262.12 369.64 259.36 370.42 257.66C370.722 256.988 371.182 256.398 371.76 255.94C371.987 255.758 372.24 255.609 372.51 255.5C371.84 255.27 372.19 252.57 371.72 252.2C371.72 252.2 369.28 253.2 368.77 254.06Z" fill="#FFA8A7"/>
</svg>
